<?xml version="1.0" encoding="UTF-8" standalone="no"?>
<svg
   xmlns:dc="http://purl.org/dc/elements/1.1/"
   xmlns:cc="http://creativecommons.org/ns#"
   xmlns:rdf="http://www.w3.org/1999/02/22-rdf-syntax-ns#"
   xmlns:svg="http://www.w3.org/2000/svg"
   xmlns="http://www.w3.org/2000/svg"
   xmlns:sodipodi="http://sodipodi.sourceforge.net/DTD/sodipodi-0.dtd"
   xmlns:inkscape="http://www.inkscape.org/namespaces/inkscape"
   width="227"
   height="227"
   viewBox="0 0 227 227"
   version="1.1"
   id="svg4"
   sodipodi:docname="ABC.svg"
   inkscape:version="0.92.2 5c3e80d, 2017-08-06">
  <metadata
     id="metadata10">
    <rdf:RDF>
      <cc:Work
         rdf:about="">
        <dc:format>image/svg+xml</dc:format>
        <dc:type
           rdf:resource="http://purl.org/dc/dcmitype/StillImage" />
        <dc:title></dc:title>
      </cc:Work>
    </rdf:RDF>
  </metadata>
  <defs
     id="defs8" />
  <sodipodi:namedview
     pagecolor="#ffffff"
     bordercolor="#666666"
     borderopacity="1"
     objecttolerance="10"
     gridtolerance="10"
     guidetolerance="10"
     inkscape:pageopacity="0"
     inkscape:pageshadow="2"
     inkscape:window-width="1470"
     inkscape:window-height="1024"
     id="namedview6"
     showgrid="false"
     inkscape:zoom="1.0396476"
     inkscape:cx="143.79873"
     inkscape:cy="190.44915"
     inkscape:window-x="371"
     inkscape:window-y="342"
     inkscape:window-maximized="0"
     inkscape:current-layer="svg4" />
  <path
     inkscape:connector-curvature="0"
     style="fill:#000000;fill-opacity:1;fill-rule:evenodd;stroke-width:0.23124412"
     id="Path 0"
     class="shp0"
     d="m 104.91373,61.19746 c 5.3179,0 5.46422,0.01147 5.46422,0.489683 0,0.269335 -0.43679,2.886779 -0.96968,5.815203 -0.53287,2.9284 -1.3606,7.475269 -2.71027,14.874654 l 2.76707,-0.183568 c 1.52439,-0.100474 3.94854,-0.181248 8.01069,-0.183568 l 0.50012,-2.877003 c 0.27298,-1.581727 1.11379,-6.236343 3.23442,-17.812854 l 10.94589,-0.129658 0.0284,0.553356 c 0.0179,0.306069 -0.60059,4.027791 -1.37368,8.268606 -0.77093,4.240797 -1.55717,8.540379 -1.74499,9.549157 -0.1878,1.011231 -0.34288,1.919643 -0.34288,2.020029 0,0.100475 2.43292,0.183569 5.40526,0.183569 3.34141,0 6.364,0.132183 7.91677,0.345239 1.38244,0.190914 3.14925,0.528872 3.9311,0.751695 0.78184,0.222806 1.86071,0.570495 2.40234,0.768835 0.54161,0.200765 1.76897,0.790864 2.7299,1.312392 0.96094,0.521531 2.41109,1.562153 3.22132,2.313837 0.81024,0.749242 1.8913,2.012663 3.33052,4.245703 l 1.63795,-1.163042 c 0.90196,-0.636617 2.47439,-1.633155 3.49429,-2.208546 1.01991,-0.577853 2.64258,-1.425034 3.6035,-1.887793 0.96093,-0.460329 2.97673,-1.260988 4.47707,-1.780062 1.50256,-0.516642 3.76295,-1.175294 5.02305,-1.461769 1.26013,-0.288909 3.62099,-0.683134 5.24146,-0.876566 2.3696,-0.284021 7.27033,-0.355017 24.95151,-0.35749 12.10119,-0.0039 22.00317,0.02455 22.00317,0.05873 0.002,0.03422 -0.83426,4.661948 -1.85635,10.283707 -1.0199,5.621762 -1.85633,10.332684 -1.85633,10.467364 0,0.16159 -7.29874,0.24484 -21.45724,0.24729 -17.56756,0 -21.8328,0.0637 -23.53192,0.35259 -1.1422,0.19342 -2.76268,0.59253 -3.6035,0.88635 -0.8408,0.29383 -2.21671,0.88636 -3.0575,1.31485 -0.84082,0.42848 -2.21669,1.27321 -3.05751,1.878 -0.8408,0.60478 -2.25383,1.86576 -3.13832,2.80108 -0.88448,0.93532 -2.08566,2.41912 -2.66439,3.29323 -0.58094,0.87413 -1.40428,2.38975 -1.83017,3.36671 -0.42585,0.97695 -1.02862,2.73988 -1.33874,3.9176 -0.33851,1.29038 -0.61151,3.06799 -0.68575,4.46853 -0.0895,1.68212 -0.0261,2.83292 0.23148,4.16246 0.19657,1.01122 0.67049,2.55379 1.05268,3.4279 0.45425,1.03817 1.23609,2.1963 2.24291,3.32751 1.15528,1.30016 2.0114,1.99554 3.40037,2.76437 1.01991,0.56559 2.59453,1.26587 3.49432,1.55969 1.62701,0.52644 1.79082,0.53133 24.18714,0.60233 22.38313,0.071 22.54913,0.0736 22.54913,0.56072 0,0.26933 -0.44771,2.94065 -0.99369,5.93761 -0.54597,2.99697 -1.3562,7.46304 -2.6098,14.40701 l -23.47734,-0.0808 c -23.03618,-0.0783 -23.52101,-0.0907 -25.77048,-0.60722 -1.26011,-0.29137 -3.12958,-0.80065 -4.14948,-1.1361 -1.01989,-0.33299 -2.74083,-1.03327 -3.82188,-1.55726 -1.08105,-0.52398 -2.78887,-1.49603 -3.79352,-2.16202 -1.00461,-0.66599 -2.62509,-1.93678 -5.37904,-4.42935 l -1.09197,1.0749 c -0.60057,0.5901 -1.87818,1.66498 -2.83911,2.38728 -0.96093,0.72231 -2.78017,1.86088 -4.04029,2.52686 -1.26015,0.66599 -3.05533,1.50094 -3.98569,1.85353 -0.93035,0.35013 -2.89589,0.92797 -4.36787,1.28056 -2.5028,0.59744 -3.12958,0.64396 -16.76173,0.8276 l -0.20093,1.16303 c -0.10925,0.63907 -0.67484,3.7805 -2.31061,12.79834 l -5.51445,-0.003 c -5.10605,-0.003 -5.51445,-0.0343 -5.51662,-0.43094 0,-0.23504 0.48919,-3.12673 1.08979,-6.42732 0.59839,-3.30057 1.14001,-6.24613 1.31473,-7.10065 H 92.251247 l -0.21405,1.16303 c -0.120212,0.63907 -0.659546,3.614 -1.201148,6.61098 -0.543804,2.99697 -0.987147,5.61196 -0.987147,5.81518 0,0.31585 -0.764366,0.36727 -5.569049,0.36727 -5.422716,0 -5.569047,-0.0122 -5.569047,-0.48969 0,-0.26934 0.307947,-2.16938 0.685764,-4.22367 0.375645,-2.0543 0.899792,-4.94597 1.63577,-9.12069 l -14.700087,-0.0611 c -8.087137,-0.0343 -14.704469,-0.14446 -14.704469,-0.24484 -0.002,-0.10039 0.28829,-1.78008 0.646451,-3.73398 0.358162,-1.95391 1.150934,-6.24858 1.762436,-9.54915 0.611503,-3.3006 1.179322,-6.30491 1.415178,-7.35778 l 4.094893,0.008 c 2.251663,0.003 4.092702,-0.0783 4.092702,-0.17874 -0.002,-0.10036 -0.436783,-2.05671 -0.967473,-4.34607 -0.530699,-2.28934 -1.469803,-6.36612 -2.085667,-9.05944 -0.618062,-2.69337 -1.452318,-6.3294 -1.856331,-8.08009 -0.404035,-1.75067 -1.386821,-6.0478 -2.181765,-9.54916 -0.794973,-3.50136 -1.493811,-6.5326 -1.554967,-6.73338 -0.06562,-0.22037 -4.658352,7.30143 -22.771939,37.82939 l 4.136383,0.0611 c 2.273481,0.0343 4.136376,0.14443 4.136376,0.24483 0.002,0.1004 -0.49575,2.88191 -1.105061,6.1825 -0.609333,3.30057 -1.445768,7.81806 -1.856354,10.03885 -0.412765,2.22325 -0.7491,4.12328 -0.751271,4.22367 -0.0019,0.10037 -8.945428,0.18363 -19.876024,0.18363 -10.930617,0 -19.9109843,-0.0833 -19.9590278,-0.18363 -0.045882,-0.10045 4.7937492,-8.36415 10.7558974,-18.36385 5.9621574,-9.99962 16.5411544,-27.73903 36.1747624,-60.661591 l 26.425666,-0.137189 1.364965,5.822536 c 0.7491,3.202637 1.712202,7.308783 2.138063,9.12802 0.425888,1.819237 1.120373,4.791734 1.541872,6.610964 0.42367,1.81924 1.063581,4.5738 1.423912,6.12126 0.358179,1.54746 0.812439,3.47687 1.362793,5.75398 l 0.495759,-2.81577 c 0.272978,-1.54746 1.426102,-7.9405 2.563942,-14.201328 1.14001,-6.260825 2.275661,-12.487363 2.524631,-13.834044 0.251149,-1.346675 0.480474,-2.470545 0.508863,-2.497464 0.02852,-0.02455 2.583597,-0.134686 5.678229,-0.244852 4.715123,-0.164051 5.643299,-0.254649 5.719734,-0.563152 0.0502,-0.200764 0.447733,-2.350564 0.88232,-4.774578 0.434596,-2.424033 1.229548,-6.831343 1.768985,-9.794026 0.537252,-2.962683 1.019901,-5.523819 1.074495,-5.692787 0.07424,-0.232599 1.386808,-0.30605 5.562498,-0.30605 z m -2.83257,46.58277 c -0.48264,2.65907 -0.87575,4.94599 -0.87575,5.08065 0,0.16159 5.04271,0.24485 14.68699,0.24729 12.9704,0.003 14.82676,-0.044 15.88815,-0.3991 0.65955,-0.22036 1.54626,-0.64396 1.96556,-0.94022 0.41929,-0.29872 1.05047,-0.91819 1.39771,-1.37851 0.34944,-0.45787 0.76656,-1.19243 0.92818,-1.63071 0.16168,-0.43828 0.29483,-1.18017 0.29483,-1.65273 0,-0.47256 -0.12879,-1.21446 -0.2861,-1.65274 -0.15729,-0.43828 -0.62462,-1.09203 -1.03737,-1.45197 -0.41276,-0.36237 -1.19243,-0.77372 -1.73404,-0.91329 -0.6268,-0.16405 -6.28756,-0.25709 -15.66978,-0.26199 -8.07838,-0.003 -14.68698,0.0221 -14.68481,0.0563 0,0.0343 -0.39311,2.23794 -0.87357,4.89699 z m -4.354769,23.99534 c -0.126598,0.70762 -0.550347,3.07777 -0.941281,5.26673 l -0.711954,3.98127 30.575144,-0.12731 c 2.03104,-1.06511 2.9483,-1.72619 3.35016,-2.15468 0.39968,-0.43095 0.926,-1.22425 1.16841,-1.76293 0.24024,-0.53867 0.44335,-1.474 0.44988,-2.08122 0.009,-0.66355 -0.15728,-1.44218 -0.41495,-1.95881 -0.23586,-0.47256 -0.76654,-1.10918 -1.18148,-1.41768 -0.41279,-0.30852 -1.09636,-0.666 -1.51565,-0.79577 -0.44991,-0.13712 -6.90783,-0.23261 -15.65668,-0.23261 l -14.892283,-0.003 z" />
</svg>
