<?xml version="1.0" encoding="UTF-8" standalone="no"?>
<svg
   xmlns:dc="http://purl.org/dc/elements/1.1/"
   xmlns:cc="http://creativecommons.org/ns#"
   xmlns:rdf="http://www.w3.org/1999/02/22-rdf-syntax-ns#"
   xmlns:svg="http://www.w3.org/2000/svg"
   xmlns="http://www.w3.org/2000/svg"
   xmlns:sodipodi="http://sodipodi.sourceforge.net/DTD/sodipodi-0.dtd"
   xmlns:inkscape="http://www.inkscape.org/namespaces/inkscape"
   width="227"
   height="227"
   viewBox="0 0 227 227"
   version="1.1"
   id="svg4"
   sodipodi:docname="BSV.svg"
   inkscape:version="0.92.3 (2405546, 2018-03-11)">
  <metadata
     id="metadata10">
    <rdf:RDF>
      <cc:Work
         rdf:about="">
        <dc:format>image/svg+xml</dc:format>
        <dc:type
           rdf:resource="http://purl.org/dc/dcmitype/StillImage" />
        <dc:title></dc:title>
      </cc:Work>
    </rdf:RDF>
  </metadata>
  <defs
     id="defs8" />
  <sodipodi:namedview
     pagecolor="#ffffff"
     bordercolor="#666666"
     borderopacity="1"
     objecttolerance="10"
     gridtolerance="10"
     guidetolerance="10"
     inkscape:pageopacity="0"
     inkscape:pageshadow="2"
     inkscape:window-width="1751"
     inkscape:window-height="1040"
     id="namedview6"
     showgrid="false"
     inkscape:zoom="3.6875"
     inkscape:cx="232.90537"
     inkscape:cy="96.556039"
     inkscape:window-x="598"
     inkscape:window-y="111"
     inkscape:window-maximized="0"
     inkscape:current-layer="svg4" />
  <path
     d="M 113.22034,227 C 50.687331,227 0,176.31267 0,113.77966 0,51.246653 50.687331,0.55932203 113.22034,0.55932203 c 62.53301,0 113.22034,50.68733097 113.22034,113.22033797 C 226.44068,176.31267 175.75335,227 113.22034,227 Z m 43.51907,-123.33941 a 0.63686441,0.63686441 0 0 0 -0.5661,0.35382 v -3.11356 l -0.77839,0.42457 c -0.49534,0.49534 -0.49534,0.56611 -0.49534,1.3445 v 5.80254 a 4.9533898,4.9533898 0 0 0 0,1.6983 5.0949153,5.0949153 0 0 1 -0.63687,2.83051 l -1.27373,0.84915 h -0.63686 a 1.2737288,1.2737288 0 0 1 0,-0.63686 v -2.33517 h -0.49534 a 3.4673729,3.4673729 0 0 0 -0.63686,0.99068 7.7838983,7.7838983 0 0 0 -0.99068,3.82118 c -0.16983,1.06144 -0.16983,2.12289 0,3.18433 a 4.3165254,4.3165254 0 0 1 -0.84916,4.03347 1.4152542,1.4152542 0 0 1 -0.84915,0.49534 1.4860169,1.4860169 0 0 0 -1.34449,0.84915 l -0.42458,0.91992 a 10.826695,10.826695 0 0 1 -0.63686,-2.19365 v -2.68898 a 7.0762712,7.0762712 0 0 0 -1.20297,0.99068 21.228814,21.228814 0 0 0 -3.18432,10.40212 c -0.14152,0.84915 -0.14152,1.83983 -1.48602,1.6983 -1.34449,-0.14152 -1.98135,1.06144 -2.33516,1.69831 -0.35382,0.63686 -0.70763,0.63686 -1.20297,0 a 3.8211864,3.8211864 0 0 1 0,-4.03348 l 0.49534,-0.99068 a 2.7597458,2.7597458 0 0 0 -2.33517,0.49534 16.275424,16.275424 0 0 0 -5.02415,4.52882 l -3.0428,4.88262 a 21.228814,21.228814 0 0 1 -3.67966,5.02416 9.6944915,9.6944915 0 0 1 -8.70381,2.33517 15.92161,15.92161 0 0 1 -6.72246,-3.82119 33.187712,33.187712 0 0 1 -5.37797,-7.07627 23.634746,23.634746 0 0 1 -2.335168,-7.07627 c -0.141526,-0.49534 -0.353814,0 -0.990678,0 -1.769068,1.06144 -3.835339,1.48601 -5.873305,1.20296 a 7.0762712,7.0762712 0 0 1 -5.661017,-4.88262 1.6983051,1.6983051 0 0 0 -0.636865,-0.84916 c -0.495339,-0.49533 -1.202966,-0.84915 -1.698305,-1.34449 a 5.8733051,5.8733051 0 0 1 -1.202966,-3.82118 2.4059322,2.4059322 0 0 1 -3.042796,-1.69831 5.9440678,5.9440678 0 0 1 0,-6.01483 0.99067797,0.99067797 0 0 0 0,-0.63686 c -1.202966,-1.3445 -3.538136,-3.67966 -3.538136,-3.67966 v -0.63687 c 1.061441,-1.83983 2.420085,-3.49568 4.033475,-4.88263 a 1.0614407,1.0614407 0 0 0 0,-1.20296 3.0427966,3.0427966 0 0 1 0,-2.759748 10.189831,10.189831 0 0 1 1.698305,-2.33517 l -2.476695,-0.636864 -7.076271,-1.486017 a 2.2644068,2.2644068 0 0 0 -1.486017,0 26.323729,26.323729 0 0 0 -5.519492,5.024152 24.483898,24.483898 0 0 0 -1.486017,2.193647 v 0.49534 l 0.849153,-0.49534 1.202966,-1.273731 A 25.545339,25.545339 0 0 0 65.24322,102.3161 c -1.344491,2.61822 -2.830508,5.30721 -4.033474,7.99619 a 8.7038136,8.7038136 0 0 0 -1.202966,4.52881 v 0.84915 l 0.636864,-0.63686 a 5.0241525,5.0241525 0 0 0 0.636864,-1.1322 31.206356,31.206356 0 0 0 -1.202966,3.67966 32.763136,32.763136 0 0 0 -1.486017,10.54364 c 0.120297,1.5214 0.573178,3.00034 1.344492,4.31653 0.141525,0.63686 0.990678,0.99067 0.990678,0.63686 v -3.89195 c 0.53072,1.36572 0.976525,2.75975 1.344491,4.175 0.30428,1.20297 0.516568,2.44132 0.636865,3.67966 0.495339,2.4767 0.849152,5.02416 1.486017,7.50085 0.452881,1.04021 1.075593,1.99551 1.83983,2.83051 h 1.344492 v -1.20297 l -0.495339,-0.99067 a 3.679661,3.679661 0 0 1 0,-2.68899 l 4.528813,5.02415 a 0.63686441,0.63686441 0 0 1 0,0.49534 c 0.169831,2.33517 0.799619,4.62081 1.839831,6.72246 a 5.6610169,5.6610169 0 0 0 5.377966,3.53814 h 0.849153 c -0.636865,-0.35382 -0.283051,-0.28305 -0.636865,-0.84916 -0.353813,-0.5661 -0.849152,-0.63686 -1.202966,-1.20296 -0.353814,-0.5661 0.353814,-1.20297 0.849153,-1.20297 a 6.0148305,6.0148305 0 0 1 1.83983,0.63687 55.194915,55.194915 0 0 0 10.543644,6.01483 l 4.882627,1.98135 1.698305,0.63687 c -1.132203,3.18432 -2.335169,6.22712 -3.325847,9.05762 -0.707627,-1.48601 -1.344492,-3.18432 -2.193644,-4.67033 l -0.990678,-1.98136 a 3.0427966,3.0427966 0 0 0 -2.193644,-1.69831 7.0762712,7.0762712 0 0 1 -4.033475,-0.99067 c -1.344491,-0.14153 -3.325847,0.35381 -3.821186,1.6983 a 4.2457627,4.2457627 0 0 1 4.175,0.84915 c -0.849153,1.83983 -0.353814,3.0428 1.344491,3.53814 a 2.6889831,2.6889831 0 0 1 1.981356,2.47669 c 0.424577,1.2242 0.587331,2.52623 0.495339,3.82119 a 3.8211864,3.8211864 0 0 1 -2.476695,-1.98135 10.685169,10.685169 0 0 0 -4.670339,-4.31653 c -1.344491,-0.70763 -2.830508,-0.99068 -3.821186,0.49534 h -0.636865 a 9.4822034,9.4822034 0 0 0 -2.193644,0 c -1.627542,0.28305 -2.335169,1.83983 -2.830508,3.32585 a 6.0148305,6.0148305 0 0 1 3.325847,-0.99068 c 0.353814,0 0.636865,0.28305 0.636865,0.63686 a 1.6275424,1.6275424 0 0 0 1.83983,1.34449 l 3.821187,1.48602 a 5.6610169,5.6610169 0 0 1 3.325847,3.18432 h -0.990678 a 32.197034,32.197034 0 0 0 -4.033474,0 10.543644,10.543644 0 0 0 -5.024153,1.69831 5.8733051,5.8733051 0 0 0 -3.042796,3.04279 2.3351695,2.3351695 0 0 0 0,1.48602 v 0.99068 a 5.5902542,5.5902542 0 0 0 0,1.6983 5.3072034,5.3072034 0 0 0 1.486016,2.68899 7.0762712,7.0762712 0 0 1 0.849153,-4.52882 c 1.981356,0.99068 2.688983,0.84916 4.175,-0.84915 l 0.990678,-1.27373 A 4.7411017,4.7411017 0 0 1 83.5,184.04703 l 5.024153,0.63687 a 0.84915254,0.84915254 0 0 1 0,0.49534 14.647881,14.647881 0 0 1 -3.538136,3.67966 4.3872881,4.3872881 0 0 0 -1.486017,5.66102 2.8305085,2.8305085 0 0 1 0,1.20296 2.9720339,2.9720339 0 0 0 2.122881,3.67966 v -2.68898 a 3.184322,3.184322 0 0 0 4.033475,-1.83983 14.152542,14.152542 0 0 0 1.202966,-3.53814 c 0.601483,-2.16534 2.122881,-3.95563 4.175,-4.88262 a 6.1563559,6.1563559 0 0 0 3.679661,-2.4767 l 0.495339,0.63687 a 5.2364407,5.2364407 0 0 0 4.882628,2.8305 c 0.35381,0 0.63686,0.28305 0.63686,0.63687 l 0.49534,3.39661 c 0.35382,-0.49534 1.20297,-0.99068 1.20297,-1.48602 a 6.5809322,6.5809322 0 0 0 0.63686,-5.02415 0.77838983,0.77838983 0 0 1 0,-0.84915 2.2644068,2.2644068 0 0 0 0,-2.68899 7.0762712,7.0762712 0 0 0 -3.32584,-3.32584 l -2.68899,-1.20297 0.99068,-0.49534 3.0428,-1.48602 c 0.35381,0 0.63686,-0.49533 0.99068,0 0.35381,0.49534 0.84915,0.99068 0.84915,1.48602 a 10.260593,10.260593 0 0 1 -0.49534,1.83983 h 0.84915 a 5.4487288,5.4487288 0 0 0 3.18432,-4.175 c 0.14153,-0.99068 0.70763,-1.83983 1.34449,-1.83983 0.63687,0 1.3445,-0.49534 1.83984,0 a 1.9105932,1.9105932 0 0 1 0.49533,1.83983 l -0.49533,1.48602 c 0.99067,-0.63687 1.98135,-1.20297 2.8305,-1.83983 1.93183,-1.25958 3.25509,-3.25509 3.67966,-5.51949 a 3.0427966,3.0427966 0 0 1 1.98136,-1.98136 42.033051,42.033051 0 0 0 4.52881,-0.63686 69.41822,69.41822 0 0 0 7.99619,-1.83983 43.943644,43.943644 0 0 0 11.03898,-5.02416 c 2.54746,-1.55678 4.88263,-3.04279 7.07627,-4.88262 a 41.75,41.75 0 0 0 5.5195,-5.37797 48.118644,48.118644 0 0 0 4.52881,-5.66102 c 1.59924,-2.40593 3.0428,-4.91093 4.31653,-7.50084 a 42.457627,42.457627 0 0 0 3.53813,-9.05763 54.487288,54.487288 0 0 0 1.98136,-12.525 72.744068,72.744068 0 0 0 0,-8.56229 11.322034,11.322034 0 0 0 0,-2.33517 l 5.02415,1.34449 a 6.0148305,6.0148305 0 0 1 -1.20297,1.69831 2.7597458,2.7597458 0 0 0 -0.99067,3.18432 c 0.53072,1.21712 1.24542,2.33517 2.12288,3.32585 a 3.4673729,3.4673729 0 0 0 2.83051,1.20296 c -0.35382,-0.5661 0.14152,0 -0.84916,-1.20296 -0.99068,-1.20297 -0.99068,-1.34449 0,-2.19365 a 4.4580508,4.4580508 0 0 0 0.84916,-0.99068 6.0148305,6.0148305 0 0 0 0.63686,-1.83983 l 1.48602,0.63687 a 7.7838983,7.7838983 0 0 1 3.89195,3.67966 1.8398305,1.8398305 0 0 0 2.33517,1.20297 c 0.84915,-0.14153 1.34449,0 1.34449,0.84915 v 0.35381 h 0.35381 a 1.7690678,1.7690678 0 0 0 0.84915,-2.33517 c -0.49534,-1.06144 -1.20296,-2.05212 -1.6983,-3.04279 a 6.0148305,6.0148305 0 0 0 -4.45805,-3.0428 22.785593,22.785593 0 0 0 2.33517,-1.34449 3.1135593,3.1135593 0 0 1 3.18432,0 1.2737288,1.2737288 0 0 0 1.76907,0 0.91991525,0.91991525 0 0 1 1.27373,0 l 1.34449,0.99068 a 1.2737288,1.2737288 0 0 0 0,-0.63687 3.5381356,3.5381356 0 0 0 -1.20297,-2.33517 2.4766949,2.4766949 0 0 1 -0.84915,-0.99068 2.6182203,2.6182203 0 0 0 -3.0428,-1.486013 24.200847,24.200847 0 0 1 -2.68898,0.636863 10.826695,10.826695 0 0 1 1.34449,-1.486016 c 0.99068,-0.636864 1.48602,-0.990678 0.99068,-1.981356 l 2.33517,-1.132203 a 2.4766949,2.4766949 0 0 0 -2.4767,-1.486017 6.3686441,6.3686441 0 0 1 -2.47669,0 1.2737288,1.2737288 0 0 0 -0.84916,0 c -0.84915,0.353814 -0.99067,1.486017 -1.34449,2.193644 a 6.0855932,6.0855932 0 0 0 -0.84915,2.193644 c -0.63686,-1.344491 -1.20297,-1.486017 0,-2.830508 1.20297,-1.344492 0.99068,-1.981356 0,-3.184322 a 2.8305085,2.8305085 0 0 0 0,-2.830509 2.7597458,2.7597458 0 0 0 -2.12288,2.547458 h -0.63686 c -1.3445,-0.212288 -1.98136,1.132203 -1.98136,2.476695 0.0849,1.556779 0.0849,3.113559 0,4.670339 h -0.49534 a 3.4673729,3.4673729 0 0 0 -0.63686,-0.990678 66.375424,66.375424 0 0 0 -4.88263,-4.882627 12.383475,12.383475 0 0 0 -5.37797,-3.184322 c -0.49534,0 -0.49534,-0.636865 -0.49534,-0.636865 a 15.992373,15.992373 0 0 0 -3.18432,-5.661017 7.6423729,7.6423729 0 0 1 -2.19364,-4.882627 c 0,-0.495339 -0.63687,-0.849152 -0.63687,-1.344491 a 11.817373,11.817373 0 0 0 -0.49534,8.066949 c 0.42458,1.224195 0.58733,2.526228 0.49534,3.821186 a 7.0762712,7.0762712 0 0 0 -1.41525,0.849153 c -0.35381,0.353813 -1.20297,1.344491 -1.20297,0.849152 v -0.495339 a 2.1228814,2.1228814 0 0 0 0,-0.990678 2.3351695,2.3351695 0 0 0 -0.49534,-0.636864 l -0.49534,0.495339 a 2.1228814,2.1228814 0 0 1 0,0.990678 12.100424,12.100424 0 0 0 0.49534,7.713135 2.8305085,2.8305085 0 0 1 0,1.981357 3.9627119,3.9627119 0 0 1 0,1.34449 c -0.99067,-0.35381 -0.99067,0.14153 -0.99067,0.63687 z M 69.772034,71.392797 a 2.5474576,2.5474576 0 0 1 0.849152,1.202966 c 2.306865,1.471864 4.84017,2.547457 7.500848,3.184322 2.972034,0.919915 6.510169,1.415254 10.048305,2.122881 1.747839,0.106144 3.474449,0.389195 5.165678,0.849153 3.587669,0.94822 7.012583,2.405932 10.189833,4.316525 a 1.0614407,1.0614407 0 0 0 0.99068,0 c 1.48601,-0.495339 2.8305,-1.202966 4.31652,-1.698305 a 26.323729,26.323729 0 0 1 8.20848,-1.344492 h 4.31652 c 1.99551,0.318433 3.96271,0.813772 5.87331,1.486017 3.32584,1.224195 6.34741,3.156017 8.84533,5.661017 v -2.476695 c 0,-2.193644 1.30912,-4.175 3.32585,-5.024152 a 4.1042373,4.1042373 0 0 1 4.52882,0.919915 6.5809322,6.5809322 0 0 1 1.6983,4.528814 47.057203,47.057203 0 0 1 0,7.076271 7.0762712,7.0762712 0 0 1 -1.98135,4.175 V 97.575 c 1.2808,3.0711 1.91059,6.36864 1.83983,9.69449 a 29.366525,29.366525 0 0 1 -0.49534,6.72246 v 1.34449 c 0.35381,-0.35381 0.42457,0 0.99067,-0.99068 0.56611,-0.99068 0.70763,-2.19364 1.20297,-3.18432 a 5.8025424,5.8025424 0 0 1 4.38729,-3.96271 v -3.67966 a 7.0762712,7.0762712 0 0 1 3.18432,-5.873307 v -0.495339 a 20.238136,20.238136 0 0 1 0,-6.368644 6.0855932,6.0855932 0 0 1 2.19364,-4.175 0.99067797,0.99067797 0 0 0 0,-0.636865 42.457627,42.457627 0 0 1 0,-4.670339 19.884322,19.884322 0 0 0 0.99068,-7.076271 9.1283898,9.1283898 0 0 0 -0.99068,-3.042797 21.794915,21.794915 0 0 1 -1.6983,-2.476694 26.040678,26.040678 0 0 0 -2.68898,-3.325848 3.8211864,3.8211864 0 0 0 -2.83051,-1.344491 c 0.49534,1.344491 1.98135,2.335169 1.34449,4.175 a 10.826695,10.826695 0 0 0 -1.48602,-1.344492 1.6983051,1.6983051 0 0 1 -0.99068,-1.202966 9.340678,9.340678 0 0 0 -2.8305,-4.175 4.5288136,4.5288136 0 0 0 -4.31653,-1.344492 l 0.63687,0.495339 a 3.3258475,3.3258475 0 0 1 1.83983,2.33517 v 1.486017 h -0.99068 c -0.84915,-0.495339 -1.62754,-1.202966 -2.83051,-1.839831 a 8.6330508,8.6330508 0 0 0 -5.09492,-5.802542 8.9161017,8.9161017 0 0 0 -3.04279,-0.849153 c -0.63687,-0.495339 -1.20297,0 -1.83983,0 h 0.49534 a 2.6889831,2.6889831 0 0 1 1.83983,2.476695 3.679661,3.679661 0 0 1 -0.84916,0.283051 h -0.49533 a 3.4673729,3.4673729 0 0 0 -3.18433,-1.344491 12.949576,12.949576 0 0 0 -1.20296,-2.688983 7.7838983,7.7838983 0 0 0 -5.51949,-3.325848 6.0855932,6.0855932 0 0 0 -2.33517,0 v 1.061441 h 1.41525 a 1.9105932,1.9105932 0 0 1 0.91992,2.547457 c -0.14153,-0.636864 0.21228,-0.141525 -0.63687,-0.636864 a 7.0762712,7.0762712 0 0 0 -2.83051,-0.495339 4.0334746,4.0334746 0 0 1 -1.20296,-0.495339 8.7745763,8.7745763 0 0 0 -3.67966,-2.830508 6.0855932,6.0855932 0 0 0 -6.01484,0.849152 h 0.49534 a 1.9813559,1.9813559 0 0 1 1.98136,1.486017 v 0.636865 h -0.49534 a 2.6182203,2.6182203 0 0 0 -2.68898,0 1.9813559,1.9813559 0 0 1 -1.98136,-0.636865 h -0.49534 a 7.0762712,7.0762712 0 0 0 -3.821184,-1.486017 5.8733051,5.8733051 0 0 0 -4.316525,1.132204 0.77838983,0.77838983 0 0 0 0,1.06144 c 0.636864,0 0,0.495339 0.636864,0 0.636865,-0.495339 0.849153,0.141526 1.486017,0.495339 0.636865,0.353814 0.636865,0.849153 0,0.849153 l -2.476695,0.849152 c -1.202966,0.636865 -2.688983,0 -3.184322,0 h -0.28305 a 9.9775424,9.9775424 0 0 0 -5.873306,0 C 84.702966,56.249576 83.5,57.240254 83.5,58.44322 a 1.2737288,1.2737288 0 0 0 0.636864,0 c 0.636865,-0.849152 1.344492,-0.353813 1.839831,0 0.495339,0.353814 0.636864,0.990678 0,0.990678 l -4.033475,2.193644 a 1.1322034,1.1322034 0 0 1 -0.990678,0 8.35,8.35 0 0 0 -5.661017,0 4.175,4.175 0 0 0 -2.335169,2.618221 v 0.849152 h 0.636864 c 0.566102,0 1.202966,-0.495339 1.202966,0 0,0.495339 0.495339,0.990678 0,1.486017 a 2.9012712,2.9012712 0 0 0 -0.849152,0.636865 z m 66.870766,33.258473 -1.55678,0.0708 a 3.8919492,3.8919492 0 0 1 -3.53814,-3.18432 1.6275424,1.6275424 0 0 0 -1.48602,-1.48602 c -1.48601,0.14153 -1.83983,-0.707622 -2.33517,-1.6983 a 2.1228814,2.1228814 0 0 1 0,-0.990678 3.3966102,3.3966102 0 0 1 3.53814,-2.688983 h 6.01483 a 3.8919492,3.8919492 0 0 0 4.31653,-3.325848 16.558475,16.558475 0 0 0 0,-7.076271 c 0,-0.566102 0.21228,-1.202966 -0.63687,-1.202966 -0.84915,0 -0.84915,0.495339 -0.84915,0.990678 v 4.528814 a 3.6088983,3.6088983 0 0 1 -3.11356,2.901271 7.0762712,7.0762712 0 0 1 -3.67966,0 20.733475,20.733475 0 0 0 -4.52881,-0.495339 5.165678,5.165678 0 0 0 -5.37797,2.830508 c -0.35381,0.636865 0.35381,0.990678 -0.99068,1.839831 a 37.716525,37.716525 0 0 1 -4.03347,2.193644 1.4860169,1.4860169 0 0 1 -1.83983,0 6.0148305,6.0148305 0 0 0 -6.01483,-0.849153 h -0.84916 a 2.1228814,2.1228814 0 0 1 -0.99067,-2.193644 10.189831,10.189831 0 0 0 0,-7.076271 2.8305085,2.8305085 0 0 0 -3.0428,-1.486017 c -1.1322,0.495339 -2.12288,0.990678 -3.32585,0 A 21.228814,21.228814 0 0 0 92.133051,81.370339 c -3.184322,-0.707627 -6.51017,-1.202966 -9.694492,-1.698305 -1.981356,-0.353814 -4.033474,-0.707627 -6.01483,-1.202966 a 25.686864,25.686864 0 0 1 -9.482204,-4.670339 67.649153,67.649153 0 0 1 -3.184322,-3.042797 l -1.83983,-1.981356 a 1.5567797,1.5567797 0 0 0 -1.202966,0 v 1.486017 c 0.707627,2.129958 2.045042,4.00517 3.821186,5.377966 a 24.200847,24.200847 0 0 0 7.076271,4.033475 c 2.476695,0.757161 5.01,1.344491 7.571611,1.769068 l 4.670339,0.495339 a 35.381356,35.381356 0 0 1 10.048305,2.335169 c 1.712457,0.743009 3.39661,1.563856 5.024152,2.476695 v 0.77839 a 16.416949,16.416949 0 0 1 -2.688983,0.849152 0.77838983,0.77838983 0 0 1 -0.849152,0 c -2.193644,-0.849152 -4.387289,-1.83983 -6.722458,-2.688983 A 19.601271,19.601271 0 0 0 84.136864,84.837712 L 80.10339,84.342373 C 78.263559,83.847034 76.777542,84.200847 74.583898,83.847034 72.390254,83.49322 70.267373,82.997881 68.073729,82.502542 a 22.290254,22.290254 0 0 1 -7.500848,-3.538135 c -1.83983,-1.344492 -3.538135,-3.184322 -5.377966,-4.670339 l -1.132203,-0.636865 h -0.849153 v 0.849153 a 9.9067797,9.9067797 0 0 0 0.990678,2.335169 c 1.839831,2.830509 4.245763,5.236441 7.076271,7.076272 2.738517,1.72661 5.717628,3.042796 8.845339,3.891949 a 39.627119,39.627119 0 0 0 7.996187,1.981356 c 1.953051,0.240593 3.863644,0.764237 5.661017,1.556779 1.981356,0.636865 4.033474,1.627543 6.01483,2.476695 a 14.152542,14.152542 0 0 1 2.193644,1.486017 8.4915254,8.4915254 0 0 1 -3.679661,1.839831 l -3.821186,0.707627 a 2.3351695,2.3351695 0 0 0 -1.839831,1.698305 c 2.299789,0.08492 4.564195,0.544874 6.722458,1.344494 2.44839,0.84915 4.358983,2.78097 5.165678,5.23644 l -0.495339,-0.49534 a 12.171186,12.171186 0 0 0 -4.670339,-2.83051 8.7745763,8.7745763 0 0 0 -5.873305,0 c -0.990678,0.70763 -2.193644,1.83983 -2.830508,2.33517 -0.636865,0.49534 -0.495339,0.84915 0,1.34449 1.514322,1.55678 3.347076,2.75975 5.377966,3.53814 h -0.849153 a 3.9627119,3.9627119 0 0 0 -2.830508,3.18432 7.0762712,7.0762712 0 0 1 0,0.84915 h 0.849152 c 0.495339,0 1.061441,-0.49534 1.698305,0 a 5.8025424,5.8025424 0 0 1 2.193644,1.83983 1.0614407,1.0614407 0 0 1 0,0.99068 16.416949,16.416949 0 0 0 -0.849152,2.68898 c -0.495339,0.14153 -0.353814,0.99068 0,0.99068 a 3.5381356,3.5381356 0 0 0 0.849152,-0.63686 l 0.495339,0.99067 a 6.5809322,6.5809322 0 0 0 1.344492,2.33517 5.5902542,5.5902542 0 0 0 6.510169,0.99068 28.305085,28.305085 0 0 0 3.679661,-2.47669 2.0521186,2.0521186 0 0 1 1.344491,-0.63687 8.0669492,8.0669492 0 0 1 1.98136,0 0.77838983,0.77838983 0 0 1 0.63686,0.49534 2.4766949,2.4766949 0 0 1 -0.63686,2.33517 17.690678,17.690678 0 0 0 -1.98136,1.69831 4.5995763,4.5995763 0 0 0 3.32585,0 8.0669492,8.0669492 0 0 0 3.32585,-2.4767 2.6889831,2.6889831 0 0 0 0.63686,-1.98135 35.947458,35.947458 0 0 1 -1.34449,-5.02416 c -0.14153,-1.34449 -0.63687,-2.19364 -1.98136,-2.19364 a 2.4059322,2.4059322 0 0 1 0,0.99068 c -0.49534,0.63686 -0.35381,0.63686 -1.34449,0 l -2.83051,-1.98136 a 4.0334746,4.0334746 0 0 1 -1.839828,-3.67966 1.3444915,1.3444915 0 0 1 1.344492,-1.34449 3.5381356,3.5381356 0 0 1 1.839826,3.18432 2.4766949,2.4766949 0 0 1 0,0.99068 l 1.48602,-0.99068 3.18432,0.84915 c 1.06144,0.0849 2.12288,0.0849 3.18433,0 a 10.897458,10.897458 0 0 0 0,2.33517 c 0.55194,3.17725 1.62754,6.2342 3.18432,9.05763 1.34449,2.61822 2.83051,5.3072 4.03347,7.99619 a 6.6516949,6.6516949 0 0 1 0.49534,5.37796 v 0.49534 a 4.1042373,4.1042373 0 0 1 -5.37797,2.19365 10.685169,10.685169 0 0 1 -3.53813,-4.03348 c -0.99068,-1.34449 -2.4767,-3.6089 -2.83051,-4.175 a 1.8398305,1.8398305 0 0 0 -1.83983,-1.20297 v 0.99068 c 0.32551,1.04021 0.72886,2.0592 1.20297,3.0428 0.84915,1.34449 1.83983,2.68898 2.8305,4.03347 1.13928,1.5214 2.55454,2.81636 4.175,3.82119 a 6.3686441,6.3686441 0 0 0 10.18984,-5.66102 16.770763,16.770763 0 0 0 -1.20297,-7.07627 c -0.99068,-2.19364 -2.19364,-4.59957 -3.18432,-7.07627 a 20.450424,20.450424 0 0 1 -2.33517,-8.77458 6.0148305,6.0148305 0 0 1 1.83983,-4.03347 c 0,0.49534 0.49534,-0.35381 0,0.49534 a 4.9533898,4.9533898 0 0 0 -0.49534,2.68898 c 2.47669,-0.49534 3.46737,-2.33517 4.31652,-4.52881 a 5.0949153,5.0949153 0 0 0 0,1.48602 3.5381356,3.5381356 0 0 0 0.63687,0.84915 1.4152542,1.4152542 0 0 0 0.99068,-0.49534 17.761441,17.761441 0 0 0 1.48601,-1.83983 c 0.43166,0.28305 0.835,0.62271 1.20297,0.99068 0.99068,1.48601 1.69831,1.34449 2.19364,0 a 2.9720339,2.9720339 0 0 1 1.69831,-1.98136 c 0.61563,0.65809 1.27373,1.27373 1.98136,1.83983 h 0.99067 a 3.3966102,3.3966102 0 0 0 0,-0.84915 v -2.4767 c 2.33517,0.63687 4.52882,0.35382 4.52882,-0.84915 z m -39.414834,-4.882626 0.77839,-0.849152 a 7.0762712,7.0762712 0 0 0 3.679664,0 l 1.20296,-0.495339 a 3.6088983,3.6088983 0 0 1 1.83983,0 2.2644068,2.2644068 0 0 1 1.20297,1.486016 v 0.495341 a 25.545339,25.545339 0 0 1 -2.68898,1.83983 2.7597458,2.7597458 0 0 1 -3.325851,0 34.461441,34.461441 0 0 1 -2.688983,-2.476696 z m 23.068644,2.335166 a 9.8360169,9.8360169 0 0 1 6.6517,0.35382 c 0.49533,0.40334 0.94114,0.84915 1.34449,1.34449 -0.49534,0.14152 -0.84916,0.63686 -1.34449,0.63686 a 12.878814,12.878814 0 0 1 -2.4767,0 5.5902542,5.5902542 0 0 0 -3.18432,-1.83983 2.4766949,2.4766949 0 0 1 -0.99068,-0.49534 z m -88.170339,21.79492 a 2.6182203,2.6182203 0 0 1 0.141526,1.48602 5.3779661,5.3779661 0 0 0 4.741101,3.82118 c 1.344492,0.16983 2.688983,0.16983 4.033475,0 a 10.897458,10.897458 0 0 0 3.891949,-1.06144 10.472881,10.472881 0 0 0 4.670339,-5.02415 c 0.636864,-1.48602 1.344492,-2.83051 1.839831,-4.31653 l 1.981355,-5.66101 c 0.849153,-2.4767 1.839831,-5.30721 2.830509,-7.50085 0.990678,-2.19364 2.122881,-4.175 3.325847,-6.368645 a 37.645763,37.645763 0 0 1 5.661017,-7.854661 l 0.990678,-0.849152 -2.335169,-0.990678 -3.679661,-1.981356 c -0.353814,0 -0.990678,-0.495339 -0.990678,0 a 62.200424,62.200424 0 0 0 -3.184322,5.661017 c -1.486017,3.184322 -2.476695,6.510169 -3.821187,9.694495 a 10.614407,10.614407 0 0 1 -2.335169,3.67966 8.35,8.35 0 0 1 -7.076271,2.19364 11.322034,11.322034 0 0 1 -3.325848,-1.20296 3.9627119,3.9627119 0 0 1 -1.981356,-2.83051 6.2978814,6.2978814 0 0 0 0.353814,10.26059 c 3.09233,2.12288 7.168263,2.12288 10.260593,0 a 25.05,25.05 0 0 1 2.122881,-1.83983 9.6944915,9.6944915 0 0 1 -10.685169,5.23644 h -0.990678 a 9.2699153,9.2699153 0 0 1 -6.085593,-11.60508 9.1991525,9.1991525 0 0 0 -3.821187,10.18983 c 0.566102,2.59699 2.214873,4.84017 4.528814,6.15635 a 11.463559,11.463559 0 0 0 7.854661,0.99068 2.8305085,2.8305085 0 0 1 -1.839831,1.6983 7.0762712,7.0762712 0 0 1 -7.076271,-1.98135 z m 99.563139,-5.66102 c 0.49534,0 0.49534,0 2.2644,0.5661 h 0.49534 v -0.63686 a 3.3258475,3.3258475 0 0 0 -1.20296,-2.68898 21.228814,21.228814 0 0 1 -3.53814,-3.18433 1.6983051,1.6983051 0 0 0 -0.84915,-0.63686 l -1.20297,-0.49534 v 1.48602 c 0,0.35381 0.63687,1.34449 0,1.34449 l -1.83983,0.99068 c -2.54746,-3.0428 -2.54746,-2.19365 -3.53813,-2.19365 0.14152,0.49534 0.63686,0.84916 0.63686,1.34449 a 2.7597458,2.7597458 0 0 1 0,2.33517 3.3258475,3.3258475 0 0 1 -4.03347,0 l -0.70763,-0.84915 c 0.32551,2.61822 1.11097,5.16568 2.33517,7.50085 h 0.99068 a 6.1563559,6.1563559 0 0 1 1.83983,-0.84915 1.6275424,1.6275424 0 0 1 2.12288,0.84915 l 0.49534,1.48602 h 0.77839 a 1.6983051,1.6983051 0 0 0 0.63686,-0.84916 4.1042373,4.1042373 0 0 0 0,-3.67966 h 0.84915 l 1.98136,0.99068 c 0.84915,0.49534 1.48602,0.49534 1.48602,-0.49534 a 10.897458,10.897458 0 0 0 0,-2.33517 z M 48.118644,106.98644 a 5.5194915,5.5194915 0 0 0 -1.415254,-5.44873 3.184322,3.184322 0 0 0 -3.184322,-0.63686 2.0521186,2.0521186 0 0 0 -1.202966,1.98135 c 0,0.49534 -0.212288,0.84916 -0.849153,0.49534 -0.636864,-0.35381 -1.202966,-1.20296 -1.83983,-1.20296 a 2.6889831,2.6889831 0 0 0 1.981356,3.82118 c 0.658093,0.0849 1.323262,0.0849 1.981356,0 a 7.4300847,7.4300847 0 0 1 4.528813,0.99068 z"
     id="path2"
     inkscape:connector-curvature="0"
     style="stroke-width:7.07627106" />
</svg>
