<?xml version="1.0" encoding="UTF-8" standalone="no"?>
<!-- Generator: Adobe Illustrator 17.1.0, SVG Export Plug-In . SVG Version: 6.00 Build 0)  -->

<svg
   xmlns:dc="http://purl.org/dc/elements/1.1/"
   xmlns:cc="http://creativecommons.org/ns#"
   xmlns:rdf="http://www.w3.org/1999/02/22-rdf-syntax-ns#"
   xmlns:svg="http://www.w3.org/2000/svg"
   xmlns="http://www.w3.org/2000/svg"
   xmlns:sodipodi="http://sodipodi.sourceforge.net/DTD/sodipodi-0.dtd"
   xmlns:inkscape="http://www.inkscape.org/namespaces/inkscape"
   version="1.1"
   id="Capa_1"
   x="0px"
   y="0px"
   viewBox="0 0 415 415"
   style="enable-background:new 0 0 415 415;"
   xml:space="preserve"
   sodipodi:docname="big-square-target.svg"
   inkscape:version="0.92.4 (5da689c313, 2019-01-14)"><metadata
   id="metadata49"><rdf:RDF><cc:Work
       rdf:about=""><dc:format>image/svg+xml</dc:format><dc:type
         rdf:resource="http://purl.org/dc/dcmitype/StillImage" /><dc:title /></cc:Work></rdf:RDF></metadata><defs
   id="defs47" /><sodipodi:namedview
   pagecolor="#ffffff"
   bordercolor="#666666"
   borderopacity="1"
   objecttolerance="10"
   gridtolerance="10"
   guidetolerance="10"
   inkscape:pageopacity="0"
   inkscape:pageshadow="2"
   inkscape:window-width="1256"
   inkscape:window-height="868"
   id="namedview45"
   showgrid="false"
   inkscape:zoom="0.5686747"
   inkscape:cx="157.79562"
   inkscape:cy="207.5"
   inkscape:window-x="565"
   inkscape:window-y="234"
   inkscape:window-maximized="0"
   inkscape:current-layer="g12" />
<g
   id="g12">
	
	
	
	
	<g
   id="g3759"
   style="fill:#808080;fill-opacity:0.50196081"><path
     id="path2"
     d="M67.5,400H15v-52.5c0-4.143-3.358-7.5-7.5-7.5S0,343.357,0,347.5v60c0,4.143,3.358,7.5,7.5,7.5h60   c4.142,0,7.5-3.357,7.5-7.5S71.642,400,67.5,400z"
     style="fill:#808080;fill-opacity:0.50196081" /><path
     id="path4"
     d="M407.5,340c-4.142,0-7.5,3.357-7.5,7.5V400h-52.5c-4.142,0-7.5,3.357-7.5,7.5s3.358,7.5,7.5,7.5h60   c4.142,0,7.5-3.357,7.5-7.5v-60C415,343.357,411.642,340,407.5,340z"
     style="fill:#808080;fill-opacity:0.50196081" /><path
     id="path6"
     d="M67.5,0h-60C3.358,0,0,3.357,0,7.5v60C0,71.643,3.358,75,7.5,75s7.5-3.357,7.5-7.5V15h52.5c4.142,0,7.5-3.357,7.5-7.5   S71.642,0,67.5,0z"
     style="fill:#808080;fill-opacity:0.50196081" /><path
     id="path8"
     d="M407.5,0h-60c-4.142,0-7.5,3.357-7.5,7.5s3.358,7.5,7.5,7.5H400v52.5c0,4.143,3.358,7.5,7.5,7.5s7.5-3.357,7.5-7.5v-60   C415,3.357,411.642,0,407.5,0z"
     style="fill:#808080;fill-opacity:0.50196081" /><path
     id="path10"
     d="M267.5,200H215v-52.5c0-4.143-3.358-7.5-7.5-7.5s-7.5,3.357-7.5,7.5V200h-52.5c-4.142,0-7.5,3.357-7.5,7.5   s3.358,7.5,7.5,7.5H200v52.5c0,4.143,3.358,7.5,7.5,7.5s7.5-3.357,7.5-7.5V215h52.5c4.142,0,7.5-3.357,7.5-7.5   S271.642,200,267.5,200z"
     style="fill:#808080;fill-opacity:0.50196081" /></g>
</g>

</svg>