<?xml version="1.0" encoding="utf-8"?>
<!-- Generator: Adobe Illustrator 17.0.2, SVG Export Plug-In . SVG Version: 6.00 Build 0)  -->
<!DOCTYPE svg PUBLIC "-//W3C//DTD SVG 1.1//EN" "http://www.w3.org/Graphics/SVG/1.1/DTD/svg11.dtd">
<svg version="1.1" id="Livello_1" xmlns="http://www.w3.org/2000/svg" xmlns:xlink="http://www.w3.org/1999/xlink" x="0px" y="0px"
	 width="1069.4px" height="197.8px" viewBox="0 0 1069.4 197.8" enable-background="new 0 0 1069.4 197.8" xml:space="preserve">
<g>
	<path fill="#222223" d="M436.3,162.6c0.4,0.2,0.9,0.3,1.6,0.4c0.2,0,0.3-0.1,0.5-0.1C437.6,162.8,437,162.7,436.3,162.6z"/>
	<path fill="#222223" d="M122.2,104.6c-0.1,0-1,0-2.1,0.2C120.7,104.8,121.4,104.7,122.2,104.6C122.1,104.7,122.2,104.6,122.2,104.6
		z"/>
	<path fill="#222223" d="M247.4,87.1c0.4-3.5,0.3-7-0.6-9.9C247.3,80.5,247.6,83.8,247.4,87.1z"/>
	<path fill="#222223" d="M134,57.9c-15.4,1.9-20.3,14.3-18.9,26.9C113.7,72.1,121.8,62,134,57.9z"/>
	<path fill="#222223" d="M229.1,28.5c0-0.1,0.1-0.2,0.1-0.3C227.7,31.8,228.4,30.1,229.1,28.5z"/>
	<path fill="#222223" d="M229.2,28.2c0,0,0-0.1,0.1-0.1C229.7,27,230,26.3,229.2,28.2z"/>
	<path fill="#222223" d="M314.5,158.2c0.1,0,0.2,0,0.3,0c-0.1,0-0.3,0-0.5,0C314.4,158.1,314.4,158.1,314.5,158.2z"/>
	<path fill="#222223" d="M63.9,133.4C63.9,135.1,66.4,132.3,63.9,133.4L63.9,133.4z"/>
	<path fill="#222223" d="M252.8,109.8c-0.2,0.6-0.6,1.3-0.7,1.8C254.3,110.1,253.9,109.6,252.8,109.8z"/>
	<path fill="#222223" d="M427.2,161.8c-0.9,0-2-0.2-3-0.2C425.2,161.8,426.3,162,427.2,161.8z"/>
	<path fill="#222223" d="M254.9,103.1c-0.4,1.8-0.9,3.7-1.7,5.5C254.1,107,254.5,105.2,254.9,103.1z"/>
	<path fill="#222223" d="M88.6,126c1.5-0.4,0.4-1.3-3.5-0.2C93.6,127.7,91.5,126.6,88.6,126z"/>
	<path fill="#222223" d="M248.4,78c0.9,2,2,4.1,3.1,6.1C250.6,81.7,249.5,79.7,248.4,78z"/>
	<path fill="#222223" d="M253.2,108.7c-0.2,0.4-0.4,0.7-0.4,1.1C253,109.4,253,109,253.2,108.7z"/>
	<path fill="#222223" d="M254.9,103.1c0.7-3.3,0.7-6.8,0-10.7c-0.6-3-1.8-5.7-3.3-8.5C254.1,90,255.6,97.2,254.9,103.1z"/>
	<path fill="#222223" d="M227,125.3c-0.7-0.6-1.7-0.7-2.4-0.7C224.4,125.1,225.3,126,227,125.3z"/>
	<path fill="#222223" d="M153.4,103.5C169.2,121,168.5,104.1,153.4,103.5L153.4,103.5z"/>
	<path fill="#222223" d="M208.9,84.5c4.2-0.9,17-15.1,7.6-14.2c-5,0.4-8.1,13.5-12.2,9.6c-1.1-1.1-1.7-2.2-1.7-3.3
		C200.6,81.5,201.3,86.3,208.9,84.5z"/>
	<path fill="#222223" d="M210.2,65.9c-1.7,0.9-3.7,3.1-5.4,5.7c4.6-4.4,14.6-8.1,22.3-8.3C221.5,62.3,215.4,62.9,210.2,65.9z"/>
	<path fill="#222223" d="M227.4,63.3c3.1,0.6,6.3,1.7,9.2,3.1C234.7,64.2,231.4,63.3,227.4,63.3z"/>
	<path fill="#222223" d="M202.4,76.4c0.7-1.7,1.5-3.3,2.4-4.8C203.2,73.1,202.4,74.7,202.4,76.4z"/>
	<path fill="#222223" d="M186.9,42.1c0.6,0,1.1-0.2,1.7-0.4C188,41.9,187.5,41.9,186.9,42.1z"/>
	<path fill="#222223" d="M186.1,42.5c0.3-0.1,0.5-0.1,0.8-0.3C186.7,42.2,186.5,42.3,186.1,42.5z"/>
	<path fill="#222223" d="M244.7,91.3c-0.6,0.6-1.1,0.9-1.5,1.5C243.6,92.4,244.2,91.9,244.7,91.3z"/>
	<path fill="#222223" d="M322.6,142.4c0.3,0.2,1,0.3,0.5,0.1c1.1,0.3,2.1,0.7,3.1,1.2c0,1.7-2.4,0.6-2.6,2.2
		c6.3,1.5,11.1-7,6.1-11.1c-4.8-1.1-3,7.2-7.2,7.4C323,143.2,323,142.6,322.6,142.4z"/>
	<path fill="#222223" d="M173.5,50.5c3.5-3.3,7.9-6.1,12.5-8.1C181.4,44.3,177,47,173.5,50.5z"/>
	<path fill="#222223" d="M146,53.3c0.2-0.3,0.5-0.6,0.7-0.9c-0.4,0.5-0.8,1.1-1.2,1.8C145.6,53.9,145.8,53.5,146,53.3
		c-0.5,0.5-0.7,1-0.6,1c-3.1,2.4-8.5,2.2-12.3,3.5c5.7-0.7,10.9-1.1,15.9-2.6c-0.2-1.7-0.6-3-1.3-4.1c-5-8.9-22.5-4.8-29.2-0.4
		C121.6,48.9,150.4,44.8,146,53.3z"/>
	<path fill="#222223" d="M147.6,51.1C148.9,49.4,148.4,50,147.6,51.1L147.6,51.1z"/>
	<path fill="#222223" d="M114.4,129.7C115.2,129.7,113.3,129.2,114.4,129.7L114.4,129.7z"/>
	<path fill="#222223" d="M109.2,130.4c2.2,0,9.6-0.7,5.2-0.7C114,129.5,110.5,130.3,109.2,130.4z"/>
	<path fill="#222223" d="M103.9,78.3c0,0,0-0.2,0-0.6c0-0.9,0.1-1.5,0.1-2.1c0.1-0.9,0.2-1.8,0.3-2.7c-0.1,0.8-0.2,1.6-0.3,2.4
		c0.1-2.7,0-1.4,0,0.3c-0.3,3-0.3,5.9,0.1,8.8C103.9,82.3,103.8,80.3,103.9,78.3z"/>
	<path fill="#222223" d="M113.7,54.9c1.5-1.5,3.1-2.8,5-4C116.8,52.1,115.2,53.4,113.7,54.9z"/>
	<path fill="#222223" d="M104.8,71.4c1.4-6.2,4.4-12,8.9-16.5C109.2,59.4,106.2,65.1,104.8,71.4z"/>
	<path fill="#222223" d="M105.4,98c-1.1-3.5-2.8-7.9-0.9-2.6C100,83.9,91,76,77.3,76.9C89.7,77.3,102.2,88.9,105.4,98z"/>
	<path fill="#222223" d="M105.7,91.1c0.9,3.5,2.2,6.3,3.7,8.5C108,97,106.7,94.1,105.7,91.1z"/>
	<path fill="#222223" d="M244.7,91.3c0.6-0.6,1.3-1.3,2-2.2C246,89.8,245.3,90.6,244.7,91.3z"/>
	<path fill="#222223" d="M160,126.4C157.6,125.5,156.3,126,160,126.4L160,126.4z"/>
	<path fill="#222223" d="M227.9,125.8C225.9,126.9,228.8,126.6,227.9,125.8L227.9,125.8z"/>
	<path fill="#222223" d="M68.1,108.3c13.7,1.7,11.3-10.1,4.2-17.2c-2.8-2.6-6.8-1.5-3.3,1.7c3.3,3,10.3,5.4,6.8,10.9
		c-9,12.9-25.1-11.6-9.8-23.1C56.3,86.9,53,106.6,68.1,108.3z"/>
	<path fill="#222223" d="M68.1,108.3C53.7,106.6,90.2,110.9,68.1,108.3L68.1,108.3z"/>
	<path fill="#222223" d="M77.5,77.1c-4.1,0-7.9,0.9-11.4,3.7C69.6,78.6,73.4,77.5,77.5,77.1z"/>
	<path fill="#222223" d="M187.1,132.8c1.1,0.6,2.2,0.9,3.3,1.3C189.5,133.8,188.4,133.2,187.1,132.8z"/>
	<path fill="#222223" d="M221.6,109.6c3.7-1.5,7-4.2,10.9-7.6C229,103.3,225.3,106.6,221.6,109.6z"/>
	<path fill="#222223" d="M228.1,134.7c0.6-0.4,1.1-0.6,1.7-0.7c-5,1.3-12,3.1-17.2,4.2C217.9,137.8,223.1,136.7,228.1,134.7z"/>
	<path fill="#222223" d="M143.4,103.9c0.1,0,0.3,0,0.7,0c-1.1-1.1-5.5-0.4-7-0.2C139.5,103.7,141.7,103.9,143.4,103.9z"/>
	<path fill="#222223" d="M202.3,136.4C201.3,136.5,203.7,137.3,202.3,136.4L202.3,136.4z"/>
	<path fill="#222223" d="M230.5,128.8c-2.8-0.7-5.5-0.7-8.5,0C226.4,129.2,229.4,129.2,230.5,128.8z"/>
	<path fill="#222223" d="M193.4,122.5c2.2-0.4,4.4-1.1,6.6-2C198,121,195.8,121.8,193.4,122.5z"/>
	<path fill="#222223" d="M245.1,72.5C244.9,71.9,244.9,72.3,245.1,72.5L245.1,72.5z"/>
	<path fill="#222223" d="M238.8,58.7C239.9,60,240.5,57.6,238.8,58.7L238.8,58.7z"/>
	<path fill="#222223" d="M172,126.4C171.3,126.6,172.9,127.1,172,126.4L172,126.4z"/>
	<path fill="#222223" d="M172,126.4C170.3,125.3,171.1,126.4,172,126.4L172,126.4z"/>
	<path fill="#222223" d="M172,126.4c-1.1,0-1.8,0-2.2,0.2C170.5,126.6,171.3,126.6,172,126.4z"/>
	<path fill="#222223" d="M9.6,133C9.6,133.6,10.9,132.8,9.6,133L9.6,133z"/>
	<path fill="#222223" d="M20.1,131.7C19.2,132.1,20.5,131.7,20.1,131.7L20.1,131.7z"/>
	<path fill="#222223" d="M105,112.4C105,112.5,105.2,112.5,105,112.4L105,112.4z"/>
	<path fill="#222223" d="M67.9,131.3C68,131.6,68,131.4,67.9,131.3L67.9,131.3z"/>
	<path fill="#222223" d="M179.6,122.9c1.3,0.4,2.4,0.6,3.7,0.6C182.3,123.2,181,123.1,179.6,122.9z"/>
	<path fill="#222223" d="M81.2,119.2c-0.7,0.4-1.7,0.9-2.4,1.7C79.5,120.3,80.3,119.7,81.2,119.2z"/>
	<path fill="#222223" d="M211.1,108.3C210.4,108.7,210.9,108.5,211.1,108.3L211.1,108.3z"/>
	<path fill="#222223" d="M211.1,108.3C211.1,109.2,217.6,111.3,211.1,108.3L211.1,108.3z"/>
	<path fill="#222223" d="M119,111.3c-1.3-1.3-2.8-2.6-4.2-3.7C115.3,108.7,117.4,110,119,111.3z"/>
	<path fill="#222223" d="M66.1,133.8c-0.4,0.2-0.7,0.6-1.1,0.9C65.3,135.1,65.9,134.7,66.1,133.8z"/>
	<path fill="#222223" d="M176.8,126c-0.3,0-0.5,0-0.8,0.1C176,126.1,176.3,126,176.8,126z"/>
	<path fill="#222223" d="M193.2,122.7c-3.3,0.7-6.6,1.1-10.1,0.7c3.3,1.1-3.8,2.2-6.2,2.5c5.4-0.4,10.7,0.1,15.8,0.8
		c-2.4-0.6-5-1.3-7.6-1.8C188,124.4,190.8,123.4,193.2,122.7z"/>
	<path fill="#222223" d="M204.8,128.6c-4.1-0.6-8.1-1.3-12.2-1.8C196.7,127.7,200.8,128.4,204.8,128.6z"/>
	<path fill="#222223" d="M624.3,178C624.3,178,624.2,178,624.3,178c0,0,0.3,0,0.8,0.1C624.8,178,624.5,178,624.3,178z"/>
	<path fill="#222223" d="M671.3,182.3C671,182.3,671.3,182.8,671.3,182.3L671.3,182.3z"/>
	<path fill="#222223" d="M551.9,173.6C551.9,173.6,551.9,173.6,551.9,173.6C551.9,173.6,551.9,173.6,551.9,173.6
		C551.9,173.6,551.9,173.6,551.9,173.6C551.9,173.6,551.9,173.6,551.9,173.6C554.3,173.8,557.2,173.5,551.9,173.6z"/>
	<path fill="#222223" d="M115.3,86.5c0,0.2,0.1,0.3,0.1,0.5c-0.1-0.5-0.2-1.1-0.3-1.6C115.2,85.8,115.3,86.2,115.3,86.5z"/>
	<path fill="#222223" d="M948.9,189C948.8,189,948.8,189,948.9,189c0.2,0,1.3,0.1,2.1,0.1C950.3,189.1,949.6,189,948.9,189z"/>
	<path fill="#222223" d="M549.4,178.8c-0.1,0-0.1,0-0.2,0C549.5,178.9,552.3,179,549.4,178.8z"/>
	<path fill="#222223" d="M706.5,176.9C706.5,176.9,706.3,176.9,706.5,176.9L706.5,176.9z"/>
	<g>
		<path fill="#222223" d="M115.8,88.7c-0.1-0.6-0.2-1.1-0.3-1.7C115.5,87.6,115.6,88.1,115.8,88.7z"/>
		<g>
			<path fill="#222223" d="M116.1,90.2c-0.1-0.5-0.3-1-0.4-1.5C115.9,89.2,116,89.7,116.1,90.2z"/>
			<path fill="#222223" d="M1043.7,192.9c-11.3-1.6-23.8-3.9-35.7-4.8c-28.8-2-57.3-5-86.3-6.8c0,0.2,0,0.6,0,0.7
				c13.7,1.5,27.3,3.1,41,4.5c0,0.4,0,0.6,0,0.9c-12.1,1.3-24.7-2.7-36.7,0c0.2,0.4,0.2,0.7,0.3,1.3c5.5,0.1,11,0.3,16.5,0.4
				c0,0.4,0,0.6,0,0.9c-39.1-0.3-78-0.5-117.3-0.6c1.2-4,5.4-2.1,7.6-4.2c-2.6-0.1-5.1-0.1-7.7-0.2c0,0,0,0,0,0
				c-19.8-0.1-39.5,0.1-59.3-0.4c-7.5-0.2-14.8-2.2-22.3-2.6c-2.7-0.3-2.1,2.5-4.1,2.5c-5.9,0.2-11.9,0.6-17.8,0.8
				c0-0.2,0-0.4-0.2-0.4c1.1-0.2,2.2-0.5,3.5-0.6c-4.9-2.5-11.3,2.3-15.4-2.6c-9.3-0.8-18.7-1.2-28-2.7c0-0.4,0-0.9,0-1.3
				c7.9,0.2,17.4,2.1,25-0.5c-24.2,0.3-48.3,0.6-72.5,0c1.7-0.1,3.7-0.5,5.9-0.8c-16-7.2-38.3-1.9-55.4-1.4c0-0.2,0-0.6,0-0.7
				c5.5-0.4,11.2-1,17.1-1.4c-6.3-4.7-24.2-1.5-31.4-1.2c-5.9,0.2-11.8,0.6-17.7,1.6c-0.3,0.1-0.7,0.1-1,0.2
				c5.3-0.2,10.6-0.3,16.1-0.5c-1,2.9-13.7,0.8-16.1,0.5c-8.7,1.2-20.2-1.6-29-2.4c0,0.2,0,0.6,0,0.7c5.8,0.7,11.6,1.3,17.4,1.9
				c-0.3,0-0.6,0.1-0.9,0.3c-3.2,1.8-7.1,2.2-11,2.3c-3-2-7-4.1-12.6-6.5l-65.9-7.6c-2.8-0.4-5.4-0.2-7.9,0
				c-6.3-1.7-21-3.1-22.5-2.2c2.8,0.6,5.4,0.9,8.1,1.5c3,0.1,5.9,0.5,8.7,1c-0.7-0.3-1.1-0.6-1.1-0.8c1.8,0.2,3.7,0.6,5.4,0.7
				c-0.7,0.2-1.7,0.4-2.4,0.6c-0.1,0-0.2,0-0.3-0.1c-2.2,0.6-4.5,1.4-6.6,2.5c-3.9-0.4-7.8-0.7-11.4-1.5c-0.2,0-0.2,0-0.4,0
				c0,0,0,0,0,0c0.9,0,1.7,0,2.4-0.2c-0.9,0-1.8-0.2-3-0.4c0,0.1,0,0.3,0,0.4c-2.9-0.5-5.7-1.2-8.1-2.3c0-0.1,0.1-0.3,0.2-0.4
				c0.5,0.1,1.2,0,0-0.1c0,0,0,0,0,0c3,0.2,8.1,0.2,13.7,0.6c-7.6-1.3-16.2-3.9-23.4-1.5c0.9,0.2,2,0.4,2.8,0.6
				c-11.4-0.7-22.9-2-34.3-3.3c3.3,1.7,8.1,1.1,11.8,1.5c0,0.2,0,0.4,0,0.7c-5.9,0.4-15.5-1.7-20.9,0.6c0.6,0.2,1.1,0.4,1.7,0.6v0.2
				c-15.5-2.2-31-3.3-47.2-4.8c1.5-0.4,13.1-8.1,9.8-8.1c-5.4-0.6-7,8.3-12,7.9c0.2,0,0.4,0,0.4,0.2c-0.2,0-0.2,0.2-0.4,0.2v-0.2
				c-1.3,0-2.4-0.2-3.7-0.2c0.1,0.1,0.1,0.1,0.2,0.2c0,0,0,0,0,0c-0.4,0-0.7,0-1.3,0c0.7,0.3,1.3,0.4,1.8,0.4c0,0,0,0,0,0
				c1.1,0.2,2,0.7,2.6,1.8c-7.9-0.7-15.3-0.7-22.7-3.9c-7.8-3.3-15.1-7-22.7-10.3c-5.5-2.2-29-5.4-23.6-16.2
				c2-4.1,13.1-5.5,17.2-7.4c7.8-3.5,14.8-8.3,21-14c12.4-11.4,21-26.8,22.5-43.6c2.6-32.5-24.7-60.3-57-62.7
				c-15.9-1.1-32.8,3.5-43,16.1c-5.4,6.6-6.5,13.5-7.8,21.6c-0.4,2.6-4.1,3.5-7,4.4c12.4-2.6,12.9,13.7,23.6,17.9
				c6.5,2.6,32.3-4.1,27.5,8.7c-0.9-0.7-2-1.3-3.1-1.8c1.3,1.7,1.7,3.9,0.9,7c-2.2,8.1-8.5,15.3-16.6,18.1
				c-3.7,1.3-7.6,2.6-10.3,5.7c-3.7,4.6,2.2,9.6-5.5,12c-10.7-3-22-5-33-5.7c-9-0.6-19-0.6-26-7c2,4.1,1.7,5.9,0,6.8
				c0.6,0,1.1,0,1.7,0.2c-1.5,0.6,1.7,1.7,2.2,0.7c2.6,1.5,3.9,4.6,6.3,7.6c-1.5-0.9-9-7.4-11.3-7.9c0.4,0,0.7-0.2,1.1-0.6
				c-0.7,0-1.3,0-2,0c0.2,0.2,0.6,0.4,0.7,0.4c-0.2,0-0.2,0-0.4,0c7,6.1,14.4,11.8,21.6,17.7c-16.2,0.4-21.4-14-35.4-17.7
				c2.2-0.2,4.4-0.2,6.8-0.4c-12.6-1.2-18.9-2.2-21.9-13.7c1.3,5.3,3.7,10.4,6.8,14.4c-0.3,0-0.5,0.1-0.8,0.1
				c-1.3,2.7-1.3,5.3-0.3,8.2c-0.6-0.4-1.7-1.1-2.6-1.8c6.5,6.8,10.5,15.7,19,20.5c6.6,3.7,14.8,7,22.3,8.7
				c-18.7-0.2-35.4-3.7-55.5-9.3c8,1.9,7,0.7,3.9-0.5c-2.5-1-6.2-1.8-7.7-1c2.3-3,4.1-6.3,5.5-9.8c7.4,2.6,14.6,6.5,20.7,11.4
				c-5.5-9-18.8-12.5-18.5-22c1.7-2.4,3.3-3.5,6.1-1.7c-0.9-1.7,2.7-2.4,5.1-2.6c-4.6-0.1-7.6-1.8-9.7-4.8c1.1,2,2.6,4.1,4.1,5.9
				c-4.6,0.7-6.3-2.2-7.8-6.5c4.8,17-37.5,9.8-46.9,13.7c-6.6,2.8-13.1,6.6-20.1,8.1c-6.6,1.5-9.8-3.1-14.2-7.2
				c-4.1-3.9-8.5-8.9-13.8-11.3c-4.4-1.8-6.1,2.6-4.1,5.7c4.4,7,15.3,15.3,23.4,18.1c-2.6,2-11.8,6.3-13.7,4.6
				c0.9-1.1,2.2-1.7,3.7-1.7c-6.8-6.6-1.8,2-4.2,1.7c-7.8-9-10-21-11.8-32.3c-4.2,11.4-0.2,23.6,7.8,32.5c-4.2,0.6-8.3,1.7-12.2,3.7
				c0-0.2-0.2-0.4-0.6-0.6v63.3h1060.3c-1.9-0.3-4-0.5-6.1-0.8c3.9-1.2,6.8-2,9.8-2.9c0-0.2,0-0.4-0.2-0.6c-0.9-0.2-1.8-0.2-2.7-0.4
				c0-0.2,0-0.4,0-0.6c2.8-0.1,5.5-0.2,8.3-0.2c0-0.4,0-0.7,0-0.9C1061.3,191.7,1051.4,193.8,1043.7,192.9z M9.6,133
				c2.4-1.5,4.2-1.1,5.5,0.9C12.4,133.8,9.6,134.5,9.6,133z M19.6,134.1c-3-1.7-2.8-2.6,0.6-2.4c0.9,0,3,0.6,3.7,0.4
				C22.9,133.8,21.4,134.5,19.6,134.1z M108.1,107C108.1,107,108.1,107,108.1,107C108.1,107,108.1,107,108.1,107
				C108.1,107,108.1,107,108.1,107z M107,107.4c0.1,0,0.2,0,0.2,0c0,0,0,0-0.1,0c-1.7,0.5,0.3,0.4,0.9-0.1c0,1,0,1.8-0.2,2.3
				c0,0,0.2,0,0.2-0.2c0,0.1,0,0.2,0,0.2c-0.2,0.3-0.3,0.5-0.3,0.7c0-0.2,0.2-0.4,0.2-0.6c-1.7,1.1-2.6,1.8-3,2.6
				c1.6-0.2,2.8-1.6,3.1-2.6c-0.2,1.6-0.3,3.1-0.5,4.5c-3.5-0.7-7-2.8-11.1-3.7C100.2,109.4,103.5,108.3,107,107.4z M60.7,132.5
				c-2.6,0.4-4.8-0.2-6.6-1.8c5,0.2,10,0,14.9-0.7C67.7,131.4,62.6,132.8,60.7,132.5z M63.9,133.4c2.2-1.5,3-1.3,2.2,0.2
				c1.3-0.4,1.8-1.3,1.8-2.6c4.4-0.9,5,1.5,10.7,4.6c-1.8,0.2-13.3-1.1-13.8-0.6C62.2,134.1,63.9,135.1,63.9,133.4z M63.7,140.4
				c1.1-3.3,19.9-2.2,19.9,0C77,140.4,70.3,140.4,63.7,140.4z M81.2,136.9C81.9,137.5,81.6,137.6,81.2,136.9L81.2,136.9z
				 M85.1,125.8c2.6-0.9,4.8-2,6.8-3.3c-2,1.1-3.9,1.7-5.4,2c-0.4,0-0.9,0-1.5,0.2c-2.8,0.4-5.5-0.4-10-1.1c1.3-1.1,2.6-2.2,3.7-3.1
				c-9.6,6.3-23.4,2.2-34.5,3c2.4-0.2,6.6-2.6,6.6-3c-0.9,0.4-2,0.7-3,1.1c12-5.2,25.5-7.4,38.6-6.5c-2.2,1.3-3.9,2.6-5.4,3.5
				c5.5-3.5,10.1-3.7,18.6-1.7c-1.3,1.1-2.8,2-4.1,2.8c3-1.5,6.1-2.4,10.3-0.9C101.5,132.8,97.3,128.4,85.1,125.8z M101.3,129.8
				c0.5,0.1,1.1,0.3,1.6,0.5C102.4,130.2,101.9,130.1,101.3,129.8z M241,125.1c0.1-0.3,0.3-0.3,0,0.2c-0.2,0.2-0.3,0.5-0.4,0.7
				c0,0,0,0,0,0.1c-2.8,1.3-5,0-6.5-3.3c3-1.7,6.1-3.3,9-5C242.5,120.1,241.8,122.5,241,125.1z M240.5,126.8
				C239.9,127.9,239,127.1,240.5,126.8L240.5,126.8z M243.4,116.8v-0.2c0-2.7-5.4,3-0.9,0.7c-5.5,3.4-6.9,5.7-12,2.6
				c4.4-3.9,8.3-8.5,11.3-13.5C243.2,110,243.8,113.5,243.4,116.8z M213,55.2c-5.9-3.3-10.3-8.9-12-15.3c12,0,23.8,4.6,32.3,12.9
				C228.3,57.9,219.1,58.8,213,55.2z M238.8,58.7c1.5-1.1,3-2.4,4.6-3.5C243.2,64.2,241.8,65.3,238.8,58.7z M243,73.8
				c-1.1,2.6-0.7,1.9-0.2,0.9c-0.7,3.5,3.7,1.5,1.5-1.5c-0.2-0.2-0.4-0.5-0.7-0.7c0-0.1,0.1-0.2,0.1-0.2c0.4,0.2,0.6,0.6,0.7,0.7
				c1,1.2,1.7,2.6,2.2,4.2c-0.1-0.6-0.2-1.3-0.4-1.9c0.7,0.7,1.3,1.7,2,2.8c-2-4.2-3.1-8.3-1.5-12.9c6.1-15.9,10.7-40.6-6.3-51.7
				c-2.2,3.3-0.6,6.6,0.4,10c-4.6-1.1-9.9,0.9-11.8,4.7c-0.1,0.1-0.1,0.3-0.2,0.4c-0.6,1.6-0.6,3.7,0.5,6c2,4.4,5.9,8,6.3,12.1
				c-1.3-2.7-8.6-0.1-2.4,5.8c1.8-2,2.4-3.8,2.4-5.6c0,0,0,0,0,0.1c0.4,1.1,0,3-2.4,5.7c-8.7-8.1-20.5-13.3-32.5-12.9
				c-5.9-24.7,22.9-38.8,43.9-37.8c21.8,0.9,43,14,52.8,33.2c19.2,37.5-15.5,78.8-51.5,89.5c1.8-4.4,4.1-8.7,5.9-12.9
				c-0.3,0.3-1,0.7-1.5,1c0.1,0,0.2-0.1,0.3-0.1c-0.1,0-0.2,0.1-0.3,0.1c0,0,0.1,0,0.1-0.1c0,0-0.1,0-0.1,0.1
				c-0.2,0.1-0.4,0.2-0.6,0.4c-0.1,0-0.2,0.1-0.2,0.1c-0.2,0.1-0.4,0.2-0.6,0.4c0.2-0.1,0.4-0.2,0.6-0.4c0,0,0,0,0,0.1
				c0.1-0.1,0.1-0.1,0.2-0.2c0.1,0.1,0.6,0.1,0.9-0.2c-0.4,0.4-0.4,0.7-0.2,0.7c0.1-0.3,0.4-0.5,0.5-0.9c-0.9,2.1-2.5,4.1-3.5,6.2
				c-0.6-2.4-0.2-4.3,1.4-5.4c-0.3,0.1-0.5,0.3-0.9,0.5v0c1.8-0.9,3.3-2.4,4.4-4.2c-1.7,0.4-4.4,2.2-4.4,4.2c0-4.8-2-8.1-2.8-11.8
				c1.1-0.2,0.9-3.9-0.2-2.8c0-0.7,0.2-1.5,0.4-2.4c1-3.2,1.6-6.6,1.8-9.9c-0.5,5.2-2.1,10.4-3.4,13.6c-1.3-1.3-2.5-2.7-3.9-4
				c1.4,0.5,2-2.3-0.3-0.3c0,0-0.1-0.1-0.1-0.1c1.1-1.1,2.4-2.4,3.5-3.5c-4.4,4.2-3.9,1.3-12.5-0.9C235.7,86.4,239.7,80.3,243,73.8z
				 M245.1,72.5C244,71.4,244.2,69.4,245.1,72.5L245.1,72.5z M251.3,112.4C251.3,112.4,251.3,112.4,251.3,112.4
				C251.3,112.4,251.3,112.4,251.3,112.4C251.3,112.4,251.3,112.4,251.3,112.4z M220.2,97.8c-1.5,1.5-3.1,3-4.6,4.2
				C216.8,100.4,218.3,98.9,220.2,97.8z M211.3,108.1c6.8,3.5,11.6-17.2,24.2-8.5c-0.9,0.9-1.8,1.7-2.8,2.4c3.3-1.1,6.5-0.6,8.9,4.1
				c-8.2,14.2-10.9,12.5-23.7,7.5c3.7,0.5,5-3.7-1-0.4c-0.1,0-0.1-0.1-0.2-0.1c1.7-0.9,3.3-2.2,5-3.5c-3.9,1.7-8.3,2.2-13.8,0.6
				C209.1,109.6,210.2,108.9,211.3,108.1z M227,125.3c-4.4,2-7.4,3.7-12,3.7c3.1-1.1,6.5-4.2,9.6-4.4
				C224.8,124.2,225.3,124.2,227,125.3z M153.4,103.5c15.4,0.5,30.9,3.2,45.4,8.2c-0.3-0.1-0.6-0.2-0.9-0.2
				c-11.4-3.5-5.2,4.8,2.4,0.7C178.1,123.8,169.2,121,153.4,103.5z M167.9,118.8c1.7,0.7,3.5,1.6,5.4,2.3c-2.6,1.1-4.4,0.2-5.7-2.4
				C168.4,119.5,169.3,119.4,167.9,118.8z M172,126.4c0.9,0.6,1.8,1.1,2.6,1.8c-4.6-0.9-10.1-2-14-5.2
				C165.2,121.6,169,122.9,172,126.4z M160,126.4c-3.9-0.2-7.6-0.7-11.3-1.5C149.8,120.3,160.4,126.4,160,126.4z M180.9,140.2
				c3-0.9-4.8-2.4-1.5-0.4c-5.5-2.8-10.5-6.5-14.8-10.7c2.8,4.4,6.5,7.9,10.7,10.9c-8.7-2-24.9-2.8-26.6-14.2
				c3.9,0.7,26.8,3.1,38.4,7.2c-0.4-0.2-0.7-0.4-0.9-0.6c6.6,0.6,12.7-0.6,18.8-1.7c-5,0.7-10,0.7-14.9,0.6c0,0,0.2,0,0.2-0.2
				c-2-1.3-15.1-2.2-15.3-4.6c0.4-0.4,0.7-0.6,1.3-0.4c-1.5-1.1-2.8-2.2-4.2-3.5c1.8-0.2,5-0.2,7.8,0.2c-1.1-0.2-2-0.6-3.1-0.9
				c10-1.8,18.6-8.1,27.7-7.2c-0.6-0.6,0-0.8,2.8,0.3c-1-0.2-1.9-0.4-2.8-0.5c0.6,0.6,2,1.5,3.5,1.7c-2,0.7-3.5,2.5,2-0.1
				c0.1,0,0.1,0.1,0.2,0.1c-3.3,1.7-6.6,3.1-10,4.4c8.1-2.6,15.1-1.8,22.5,2.2c-0.7-0.2-1.1,0-1.3,0.7c0.6,0.7,1.3,0.9,2.2,0.6
				c-6.1,3.5-12.4,4.6-18.6,4.2c2.4,0.4,4.6,0.6,7,0.6c-1.3,0.4-2.8,0.7-4.1,1.1c2-0.4,4.1-0.7,6.3-0.9c-6.8,2.6-0.7,0.6,0.4,0
				c1.1-0.2,2.4-0.2,3.5-0.2c-10.1,4.1-17.9,8.3-27.7,5.2c2,0.9,3.3,2,3.5,3.3C191.2,138.2,184.5,140.6,180.9,140.2z M188.2,140.4
				C188.2,140.4,188.2,140.4,188.2,140.4c2.8,0,4.9-0.7,4.4-0.9c0.1,0,0.1,0,0.2,0c4.6-0.6,8.7-0.2,13.8-0.4
				C199.7,139.7,192.8,140.4,188.2,140.4z M229.6,138c-0.4-0.4-3.3-0.6,0,0.2c-3.9-0.7-12.7,0-21.6,0.7c1.3-0.2,2.8-0.4,4.6-0.9
				c-5,0.4-18.5,0.9-10.3-1.8c1.3,0.9,10.1,1.5,10.3,0.4c-2,0-6.1-0.9-8.7-1.1c5.5-1.8,11.8-5.5,18.1-6.8c0,0,0,0-0.2,0
				c2-0.9,4.1-1.8,6.1-3c2.4,1.3,4.8,3.3,7.2,5.2c-1.7,1.1-3.5,1.8-5.2,2.8c3.9-0.9,6.5-1.7,6.6-1.5c-1.7,2-3.9,3.7-6.1,5.4
				C230.7,137.3,229.8,137.8,229.6,138z M234,140.4C235.3,140.6,237.7,141.1,234,140.4c1.3,0.2,2.4-0.2,3.5-0.9
				c-0.2-1.8-3-0.2-3.3-0.2c3.7-6.6,7.6-6.3,11.3,1.1C241.8,140.4,237.7,141.1,234,140.4z M314.5,158.2c-0.2,0-0.4,0-0.6,0
				c-0.9,0-1.7-0.6-1.7-1.5c3.5-0.4,7,1.1,10.3,1.8c-2.8-0.2-5.3-0.2-7.8-0.3C315,158.2,315,158.2,314.5,158.2z M409.1,162.6
				c-0.6,1.1-11.4-0.4-12.9-0.7C399.7,161.8,406.4,160.5,409.1,162.6z M391.6,160.5c-0.6,1.1-3.5,0.7-5-0.6
				C388.1,160.2,389.8,160.3,391.6,160.5z M420,166.1c-10.2-1.1-20.5-2.2-30.8-3.3c4.4,0.4-3.7-0.6-3.9-0.4c0-0.2,0-0.4,0-0.7
				c11.6,0.9,23.1,2.2,34.7,3.7C420,165.5,420,165.9,420,166.1z M540.7,173.9c4.1,0.4,8.2,0.9,12.4,1.4c-3.1,0.3-6.3,0.6-9.4,0.7
				C542.2,176,541.8,174.2,540.7,173.9z M545.3,180.5c0-0.2-0.2-0.6-0.2-0.7c1.4-0.1,2.6-0.9,4-1c-0.1,0-0.1,0,0.2,0
				c3.7,0.1,7.3,0.4,11,0.6C555.2,179.7,550.4,180.7,545.3,180.5z M577.9,176.2c3.7,0.1,7.3-0.2,11-0.5c10.1-0.5,20.2-0.2,30.3,0
				c0.2,0.4,0.2,0.7,0.3,1.1C607.9,180.3,589.9,178,577.9,176.2z M621.5,179.4c0.9-0.5,1.8-1.4,2.7-1.4c0,0,0,0,0,0
				c6.2,0.4,2.5,0.2,0.8,0.1c8,0.7,16,1.5,23.8,2.4c0,0.2,0,0.4,0,0.4C645.3,180.7,622.9,182.3,621.5,179.4z M642,182.1
				c3.3-0.1,6.8,0,10.1-0.1C649.6,183.2,644.9,183.1,642,182.1z M659.1,178.7c3.5-0.1,7-0.2,10.7-0.3
				C666,180.9,660.2,180.9,659.1,178.7z M671.3,183.6c-2.4-0.1-4.6,0.1-7,0c-0.9-0.2-1.8-0.2-2.7-0.4c0-0.2,0-0.4,0-0.6
				c2.8-0.1,5.5-0.2,8.3-0.2c0.6-0.2,1.1-0.2,1.5-0.1C671.3,182.7,671.3,183.2,671.3,183.6z M823.9,188.8c-4.8,2.4-15-0.2-20.4-0.5
				c8-1.1,15-2.2,21.9-3.1C825.8,186.8,825.2,187.9,823.9,188.8z M970.3,191.4c-8.4-0.2-17.1-0.4-25.5-0.7c0-0.2-0.2-0.6-0.2-0.7
				c1.4-0.1,2.9-1,4.2-1c-0.1,0-0.1,0,0.1,0c3.6,0.2,3.2,0.2,2.1,0.1c6.4,0.4,12.9,0.8,19.3,1.3C970.3,190.8,970.3,191,970.3,191.4z
				"/>
		</g>
	</g>
</g>
</svg>
