<?xml version="1.0" encoding="utf-8"?>
<!-- Generator: Adobe Illustrator 17.0.2, SVG Export Plug-In . SVG Version: 6.00 Build 0)  -->
<!DOCTYPE svg PUBLIC "-//W3C//DTD SVG 1.1//EN" "http://www.w3.org/Graphics/SVG/1.1/DTD/svg11.dtd">
<svg version="1.1" id="Livello_1" xmlns="http://www.w3.org/2000/svg" xmlns:xlink="http://www.w3.org/1999/xlink" x="0px" y="0px"
	 width="684px" height="288px" viewBox="0 0 684 288" enable-background="new 0 0 684 288" xml:space="preserve">
<g>
	<path fill="#222223" d="M679.5,127.1l-1.2-2.9c-15.5-14.2-9.1-16.6-23.9-22.9l-35.7-4.1c-1.5-0.2-2.9-0.1-4.3,0
		c-3.4-0.9-11.4-1.7-12.2-1.2c1.5,0.3,2.9,0.5,4.4,0.8l0,0c2,0.1,4,0.4,5.8,0.7c-1.3,0.3-2.6,0.8-3.8,1.4c-2.1-0.2-4.2-0.4-6.2-0.8
		c-0.1,0-0.1,0-0.2,0l0,0c-1.7-0.3-3.3-0.7-4.7-1.3c0-0.1,0.1-0.2,0.1-0.3c1.6,0.1,4.4,0.1,7.4,0.3c-4.1-0.7-8.8-2.1-12.7-0.8
		c0.5,0.1,1.1,0.2,1.5,0.3c-6.2-0.4-12.4-1.1-18.6-1.8c1.8,0.9,4.4,0.6,6.4,0.8c0,0.1,0,0.2,0,0.4c-3.2,0.2-8.4-0.9-11.3,0.3
		c0.3,0.1,0.6,0.2,0.9,0.3v0.1c-8.4-1.2-16.8-1.8-25.6-2.6c0.8-0.2,7.1-4.4,5.3-4.4c-2.9-0.3-3.8,4.5-6.5,4.3c0.1,0,0.2,0,0.2,0.1
		c-0.1,0-0.1,0.1-0.2,0.1v-0.1c-0.7,0-1.3-0.1-2-0.1c0.1,0.1,0.2,0.2,0.4,0.3c0.6,0.1,1.1,0.4,1.4,1c-4.3-0.4-8.3-0.4-12.3-2.1
		c-4.2-1.8-8.2-3.8-12.3-5.6c-3-1.2-15.7-2.9-12.8-8.8c1.1-2.2,7.1-3,9.3-4c4.2-1.9,8-4.5,11.4-7.6c6.7-6.2,11.4-14.5,12.2-23.6
		c1.4-17.6-13.4-32.7-30.9-34c-8.6-0.6-17.8,1.9-23.3,8.7c-2.9,3.6-3.5,7.3-4.2,11.7c-0.2,1.4-2.2,1.9-3.8,2.4
		c6.7-1.4,7,7.4,12.8,9.7c3.5,1.4,17.5-2.2,14.9,4.7c-0.5-0.4-1.1-0.7-1.7-1c0.7,0.9,0.9,2.1,0.5,3.8c-1.2,4.4-4.6,8.3-9,9.8
		c-2,0.7-4.1,1.4-5.6,3.1c-2,2.5,1.2,5.2-3,6.5c-5.8-1.6-11.9-2.7-17.9-3.1c-4.9-0.3-10.3-0.3-14.1-3.8c1.1,2.2,0.9,3.2,0,3.7
		c0.3,0,0.6,0,0.9,0.1c-0.8,0.3,0.9,0.9,1.2,0.4c1.4,0.8,2.1,2.5,3.4,4.1c-0.8-0.5-4.9-4-6.1-4.3c0.2,0,0.4-0.1,0.6-0.3
		c-0.4,0-0.7,0-1.1,0c0.1,0.1,0.3,0.2,0.4,0.2c-0.1,0-0.1,0-0.2,0c3.8,3.3,7.8,6.4,11.7,9.6c-8.8,0.2-11.6-7.6-19.2-9.6
		c1.2-0.1,2.4-0.1,3.7-0.2c-7.5-0.7-10.9-1.3-12.3-9.4c-1.3-7.3,3.2-13.2,10.1-15.5c-13.1,1.6-12.2,17.2-6,25.3
		c-3.4,0.4-5.4-0.6-6.8-2.5c0.6,1.1,1.4,2.2,2.2,3.2c-2.5,0.4-3.4-1.2-4.2-3.5c2.6,9.2-20.3,5.3-25.4,7.4c-3.6,1.5-7.1,3.6-10.9,4.4
		c-3.6,0.8-5.3-1.7-7.7-3.9c-2.2-2.1-4.6-4.8-7.5-6.1c-2.4-1-3.3,1.4-2.2,3.1c2.4,3.8,8.3,8.3,12.7,9.8c-1.4,1.1-6.4,3.4-7.4,2.5
		c0.5-0.6,1.2-0.9,2-0.9c-3.7-3.6-1,1.1-2.3,0.9c-4.2-4.9-5.4-11.4-6.4-17.5c-2.3,6.2-0.1,12.8,4.2,17.6c-2.3,0.3-4.5,0.9-6.6,2
		c0.1-1.3-15.5-1.3-18-1.6c0.4-1.9,2.2,0.3,2.2-2.1c-1.4-0.3-2.1,2.4-3.1,2.4c-0.4-0.5-0.6-1.1-0.6-1.7c-1.5-0.2-2.6,1.6-3.2,2.6
		c0-0.6-1.5-2-1.7-0.7c1.4-0.6,0.8,0.8,1.6,0.8c-0.4,0.7-0.7,1.5-0.8,2c3.5,0.7,10.4-1.4,16.2-1.1c-3.3,0.5-6.3,2.8-9.7,2.3
		c-2.6-0.4-8.8-2.2-11.1-0.6c-0.1-2.5-0.6-1.7,1.9-2.6c0-0.5-17.7-2.9-19.8-1.3c-1.1-1.9,4.3-3.6,5.6-3.6c0-1.4-3.6-0.2-4.8-1.2
		c-1.5-1.4,5.5-0.9,5-1.1c-1.1-4.7-16.9-1.9-20-1.5c-1.4,0.2-2.8,0.3-4.2,0.5c-2.6,0.3-1-1.2-3.2-1.7c-2.9-0.6-6.6,0.7-9.3,1.7
		c-3.6,1.2-3.9,0.6-7.8-0.1c-2.5-0.5-2.8,1-5.3,0.6c-7.3-1.1-14.8-1.4-22.2-1.5c-13-0.1-24.6,5.1-37.7,6.8c-7.8,1-15.5,2.3-23,4.5
		c-4.4,1-8.7-0.1-13.3,0.4c-7,0.7-14.1,0.1-21.1,0.3c0,0.1,0,0.1,0,0.2c3.6,0.1,7.1,0.1,10.7,0.2c0,0.1,0,0.2,0,0.3
		c-3.1,0.7-6.4-0.1-9.5,0.9c0,0.1,0.1,0.2,0.1,0.3c1.4-0.1,2.8-0.2,4.3-0.3c0,0.1,0,0.2,0,0.2c-10,0.9-20.1,1.9-30.2,2.9
		c0.2-1.1,1.3-0.7,1.8-1.3c-2.5,0.2-4.2,1.4-7.6,1.5c2-0.5,3.8-1,5.6-1.4c-9.1,0.9-18,1.5-26.7,2.8v-0.1c0.3-0.1,0.5-0.2,0.9-0.3
		c-2.9-1.2-8.1-0.1-11.3-0.3c0-0.1,0-0.2,0-0.4c2-0.1,4.6,0.1,6.4-0.8c-6.2,0.7-12.4,1.4-18.6,1.9c0.4-0.1,1-0.2,1.5-0.3
		c-4.4-1.5-9.8,0.5-14.3,1.1c0-0.1,0-0.1,0-0.2c1.4-0.3,2.8-0.5,4.4-0.8c-1.5-0.6-11.3,0.5-13.8,1.5c1.5-0.2,3-0.4,4.6-0.6
		c-0.1,0.9-11.4,2-12.8,2.2c0,0.1,0,0.2,0,0.3c1.7-0.2,3.4-0.4,5.1-0.6c-4.3,1.2-8.7,2.3-13.2,2.3c0-0.1,0-0.2-0.1-0.3
		c1.6-0.4,3.2-0.7,4.8-1.1c0-0.1,0-0.2,0-0.2c-2.5,0.4-5,0.8-7.6,1.2v0.1c0.5,0,0.9-0.1,1.4-0.1c-4.9,1.8-10.1,1.7-15.2,2.4
		c0.2-0.1,0.4-0.3,0.7-0.5c-1.6,0.3-3.5,0.1-4.5,1.5c0.1,0.1,0.1,0.1,0.2,0.2c-0.6,0-1.1,0.1-1.5,0.1c0.1,0.4,0.3,0.8,0.5,1.3
		l-2.1,0.2c-0.1,0-0.3-0.1-0.4-0.1c0,0.1,0,0.1,0.1,0.2l-2,0.2c-14.8,6.3-8.5,8.8-23.9,22.9L4.5,127c0.8,6.9,0.8,18.7,0,25.6
		l1.2,2.9c15.5,14.2,9.1,16.6,23.9,22.9l5.6,0.6c1,1,2.7,0.9,4.2,1.1c-0.4-0.3-0.6-0.4-0.7-0.5c5.1,0.8,10.3,0.6,15.2,2.4
		c-0.5,0-0.9-0.1-1.4-0.1v0.1c2.5,0.4,5,0.8,7.6,1.2c0-0.1,0-0.2,0-0.2c-1.6-0.4-3.2-0.7-4.8-1.1c0-0.1,0-0.2,0.1-0.3
		c4.5,0,8.9,1.1,13.2,2.3c-1.7-0.2-3.4-0.4-5.1-0.6c0,0.1,0,0.2,0,0.3c1.4,0.2,12.7,1.2,12.8,2.1c-1.5-0.2-3.1-0.4-4.6-0.6
		c2.5,1,12.3,2.1,13.2,1.5c-1.5-0.3-2.9-0.5-4.4-0.8l0,0c-4.6-0.3-9.2-1.1-10.5-3c4.3,0.7,9.9,0.8,14.8,1.7c0.1,0,0.1,0,0.2,0l0,0
		c1.7,0.3,3.3,0.7,4.7,1.3c0,0.1-0.1,0.2-0.1,0.3c-1.6-0.1-4.4-0.1-7.4-0.3c4.1,0.7,8.8,2.1,12.7,0.8c-0.5-0.1-1.1-0.2-1.5-0.3
		c6.2,0.4,12.4,1.1,18.6,1.8c-1.8-0.9-4.4-0.6-6.4-0.8c0-0.1,0-0.2,0-0.4c3.2-0.2,8.4,0.9,11.3-0.3c-0.3-0.1-0.6-0.2-0.9-0.3v-0.1
		c8.7,1.3,17.6,1.9,26.7,2.7c-1.8-0.4-3.5-0.9-5.6-1.4c3.4,0.1,5,1.3,7.6,1.5c-0.5-0.6-1.6-0.2-1.8-1.3c8,0.7,18.5-0.2,25.1,4.4
		c-0.2,0-0.3,0-0.5,0c0,0.1,0,0.1,0,0.2c2.5,0.1,6,3.8,7.7,5.6c-1,0.7-3.1,2.2-2.7,3.8c9.1-0.7,15.6,6.7,24.3,9
		c2.4,5.1-1.5,7.3-2.7,12.7c2-2.5,4.1-4.8,6.4-7c4.8,5.7,12.1,9.1,19.6,9.1s14.2-4.4,21.6-3.2c9.2,1.5,18.4,2.2,27.7,1.5
		c7.8-0.5,16.7-5.4,24.3-2c-9.1-0.3-15.5,4.5-19,11.2c3.6-6.2,10-10,17.4-9.9c6.9,0.1,15.5,0.8,17.9,8.3c0-0.4-0.4-2.8,0.9-1.5
		c-0.3-0.6-0.7-1.2-1-1.8c0,0.1,0,0.3,0,0.4c-1.5-1.7-3.2-3-5.1-4c0.8-0.2,1.5-0.3,2.1-0.3c-3.8-0.4-7.6-1.2-11.3-2.4
		c0.1,0-0.1-0.1-0.5-0.2c-1.7-0.6-3.3-1.3-4.9-2c2.4-0.9,10-7,11.7-6.7c0.4,0.4,0.7,0.8,1,1.3c-0.3-0.4-0.6-0.9-0.9-1.3
		c6.6,1.1,11.7-0.8,17.9-1.2c2.1-0.2,10.8,5.3,8,6.9c-4.5,3-15.6,8.7-20.3,3.6c0.3,0.7,0.6,1.4,0.9,2.1c-0.4,0-0.9,0-1.3-0.1
		c0.9,0.1,1.5,0.5,1.9,1.1c0-0.1,0-0.3,0-0.4c4.3,0.2,8.6-0.3,12.6-1.7c2.1-0.7,5.3-4,7.7-3.1c6.2,2.2,8.7,16,9,21.4
		c0.8,14.2-7.2,29-21.5,33.6c12.7-3.8,21.1-15.7,23.2-28.2c-0.1,29.4-38.7,41-58.7,21.2c14.1,14.3,39.9,14.6,52.7-1.7
		c7.9-10.1,9.2-23.7,5-35.6c-1.5-4.1-7.6-10.8-5.5-15.2c1.3-2.5,9-7.1,7.6-9.4c5.8-1.4,17.2,4.7,22.1,0.4c-0.7,0.2-1.3,0-1.7-0.4
		c0.6,0,6.3-1.1,7-1.7c-2.1-0.9-11.7-1.7-19-1.2c1-0.4,1.6-2.4,2.4-2.4c0.4,0.5,0.6,1.1,0.7,1.7c1.5,0.2,2.6-1.7,3.1-2.7
		c0.5,0.9,1.1,1,1.7,0.3c-1.3,0.6-0.9-0.6-1.5-0.7c0.3-0.7,0.5-1.3,0.6-1.7c-3.5-0.5-9.5,2.1-15.2,1.8c0-0.7,3.5-1.6,3.8-1.7
		c-1,0.1,3.1-1,4-1.2c-0.3,0.1,3.4,0.2,4.1-1.3c2.5,0,5.2,3.5,7.8,1.4c0.2,2.5,0.7,1.6-1.8,2.6c0.1,0.5,17.8,2.3,19.8,0.6
		c1.2,1.8-4.2,3.7-5.4,3.8c0.1,1.3,5.5,0.1,5,1.4c-0.3,0.7-4.4,1.1-5.1,0.9c1.4,4.7,18,1.1,21.3,0.6c1.4-0.2,2.9-0.5,4.3-0.7
		c0.2,0,2.6,1.7,4.3,1.6c0.4,0.7,8.6-2.3,9.2-3.2c-0.2,0.6,12.5,0.4,14.3,0.5c8.7,0.6,17.7,0.8,26.4-0.2c2.1-0.3,5.4-0.4,7.1-2
		c1.3-1.2,3.1-0.1,5-0.2c-0.2-1,0.8-1.6,1.6-2c7.5-3.2,18-1.3,25.9-1.4c9,0,17-4.7,25.8-6.4c9.5-1.8,19-6.7,28.5-7.6
		c-0.2,1.1-1.3,0.7-1.8,1.3c2.5-0.2,4.2-1.4,7.6-1.5c-2,0.5-3.8,1-5.6,1.4c9.1-0.9,18-1.5,26.7-2.8v0.1c-0.3,0.1-0.5,0.2-0.9,0.3
		c2.9,1.2,8.1,0.1,11.3,0.3c0,0.1,0,0.2,0,0.4c-2,0.1-4.6-0.1-6.4,0.8c6.2-0.7,12.4-1.4,18.6-1.9c-0.4,0.1-1,0.2-1.5,0.3
		c4.4,1.5,9.8-0.5,14.3-1.1c0,0.1,0,0.1,0,0.2c-1.4,0.3-2.8,0.5-4.4,0.8c0.9,0.6,10.7-0.6,13.2-1.6c-1.5,0.2-3,0.4-4.6,0.6
		c0-0.2,0.7-0.4,1.6-0.6c0.9,0,1.9,0,2.9-0.1l35.7-4.1c14.8-6.3,8.5-8.8,23.9-22.9l1.2-2.9C678.7,146.4,678.7,133.4,679.5,127.1z
		 M102.4,90.7c-0.9,0.8-2.4,0.9-2.7,0.4C100.6,91,101.5,90.8,102.4,90.7z M91.6,91.7L91.6,91.7L91.6,91.7z M91.6,91.7h-0.1
		C91.5,91.7,91.5,91.7,91.6,91.7z M91.4,91.7c-0.1,0-0.1,0-0.2,0C91.3,91.7,91.4,91.7,91.4,91.7z M91,91.7L91,91.7
		C90.9,91.7,90.9,91.7,91,91.7z M90.7,91.7c2.1,0,4.3,0,6.4,0v0.1c-0.9,0.1-6.7,0.9-7,0.3C90.3,92,90.5,91.7,90.7,91.7z M72.7,93.6
		c2.3,0.6,6.6-1.1,8.9-1.5c2.6-0.4,5.2-0.6,7.8-0.8c0,0.1,0.1,0.2,0.1,0.3c-1.4,0.6-3,1-4.7,1.4l0,0c-0.1,0-0.1,0-0.2,0
		c-4.8,0.9-10.4,1-14.8,1.8C70.5,93.9,71.4,93.3,72.7,93.6z M66.4,94.7c0,0.1,0.1,0.2,0.1,0.4c-1.3,1.1-3,0.6-4.4,1.2
		c0-0.1-0.1-0.3-0.1-0.4C63.4,95.5,64.9,95.1,66.4,94.7z M53.7,96.7c0,0.1,0.1,0.2,0.1,0.3c-1.7,0.8-3.4,1.2-5.3,0.8
		C50.2,97.5,52,97.1,53.7,96.7z M42.6,99.1c-1.2,0.1-2.2,0.2-3.2,0.2C40.2,98.3,41.3,98.2,42.6,99.1z M64.5,182.6l0.7,0.1
		c0.4,0.1,0.9,0.1,1.3,0.1c0,0.1-0.1,0.2-0.1,0.3C65.8,182.9,65.1,182.7,64.5,182.6z M84.2,93.7c5.3-0.7,10.6-1.3,16-1.8
		c0.1,0,0.8-0.1,2.8-0.2c0,0.1,0,0.2,0,0.4c-6.3,0.7-12.5,1.4-18.8,2.1C84.2,94,84.2,93.9,84.2,93.7z M97.2,185.9
		c-1.9,0-5.5,0.7-7-0.4C90.5,184.9,96.4,185.7,97.2,185.9L97.2,185.9z M99.8,186.6c0.3-0.6,1.9-0.4,2.7,0.3
		C101.6,186.8,100.7,186.7,99.8,186.6z M103,185.9c-1.9-0.1-2.7-0.2-2.8-0.2c-5.3-0.5-10.7-1.1-16-1.7c0-0.1,0-0.3,0-0.4
		c6.3,0.7,12.5,1.3,18.8,2C103.1,185.7,103,185.8,103,185.9z M302.3,224.1c-2-0.4-4.1-0.8-6.2-1.5
		C296.7,222.9,301.4,223.7,302.3,224.1z M333.8,85.3h-0.9C333.2,85.2,333.5,85.1,333.8,85.3z M316.8,78.8c0,0,0.1,0,0.1,0.1
		c2.7,1.8,8.4-3.9,11.1-0.5c-2.3,0.2-4.6,1.8-6.9,2.1c-2.9,0.5-5.9,0.4-8.8,0.4C313.6,79.4,315.1,78.7,316.8,78.8z M327.8,201.7
		c-0.1-0.1-0.5,0.1-0.7,0.2C327.5,201.8,327.8,201.7,327.8,201.7c-1,0.4-6.7,2.1-8.4,1.1c-0.1,0-0.3-0.1-0.4-0.4
		c0.2-0.1,0.4-0.2,0.5-0.2C321.7,201.3,327.6,200.7,327.8,201.7z M322.3,196.2c1.8-0.5,3.6-0.7,5.4-0.7
		C327.2,196.4,323.1,197.5,322.3,196.2z M314.2,83.6c-0.2-0.1-0.2-0.1-0.3-0.1C312.3,82.6,316.1,80.7,314.2,83.6z M307.7,195.8
		C307.2,197.5,306.8,195.6,307.7,195.8L307.7,195.8z M307.2,195.3c-0.4,1.2-1.1,1.5-2.1,0.7C305.6,195.2,306.3,195,307.2,195.3z
		 M300.6,204.2C300.3,204.2,299,204,300.6,204.2L300.6,204.2z M288,78.8c0.7-0.1,0.9-0.3,2.6,0.5C288.4,80.2,287.8,79.8,288,78.8z
		 M293,198.4c-0.4,0.1-0.8,0.1,0.4-0.1c1.5-0.2,3.6-0.6,4.9,0.3c0,2.6-10.9,1.7-10.8,0.6C289.1,199.1,291.3,198.7,293,198.4z
		 M299.4,204.1c-4.6,0.7-4,2.4-7.8,0c2.1-0.2,4.9-0.2,7.3,0C299,204.1,299.2,204.1,299.4,204.1z M286.5,200.8c-0.1,0.1-0.2,0-0.2,0
		C285.6,200.9,285.1,200.6,286.5,200.8z M285.3,201C285.7,201.2,285.1,201.3,285.3,201L285.3,201z M279.5,202.4
		c0.5-0.5,0.9-1.2,1.9-1.6c1.6,0.7-0.2,1.6-0.8,1.9c-0.1-0.1-0.2-0.1-0.2-0.2c-0.1,0.2-0.5,0.4-1.5,0.9
		C278.5,202.5,278.7,202.2,279.5,202.4z M270.7,202.1C271.6,202,270.5,203,270.7,202.1L270.7,202.1z M262.5,198
		C262.5,198,262.4,198,262.5,198C262.3,198,262.2,198,262.5,198z M253.2,197.8c1.2,0.4,6.3-1.4,7.1-0.2c-0.9,2.1-5,2-6.2,1.7
		c0.2-0.3,0.4-0.5,0.6-0.7c-1.1,0.7-2.5,1.3-2.1,0.2C252.7,198.6,252.8,198.3,253.2,197.8z M258.1,202c-4.3,3.6-7.8,6.3-13.7,6.1
		c2.1-1.8,3.6-4.3,5.9-5.9C251.8,201.1,255.7,202.8,258.1,202z M247.9,211c-0.2,0.1,5.7-3.7,6.6-1.2c-0.5-0.8-2.1,0.7,0.1,0.2
		c-2.2,0.5-2.2,0.5,0,0C252.4,210.5,250.2,210.8,247.9,211z M238.3,210.8c-0.6-0.1-0.5,0.2-0.2,0.1c-0.2,0.1-0.3,0.3-0.3,0.3
		c-5.8,4.3-14.2,3.6-20.8,1.6c1.6-0.1,3.2-0.2,4.8-0.5c-4.1,0.3-8.2-0.4-12.1-3.1c4.6-3.1,6.4-5.2,11.6-3.2
		c-1.1-0.5-2.2-1.1-3.3-1.6c0.9-0.5,4.8,0,5.8,0c-1.8-1.7-3.3,0.4-4.5-0.6c5.2-2.5,12.7,3.2,18.6,4.3c-0.7,0.3-1.4,0.5-2.2,0.7
		c1.7-0.2,3.9-0.3,5.1-0.2C239,210.2,237.6,210.7,238.3,210.8z M211.1,212.6c-1.8-0.1-3.6-0.4-5.4-0.6c1-1.1,2.1-1.5,3.2-1.1
		c-0.3-0.1-0.6-0.3-0.9-0.4c1.4-1,1.2-0.7,0.7-0.3c2.1-0.6,4.2,1.8,6.4,2.6c-2.1,0-4-0.8-5.8-1.7C210,211.4,210.6,211.9,211.1,212.6
		z M232.3,215c-7.1,3.8-12,0.9-19-2.2C219.7,213,225.5,215.6,232.3,215z M235.8,199.4c-0.6,3.1,4.6,2.6,8.5,1.9
		c-0.1,0.2,0.1,0.1,0.3-0.1c1.6-0.3,3-0.6,3.5-0.6c-6.4,7.5-13.4,6.8-21.7,2.6c0.6,0.2,1.3,0.4,1.9,0.6c-0.6-0.4-0.7-1-0.4-1.7
		c-0.8,1.9-3.1,0.4-4.1-0.3C228.1,200.4,231.5,199.7,235.8,199.4z M229.5,198.2c0.4-0.5,0.7-0.2,0.1,0
		C229.6,198.1,229.6,198.2,229.5,198.2z M236.5,198.2c0.6-0.1,1.1-0.2,1.7-0.3C237.8,198.2,236.6,199.1,236.5,198.2z M240.6,197.9
		c0,0,2.9-0.8,1.8,0.7C240.5,199.5,241.1,197.9,240.6,197.9z M243.4,206c-0.7,1.8-1.9,2.3-3.4,1.6
		C241.1,207.1,242.2,206.5,243.4,206z M240.7,211.1c2.5,0,2,0.4-1.6,1.2C239.7,211.9,240.2,211.5,240.7,211.1z M240.8,211.1
		c1.7-2.4,3.9-3,6.8-2.2C245.3,209.9,243.3,211.2,240.8,211.1z M251.4,200.7C251.5,203.2,248.9,200.4,251.4,200.7L251.4,200.7z
		 M249.7,197.7c-0.1-0.1,0.2-0.1,1.1-0.1c-0.7,0.9-5.8,2.5-6.5,0.6C246,197.9,247.9,197.8,249.7,197.7z M228.2,194.9
		c-0.2,0.1,0.4-0.1,0.6-0.2c-0.2,0-0.3,0.1-0.5,0.1c4.4-1.3,10.3,0.4,14.7,1.5c-3.2,0.3-6.4,0.7-9.6,1.2c0.2-0.3,0.5-0.6,0.8-0.9
		c-1.5-1.5-8.7,0.1-6.2-1.6C227.4,195.4,225.5,196.5,228.2,194.9z M222.9,194.5c0.4,1.8-3.9,0.4-4,0
		C220.3,194.5,221.6,194.5,222.9,194.5z M218.7,197.9c2,0.2,4.3,0.3,6.3-0.3c-1.5-0.1-8.9-2.6-4.7-2.2c0.4,0,7.3,1.7,7.3,2.3
		c-0.4,0.1-1.7,0.4-1.8,0.8c0.4,0.2,0.9,0.3,1.4,0.2c-1.8,0.5-7.1,1.9-8.4,0.7C218.3,199.9,217.7,199.9,218.7,197.9z M174.5,86.4
		L174.5,86.4L174.5,86.4z M175.2,86.3C175.3,86.3,175.3,86.3,175.2,86.3L175.2,86.3z M175,86.3L175,86.3L175,86.3z M174.5,86.4
		c1.8-0.1,3.7-0.1,5.5-0.2c0,0.1,0,0.2,0,0.3c-2.2,0.2-4.4,0.3-6.6,0.5c0-0.1,0-0.1-0.1-0.2C173.8,86.6,174.2,86.4,174.5,86.4z
		 M155.3,185c-2.9-0.2-5.7-0.4-8.6-0.6c0-0.1,0-0.2,0-0.3c2.5,0.2,6.8-0.2,9,0.9C155.6,185,155.4,185,155.3,185z M154.1,184.9
		L154.1,184.9L154.1,184.9z M154.4,185L154.4,185L154.4,185z M154.7,185c0.2,0,0.4,0,0.5,0C155,185,154.9,185,154.7,185z
		 M195.8,199.9c-0.7,0.3-0.3,2-0.3,3.2c-0.6-0.4-1.1-0.8-1.5-1.2c0.7,2,2.5,1.8,1.8,4.5c-0.2-0.4-0.4-0.7-0.6-1.1
		c0.6,1.8,1.1,3.5,1.5,4.4c-4.2-1.3-7.8-3.4-11.7-5.2c-0.3-0.1-9.2-4-3.8-4.5c-3.1-1.8-5.7-2.9-8-5.7c5.6,0,16-2.5,18.9,3.1
		c-0.1-0.8-0.2-1.7-0.3-2.6c2.3-0.6,4.8,0.2,5.8-0.4C197.9,195.3,196,199,195.8,199.9z M198,194.6
		C197.9,194.5,198.1,194.4,198,194.6L198,194.6z M200.3,211.9C199.8,210.9,200.9,211.2,200.3,211.9L200.3,211.9z M201,211.1
		c-0.6-0.2-0.8-0.3-0.8-0.4c-1.5-1-1.6-3.5-1.9-5.3c0.5,0.4,1.1,0.7,1.6,1c-0.7-0.6-3-6.5-0.7-6.2c-2.3-0.5,2.6-5.3,3-5.7
		c1.4,0.6,2.8,1.5,4.1,2.5c-0.9-0.8-1.8-1.6-2.7-2.5c2.5,0,5.1,0,7.6,0c2.5,2.3,5.2,4.4,8.1,6.2c-3.5,1.1-6.1,0.8-8.4-0.4
		c1.1,0.8,2.3,1.6,3.4,2.3c-7.4,3-8.2,5.5-13.1-1.8c0.5,0,2.3,1.1,2.4-0.2c-1.2-1.3-3.3-1.3-4.1-2c1.7,3,3.8,5.8,6.4,8.2
		c-1.3,1-2.9,1.1-4.3,0.6c0.7,0.4,1.3,0.8,2,1.1C202.8,209.5,201.9,210.3,201,211.1z M220.9,223.5c-7,0-14.1-3.1-18.5-8.6
		c0.4-0.3,1.4-0.1,2.7,0.4c-0.6-0.3-1.2-0.7-1.8-1.1c2.9-2.5,4.3-1.6,8.2-1.4c4.2,2,8.5,3.7,12.9,5.2c-4.9,1.1-10,0.8-14.8-0.7
		c1.4,0.7,2.7,1.3,3.2,1.5c6.7,2.2,14.3,0.4,21.2,2.1C229.9,222.7,225.4,223.6,220.9,223.5z M237.9,220.4c2.9-2,5.5-4.6,7.3-7.6
		c-6,6.4-9.5,7.5-17.8,5.2c9.2-2.7,17.7-5.5,27.2-7.4c-0.6,4.7-8.2,9.1-13.8,9.9C240.4,220.6,239.6,220.7,237.9,220.4z M267.6,218.6
		c-8.8,3.1-18.4,3.5-27.6,2.2c8.5-1.1,17.8-3,24.5-8.7c5.4-4.6,5.9-9.9,14.2-9.6c0.2,1.6-9.7,8.8-11.2,11.7
		c3.6-3.1,7.8-5.6,12.3-7.3c0.8,2.4,1.9,4.5,3.4,6.6C277.8,214.9,272.7,216.8,267.6,218.6z M283.2,213.3c-1.4-2.1-2.6-4.2-3.3-6.6
		c5.1-1.9,7.6,2.4,12.5,4C289.3,211.4,286.2,212.3,283.2,213.3z M309.8,212.1c-3.5,0.5-2.3,0.4-0.9,0.2c-4,0.7-6.9,1.9-5.6-3.5
		c-1.5,0.8-3.2,1.3-4.9,0.7c0,0,0,0,0.1,0c-6.4,1.1-9.5,0.2-14.7-4c4-1.2,6.8-1.9,10.2,0.4c-0.4,0-0.8,0.1-1.2,0.1
		c0,0,2.7,1.7,4.4,2.8c-0.4-0.4-0.9-0.8-1.2-1.4c1.6-0.5,3.2-0.5,4.8-0.3c-0.2,0.1,0.7,0.5,0.8,0.1c1.4,0.2,2.7,0.5,4,0.6
		c3.8,0.4,8.9,0.3,12.3,2.2C315.3,210.9,312.6,211.7,309.8,212.1z M319.8,206.6c-0.1,0.1-0.9-0.1-3.2-1.1c2.2-0.2,6.3-3.2,7.4-2.4
		c-0.5,0.6-1.1,0.9-1.9,1c0.9,1,6-1.4,7.1-1.8c-0.1,0-0.2,0.1-0.4,0.1c-0.9,0.4-1.2,1.3,0.1,0.2
		C325.5,205.9,323.3,207.4,319.8,206.6z M335.3,211.1c-0.4,0.1-0.8,0.2-1.2,0.3c2.6-0.4-2.8,4.8-3.4,5.4c-1.8-2.2-3.7-4-5.9-5.8
		c4.4-1.7,10.8-9.8,14.1-10c-0.6,3-1.5,6-2.9,8.8C335.9,209.9,335.7,210.3,335.3,211.1z M351.2,201.8c-0.3,1.8-2.2-0.2-2.1,2.1
		c-4.1,0.3-7.4,1.1-7.9,2.6c-0.8-1.4-0.1-1.3,0.2-5.3C344.4,202.2,347.8,201.6,351.2,201.8z M344.1,84.2c0.1,0,0.1,0.1-0.5,0
		c-0.8-0.2-1.1-0.7-0.9-1.3c1.1-0.6,2.7,0.3,3.8-0.6C345.8,83.2,345,83.8,344.1,84.2z M364.8,194.5c-0.5,0.4-0.5,1.1-1.9,1.2
		C363.3,195,363.9,194.6,364.8,194.5z M364.2,198.7c0,0-0.1,0-0.3,0c0,0.2-2.6,0.6-2.6,0.7c1.6-1.5,2.2-1.2,4.3-1.2
		C365.2,198.5,364.7,198.7,364.2,198.7z M393.6,197c0.3,0.1,0.4,0.1,0.3,0.1C395.4,197.9,391.8,199.8,393.6,197z M385.8,80.6
		c0.5,0,1.6,0.3,2,0.2c-0.5,0.9-1.3,1.3-2.3,1.1C383.9,81,384,80.5,385.8,80.6z M383.1,81.8c-1.5-0.1-3,0.3-3-0.5
		C381.4,80.5,382.4,80.7,383.1,81.8z M378.2,195.2C378.1,195.2,378.1,195.2,378.2,195.2c-1.1-0.1-3.6,1.6-4.3,0.6
		c0.4-1.7,6.2-1.5,6.2-1C379.4,194.9,378.7,195.1,378.2,195.2z M391.1,201.8c-0.1-0.1-0.3-0.1-0.5-0.1c-2.9-0.6-8.1,4-10.5,1
		c2.3-0.1,4.5-2,6.8-2.4c2.9-0.6,5.8-0.5,8.7-0.7C394.3,201.2,392.9,201.9,391.1,201.8z M505.5,77c0.1-0.2,0.2-0.2-0.2,0.5
		c-1.5,0.7-2.7,0-3.5-1.8c1.6-0.9,3.3-1.8,4.9-2.7C506.3,74.3,505.9,75.6,505.5,77z M505.2,77.9C504.9,78.5,504.4,78.1,505.2,77.9
		C505,77.9,505.1,77.9,505.2,77.9z M506.8,72.5c-3.4,2-4.1,3.5-7,1.7c2.4-2.1,4.5-4.6,6.1-7.3C506.7,68.8,507,70.7,506.8,72.5z
		 M490.3,39.1c-3.2-1.8-5.6-4.8-6.5-8.3c6.5,0,12.9,2.5,17.5,7C498.6,40.6,493.6,41.1,490.3,39.1z M499.1,24.5
		c-0.4,0.9-0.4,2.1,0.2,3.4c1.1,2.4,3.3,4.4,3.4,6.7c0.2,0.6,0,1.6-1.3,3.1c-4.7-4.4-11.1-7.2-17.6-7c-3.2-13.4,12.4-21,23.8-20.5
		c11.8,0.5,23.3,7.6,28.6,18c10.4,20.3-8.4,42.7-27.9,48.5c1-2.4,2.2-4.7,3.2-7c-0.2,0.2-0.6,0.4-0.9,0.6c0.1-0.1,0.3-0.1,0.5-0.2
		c-0.5,1.2-1.4,2.4-2,3.6c-0.4-1.5,0-2.6,1.2-3.2l0,0c-0.3,0.2-0.5,0.3-0.9,0.5c0-2.6-1.1-4.4-1.5-6.4c0.6-0.1,0.5-2.1-0.1-1.5
		c0-0.4,0.1-0.8,0.2-1.3c1.2-3.8,1.3-7.9,0.4-11.8c0.4,0.4,0.7,0.9,1.1,1.5c-1.1-2.3-1.7-4.5-0.8-7c3.3-8.6,5.8-22-3.4-28
		c-1.2,1.8-0.3,3.6,0.2,5.4C503,21.3,500.1,22.4,499.1,24.5C499.2,24.4,499.2,24.4,499.1,24.5C500.2,21.9,497.6,28.1,499.1,24.5z
		 M507.7,48.5C507.1,47.9,507.2,46.8,507.7,48.5L507.7,48.5z M504.3,41c0.8-0.6,1.6-1.3,2.5-1.9C506.7,44,505.9,44.6,504.3,41z
		 M507,48.4c0.2,0.1,0.3,0.3,0.4,0.4c3.1,3.5,1.2,11.4-0.3,15c-0.8-0.8-1.5-1.6-2.3-2.4c0.6-0.6,1.3-1.3,1.9-1.9
		c-2.4,2.3-2.1,0.7-6.8-0.5C502.8,55.8,505.1,52.2,507,48.4z M494.2,62.2c-0.8,0.8-1.7,1.6-2.5,2.3
		C492.4,63.6,493.2,62.8,494.2,62.2z M489.4,67.8c3.7,1.9,6.3-9.3,13.1-4.6c-0.5,0.5-1,0.9-1.5,1.3c1.8-0.6,3.5-0.3,4.8,2.2
		c-4.6,7.9-6,6.7-13.5,3.8c0.9-0.5,1.8-1.2,2.7-1.9c-2.1,0.9-4.5,1.2-7.5,0.3C488.2,68.6,488.8,68.2,489.4,67.8z M491.4,79.1
		c1.7-0.6,3.5-2.3,5.2-2.4c0.1-0.2,0.4-0.2,1.3,0.4C495.5,78.2,493.9,79.1,491.4,79.1z M458,65.3c8.6,0.3,17.3,1.8,25.4,4.7
		C471.4,76.3,466.6,74.8,458,65.3z M465.7,73.5c1,0.4,2,0.9,3.1,1.3C467.4,75.4,466.4,74.9,465.7,73.5z M468.1,77.7
		c0.5,0.3,1,0.6,1.4,1c-2.5-0.5-5.5-1.1-7.6-2.8C464.4,75.1,466.5,75.8,468.1,77.7z M461.6,77.7c-2.1-0.1-4.1-0.4-6.1-0.8
		C456.1,74.4,461.8,77.7,461.6,77.7z M432.9,67.4c0.2,0,0.4-0.1,0.6-0.2c0,0.6,0,1.1-0.1,1.4c0,0,0.1,0,0.1-0.1
		c-0.1,0.9-0.2,1.8-0.3,2.6c-1.9-0.4-3.8-1.5-6-2C429.2,68.5,431,67.9,432.9,67.4z M407.8,81c-1.4,0.2-2.6-0.1-3.6-1
		c2.7,0.1,5.4,0,8.1-0.4C411.6,80.4,408.8,81.2,407.8,81z M409.5,81.5c1.2-0.8,1.6-0.7,1.2,0.1c0.7-0.2,1-0.7,1-1.4
		c2.4-0.5,2.7,0.8,5.8,2.5c-1,0.1-7.2-0.6-7.5-0.3C408.6,81.9,409.5,82.4,409.5,81.5z M420,200.7c-0.7,0.2-1.6,0.1-2.6-0.4
		c1.9-0.9,2.6-0.7,2.6,0.1C420,200.5,420,200.6,420,200.7z M409.4,85.3c0.6-1.8,10.8-1.2,10.8,0C416.6,85.3,413,85.3,409.4,85.3z
		 M418.9,83.4C419.3,83.7,419.1,83.8,418.9,83.4C418.9,83.5,418.9,83.5,418.9,83.4z M421,77.4c1.4-0.5,2.6-1.1,3.7-1.8
		c-1.1,0.6-2.1,0.9-2.9,1.1c-0.2,0-0.5,0-0.8,0.1c-1.5,0.2-3-0.2-5.4-0.6c0.7-0.6,1.4-1.2,2-1.7c-5.2,3.4-12.7,1.2-18.7,1.6
		c1.3-0.1,3.6-1.4,3.6-1.6c-0.5,0.2-1.1,0.4-1.6,0.6c6.5-2.8,13.8-4,20.9-3.5c-1.2,0.7-2.1,1.4-2.9,1.9c3-1.9,5.5-2,10.1-0.9
		c-0.7,0.6-1.5,1.1-2.2,1.5c1.6-0.8,3.3-1.3,5.6-0.5C429.9,81.2,427.6,78.8,421,77.4z M430.9,79.9c-0.4-0.1-0.8-0.2-1.3-0.4
		c1.3-1.7,2.3-3.5,3.1-5.5c4,1.4,7.9,3.5,11.2,6.2c-3-4.9-10.2-6.8-10-11.9c0.9-1.3,1.8-1.9,3.3-0.9c-0.7-1.4,4.1-1.5,3.9-1.5
		c-0.7,1.5-0.7,2.9-0.2,4.5c-0.3-0.2-0.9-0.6-1.4-1c3.5,3.7,5.7,8.5,10.3,11.1c3.6,2,8,3.8,12.1,4.7
		C451.5,85.1,442.2,83.1,430.9,79.9z M472.9,85.2c1.6-0.5-2.6-1.3-0.8-0.2c-3-1.5-5.7-3.5-8-5.8c1.5,2.4,3.5,4.3,5.8,5.9
		c-4.7-1.1-13.5-1.5-14.4-7.7c2.1,0.4,14.5,1.7,20.8,3.9c-0.2-0.1-0.4-0.2-0.5-0.3c3.6,0.3,6.9-0.3,10.2-0.9
		c-2.7,0.4-5.4,0.4-8.1,0.3c0,0,0.1,0,0.1-0.1c-1.1-0.7-8.2-1.2-8.3-2.5c0.2-0.2,0.4-0.3,0.7-0.2c-0.8-0.6-1.5-1.2-2.3-1.9
		c1-0.1,2.7-0.1,4.2,0.1c-0.6-0.1-1.1-0.3-1.7-0.5c5.4-1,10.1-4.4,15-3.9c-0.4-0.4,0.2-0.5,3.1,0.8c-1.8,0.9-3.6,1.7-5.4,2.4
		c4.4-1.4,8.2-1,12.2,1.2c-0.4-0.1-0.6,0-0.7,0.4c0.3,0.4,0.7,0.5,1.2,0.3c-3.3,1.9-6.7,2.5-10.1,2.3c1.3,0.2,2.5,0.3,3.8,0.3
		c-0.7,0.2-1.5,0.4-2.2,0.6c1.1-0.2,2.2-0.4,3.4-0.5c-3.7,1.4-0.4,0.3,0.2,0c0.6-0.1,1.3-0.1,1.9-0.1c-5.5,2.2-9.7,4.5-15,2.8
		c1.1,0.5,1.8,1.1,1.9,1.8C478.5,84.1,474.9,85.4,472.9,85.2z M476.9,85.3c1.5-0.4,2.3-0.5,2.5-0.5c2.5-0.3,4.7-0.1,7.5-0.2
		C483.1,84.9,479.4,85.3,476.9,85.3z M487.6,84.5c0.7-0.1,1.5-0.2,2.5-0.5c-2.7,0.2-10,0.5-5.6-1c0.7,0.5,5.5,0.8,5.6,0.2
		c-1.1,0-3.3-0.5-4.7-0.6c3-1,6.4-3,9.8-3.7c0,0,0,0-0.1,0c1.1-0.5,2.2-1,3.3-1.6c1.3,0.7,2.6,1.8,3.9,2.8c-0.9,0.6-1.9,1-2.8,1.5
		c2.1-0.5,3.5-0.9,3.6-0.8c-0.9,1.1-2.1,2-3.3,2.9c0.1-0.1-0.4,0.2-0.5,0.3c-0.2-0.2-1.8-0.3,0,0.1
		C497.2,83.7,492.4,84.1,487.6,84.5z M501.7,85.3C502.4,85.4,503.7,85.7,501.7,85.3c0.7,0.1,1.3-0.1,1.9-0.5c-0.1-1-1.6-0.1-1.8-0.1
		c2-3.6,4.1-3.4,6.1,0.6C505.9,85.3,503.7,85.7,501.7,85.3z M545.2,94.9C545.5,94.9,545.8,95,545.2,94.9L545.2,94.9z M545,94.9
		c-0.5,0-0.9-0.3-0.9-0.8c1.9-0.2,3.8,0.6,5.6,1C548,95,546.5,95,545,94.9z M610.7,96.9c1,0.1,2,0.3,2.9,0.4
		c-0.4,0.1-0.9,0.2-1.3,0.3C611.3,97.4,610.7,97.1,610.7,96.9z M589.6,96.9c1.9,0,5.5-0.7,7,0.4C596.3,97.9,590.4,97.1,589.6,96.9
		L589.6,96.9z M587.1,96.2c-0.3,0.6-1.9,0.4-2.7-0.3C585.2,96,586.1,96.1,587.1,96.2z M583.7,97.2c0-0.1,0-0.2,0-0.4
		c6.3,0.5,12.5,1.2,18.8,2c0,0.1,0,0.3,0,0.4C596.3,98.5,590,97.9,583.7,97.2z M587.8,184.6c0.9-0.8,2.4-0.9,2.7-0.4
		C589.6,184.3,588.7,184.4,587.8,184.6z M599,183.5c0.1,0,0.3,0,0.4,0C599.2,183.5,599.1,183.5,599,183.5z"/>
	<path fill="#222223" d="M578.4,185.9L578.4,185.9L578.4,185.9L578.4,185.9z"/>
	<path fill="#222223" d="M299.4,204.1c-0.2,0-0.4,0-0.5,0C297.2,204,298.3,204.3,299.4,204.1z"/>
	<path fill="#222223" d="M409.5,81.5C409.5,82.4,410.9,80.9,409.5,81.5L409.5,81.5z"/>
	<path fill="#222223" d="M234.5,200.9c0,0.1,0,0.1,0,0.2c0.6-0.1,1.2,0,1.7,0.2c-0.1-0.2-0.1-0.3-0.2-0.4c0,0,0,0,0-0.1
		c0,0,0-0.1-0.1-0.1c-0.1-0.2-0.3-0.4-0.5-0.4c0.1-0.2,0.3-0.5,0.3-0.9C233,199.6,233.6,200.9,234.5,200.9z M234.5,200.9
		C234.6,200.9,234.6,200.9,234.5,200.9C234.6,201,234.6,201,234.5,200.9C234.5,201,234.5,201,234.5,200.9z"/>
	<path fill="#222223" d="M419.7,200.7c-0.1,0-0.2,0-0.2,0.1c0.1,0,0.3,0,0.4,0c0-0.1,0-0.2,0-0.3C420,200.1,419.6,200.5,419.7,200.7
		z"/>
	<path fill="#222223" d="M597.4,96.5C597.3,96.6,598.7,96.6,597.4,96.5L597.4,96.5z"/>
	<path fill="#222223" d="M501.4,37.6c1-1.1,1.3-2.1,1.3-3.1C502,33,498,34.4,501.4,37.6z"/>
	<path fill="#222223" d="M511.9,68.7c-0.1,0.3-0.3,0.7-0.4,1C512.7,68.9,512.5,68.6,511.9,68.7z"/>
	<path fill="#222223" d="M208.7,210.1c-0.2,0.1-0.5,0.2-0.7,0.3C208.1,210.5,208.4,210.3,208.7,210.1z"/>
	<path fill="#222223" d="M240.8,220.4c0.6-0.4-0.5-1-2-0.5c0.6-0.4,0.8-0.7-1,0.5C238.7,220.6,239.7,220.5,240.8,220.4z"/>
	<path fill="#222223" d="M606.4,96.9c-0.5,0-1.1-0.1-1.6-0.1C605.3,96.9,605.9,97,606.4,96.9L606.4,96.9z"/>
	<path fill="#222223" d="M601.9,97.8c0,0.1,0,0.2,0,0.3c0.1,0,0.1,0,0.2,0c0.5,0,1,0,1.4-0.1C603,98,602.5,97.9,601.9,97.8z"/>
	<path fill="#222223" d="M80.4,185.9c0.5,0,1.1,0.1,1.6,0.1C81.5,185.9,80.9,185.8,80.4,185.9C80.4,185.8,80.4,185.9,80.4,185.9z"/>
	<path fill="#222223" d="M587.2,183.6c0.9-0.1,1.9-0.2,2.8-0.2C590.2,183.3,587.2,183.5,587.2,183.6z"/>
	<path fill="#222223" d="M513,65.1c-0.2,1-0.5,2-0.9,3C512.6,67.2,512.8,66.2,513,65.1z"/>
	<path fill="#222223" d="M316.6,205.5c1.2,0.6,2.2,0.9,3.2,1.1C319.8,206.4,318,205.4,316.6,205.5z"/>
	<path fill="#222223" d="M510.2,70.6c0.1-0.1,0.2-0.1,0.3-0.2C510.3,70.5,510.2,70.5,510.2,70.6z"/>
	<path fill="#222223" d="M422.9,77.5c0.8-0.2,0.2-0.7-1.9-0.1C425.6,78.4,424.5,77.8,422.9,77.5z"/>
	<path fill="#222223" d="M583.7,97.2C590,97.9,583.8,97.1,583.7,97.2L583.7,97.2z"/>
	<path fill="#222223" d="M510.8,70.4c-0.2,0.2-0.2,0.4-0.1,0.4c0.1-0.2,0.3-0.4,0.4-0.7c-0.3,0.1-0.6,0.2-0.8,0.4
		C510.3,70.6,510.6,70.6,510.8,70.4z"/>
	<path fill="#222223" d="M335.8,209.9c0.2-0.7-1.2,1.2-0.6,1.2c0.2-0.4,0.5-0.9,0.7-1.3C336,209.7,335.9,209.7,335.8,209.9z"/>
	<path fill="#222223" d="M509.5,51.5c0.5,1.1,1.1,2.2,1.7,3.3C510.7,53.5,510.1,52.4,509.5,51.5z"/>
	<path fill="#222223" d="M511.9,68.7c0.1-0.2,0.1-0.4,0.2-0.6C512,68.3,511.9,68.5,511.9,68.7C511.8,68.7,511.9,68.7,511.9,68.7z"/>
	<path fill="#222223" d="M511.8,68.7c-0.9,0.2-2.4,1.2-2.4,2.3C510.4,70.5,511.2,69.7,511.8,68.7z"/>
	<path fill="#222223" d="M84.9,185c0-0.1,0-0.2,0-0.3l0,0l0,0c-0.1,0-0.1,0-0.2,0l0,0c-0.5,0-1,0-1.4,0.1
		C83.8,184.8,84.3,184.9,84.9,185z"/>
	<path fill="#222223" d="M283.5,212.1c-0.5,0-1,0.3-0.4,1.2C284.9,212.7,284.2,212.1,283.5,212.1z"/>
	<path fill="#222223" d="M89.5,186.3C89.5,186.2,88.1,186.2,89.5,186.3L89.5,186.3z"/>
	<path fill="#222223" d="M543,94c-0.2,0-0.3-0.1-0.5-0.2c-0.2,0-0.4,0-0.7,0C542.3,94,542.7,94,543,94z"/>
	<path fill="#222223" d="M253.2,197.8c-0.3,0.4-0.4,0.7-0.5,1C252.5,199.3,253.8,198,253.2,197.8z"/>
	<path fill="#222223" d="M433.9,79.9L433.9,79.9L433.9,79.9c-1.5-0.6-3.8-1.1-4.4-0.4c0.4,0.1,0.9,0.2,1.3,0.4
		C436.2,81.3,435.7,80.6,433.9,79.9z"/>
	<path fill="#222223" d="M513,65.1c0.4-1.8,0.4-3.7,0-5.8c-0.3-1.6-1-3.1-1.8-4.6C512.6,58,513.4,61.9,513,65.1z"/>
	<path fill="#222223" d="M258.1,202C257,202.4,253.8,205.6,258.1,202L258.1,202z"/>
	<path fill="#222223" d="M103,91.7c-0.9,0.1-1.9,0.2-2.8,0.2C100,92,103,91.8,103,91.7z"/>
	<path fill="#222223" d="M53.7,96.7C52,97.1,53.7,96.8,53.7,96.7L53.7,96.7z"/>
	<path fill="#222223" d="M319.6,202.2c-0.2,0.1-0.4,0.2-0.5,0.2c0.1,0.2,0.2,0.3,0.4,0.4C319.9,202.8,320.2,202,319.6,202.2z"/>
	<path fill="#222223" d="M497.9,77.1c-0.4-0.3-0.9-0.4-1.3-0.4C496.5,77,497,77.5,497.9,77.1z"/>
	<path fill="#222223" d="M458,65.3C466.6,74.8,466.2,65.6,458,65.3L458,65.3z"/>
	<path fill="#222223" d="M218.8,199.4c0.4-0.4,0.7-1.2,0.3-1.4c0.2,0,0.3-0.1-0.4-0.1C218.3,198.6,218.4,199.1,218.8,199.4z"/>
	<path fill="#222223" d="M66.4,94.7C64.9,95.1,66.4,94.8,66.4,94.7L66.4,94.7z"/>
	<path fill="#222223" d="M486,80c0.5-0.1,1-0.2,1.5-0.3C487,79.8,486.5,79.9,486,80z"/>
	<path fill="#222223" d="M100.3,185.7c0.9,0.1,1.8,0.2,2.8,0.2C103,185.9,100.1,185.7,100.3,185.7z"/>
	<path fill="#222223" d="M378.1,195.2c0.1-0.2-0.3-0.1-0.3,0c-0.1,0-0.1,0,0,0S378,195.2,378.1,195.2L378.1,195.2
		C378.2,195.2,378.2,195.2,378.1,195.2z"/>
	<path fill="#222223" d="M589.6,96.9C589.6,96.9,591.8,96.8,589.6,96.9L589.6,96.9z"/>
	<path fill="#222223" d="M479.3,84.8c-0.8,0.1-1.6,0.2-2.5,0.5C478.4,85.3,479.6,84.9,479.3,84.8z"/>
	<path fill="#222223" d="M66.4,183.1C66.4,183,64.9,182.7,66.4,183.1L66.4,183.1z"/>
	<path fill="#222223" d="M97.2,185.9C97.2,185.9,95,185.9,97.2,185.9L97.2,185.9z"/>
	<path fill="#222223" d="M293,198.4c0.2,0,0.4-0.1,0.4-0.1C293.3,198.4,293.2,198.4,293,198.4z"/>
	<path fill="#222223" d="M164.9,94.2C166.8,93.9,164.4,94.2,164.9,94.2L164.9,94.2z"/>
	<path fill="#222223" d="M488.1,55c2.3-0.5,9.2-8.2,4.1-7.7c-2.7,0.2-4.4,7.3-6.6,5.2c-0.6-0.6-0.9-1.2-0.9-1.8
		C483.6,53.4,484,56,488.1,55z"/>
	<path fill="#222223" d="M488.8,44.9c-0.9,0.5-2,1.7-2.9,3.1c2.5-2.4,7.9-4.4,12.1-4.5C494.9,43,491.6,43.3,488.8,44.9z"/>
	<path fill="#222223" d="M498.1,43.5c1.7,0.3,3.4,0.9,5,1.7C502.1,44,500.3,43.5,498.1,43.5z"/>
	<path fill="#222223" d="M212.6,213.6c0.4,0.1,0.5,0-0.6-0.5c-0.2-0.1-0.3-0.2-0.5-0.3C208.6,212.6,212.1,213.7,212.6,213.6z"/>
	<path fill="#222223" d="M485.9,48c-0.9,0.8-1.3,1.7-1.3,2.6C485,49.7,485.4,48.8,485.9,48z"/>
	<path fill="#222223" d="M363.9,198.7c0.1,0,0.2,0,0.3,0C364.2,198.6,363.9,198.6,363.9,198.7z"/>
	<path fill="#222223" d="M477.1,31.8c-0.3,0.1-0.6,0.1-0.9,0.2C476.5,32,476.8,31.9,477.1,31.8z"/>
	<path fill="#222223" d="M476.2,32.1c-0.2,0.1-0.4,0.1-0.6,0.2C475.9,32.2,476,32.1,476.2,32.1z"/>
	<path fill="#222223" d="M205.1,215.2c1.4,0.8,3,1.5,4.5,2C208.1,216.5,206.5,215.8,205.1,215.2z"/>
	<path fill="#222223" d="M228.2,194.9c-0.1,0-0.1,0.1-0.2,0.1C228.1,195,228.1,194.9,228.2,194.9z"/>
	<path fill="#222223" d="M83.2,93c0.5,0,1,0,1.4,0.1c0.1,0,0.1,0,0.2,0c0-0.1,0-0.2,0-0.3C84.3,92.8,83.7,92.9,83.2,93z"/>
	<path fill="#222223" d="M288.2,78.8L288.2,78.8L288.2,78.8c-0.1,0-0.1,0-0.3,0C287.8,79.6,288.4,79,288.2,78.8z"/>
	<path fill="#222223" d="M487.5,72.2c-1.1,0.4-1.9,1.4,1.2-0.1c-1-0.5-2.1-0.7-3.1-0.8C485.9,71.6,486.7,72.1,487.5,72.2z"/>
	<path fill="#222223" d="M506.7,59.5c0.2-0.2,0.5-0.5,0.8-0.8C507.2,59,506.9,59.2,506.7,59.5z"/>
	<path fill="#222223" d="M111.8,89.4L111.8,89.4L111.8,89.4L111.8,89.4z"/>
	<path fill="#222223" d="M328.4,71.3c0.9,0.2,2,0.2,3.1,0.2C331.5,70.5,328.7,70.9,328.4,71.3z"/>
	<path fill="#222223" d="M170.2,205.3L170.2,205.3c-0.1,0.1-0.1,0.1-0.2,0.1C170.1,205.4,170.2,205.3,170.2,205.3
		C170.3,205.3,170.3,205.3,170.2,205.3C171.6,204.5,170.7,205,170.2,205.3z"/>
	<path fill="#222223" d="M170.3,205.3c0,0.2-1.6,2.3-0.9,2.1c-1.8,0.2-2.4,0.7-2.7,2.5c3.7-0.3,4.8-5.8,9.4-4.9
		C174,204.2,172.1,204.3,170.3,205.3z"/>
	<path fill="#222223" d="M355.8,211c0.4-0.2,1.1,0.1,1.7,0.2C362.3,211.3,357.9,209.7,355.8,211z"/>
	<path fill="#222223" d="M166.6,211.7c0,0.1,0,0.2,0,0.3C166.8,212.4,166.7,211.8,166.6,211.7z"/>
	<path fill="#222223" d="M166.6,212c0-0.3,0-0.3,0-0.3c0.2-0.5,1.2-0.2,1.3-1c-3.7-0.8-5.6,3.9-3,6.2c2.6,0.5,1.4-4.1,3.7-4.2
		C166.2,212.3,166.7,212.3,166.6,212z"/>
	<path fill="#222223" d="M209.5,203.6c-1.4-2.3-4.9-1.7-4,0C206.8,203,208.2,203,209.5,203.6z"/>
	<path fill="#222223" d="M281.3,268.4c-3-3-5.4-6.6-7.2-10.4C275.8,261.9,278.3,265.4,281.3,268.4z"/>
	<path fill="#222223" d="M175.9,202.6c-1.5-1.2-1.9,0.4-1.9,1C175.2,204.1,175.8,203.9,175.9,202.6z"/>
	<path fill="#222223" d="M368.3,206.4C369.9,207.7,369.8,206.3,368.3,206.4L368.3,206.4z"/>
	<path fill="#222223" d="M186.6,196.4c0.6,0.4,5.9,0.6,4.3,0.3C191.1,195.3,187.2,196.5,186.6,196.4z"/>
	<path fill="#222223" d="M190.9,196.7C191.2,196.7,191,196.4,190.9,196.7L190.9,196.7z"/>
	<path fill="#222223" d="M271.2,205.8C270.8,205.8,271.8,206.1,271.2,205.8L271.2,205.8z"/>
	<path fill="#222223" d="M271.2,205.8c0.2,0.1,1.8-0.3,2.6-0.5C272.3,205.4,268.8,205.9,271.2,205.8z"/>
	<path fill="#222223" d="M274.3,205.3c0.1-0.1-0.1-0.1-0.5,0C274,205.3,274.2,205.3,274.3,205.3z"/>
	<path fill="#222223" d="M184.6,196C184.6,195.9,184.5,194.9,184.6,196L184.6,196z"/>
	<path fill="#222223" d="M184.6,196c-0.1-1.1-2.1,0.2-2.6,0.2c1.1,0.7,4.5-0.2,2.9-0.2C185.3,196,184.6,195.9,184.6,196z"/>
	<path fill="#222223" d="M370.1,205.2c0.3,0.9,1.5,0.2,2.3-0.7c-0.8,0-1.5,0-2.3-0.1C369.9,205.3,370,205.3,370.1,205.2z"/>
	<path fill="#222223" d="M376.9,209.7c0.1,1,2.8,0.5,3.2,0.1C379,209.7,377.9,209.6,376.9,209.7z"/>
	<path fill="#222223" d="M179.4,198.7c0.9,0.4,1.9,0.6,2.3-0.5C180.9,198.4,179.5,198,179.4,198.7z"/>
	<path fill="#222223" d="M549.7,86.4C549.9,86.5,550.4,86.6,549.7,86.4L549.7,86.4z"/>
	<path fill="#222223" d="M549.7,86.4c0.7,0.2,1.3,0.4,1.9,0.7c0,0.9-1.3,0.3-1.4,1.2c3.4,0.8,6-3.8,3.3-6c-2.6-0.6-1.6,3.9-3.9,4
		C549.9,86.8,549.9,86.5,549.7,86.4z"/>
	<path fill="#222223" d="M374.9,71.4c-1.3,0.3-2.2-0.9-2.8,0.4C372.9,71.5,374.5,72,374.9,71.4z"/>
	<path fill="#222223" d="M475.7,32.2c-2.5,1-4.9,2.5-6.8,4.4C470.8,34.8,473.2,33.3,475.7,32.2z"/>
	<path fill="#222223" d="M337.9,76.3c-0.2-1-1.6-0.2-2.3,0.6c0.8,0,1.5,0,2.3,0.2C338.1,76.2,338,76.1,337.9,76.3z"/>
	<path fill="#222223" d="M454,38.1c0.3-0.4,0.6-0.8,0.9-1.2c-2.7-4.8-12.2-2.6-15.8-0.2C440.8,35.7,456.4,33.5,454,38.1z"/>
	<path fill="#222223" d="M447,40.5c3.1-0.4,5.9-0.6,8.6-1.4c-0.1-0.9-0.3-1.6-0.7-2.2c-0.3,0.4-0.7,0.9-1.2,1.7
		C452,39.9,449.1,39.8,447,40.5z"/>
	<path fill="#222223" d="M454.9,36.9L454.9,36.9C455.6,36,455.3,36.3,454.9,36.9z"/>
	<path fill="#222223" d="M453.7,38.6c0.1-0.2,0.2-0.4,0.3-0.5C453.7,38.4,453.6,38.7,453.7,38.6z"/>
	<path fill="#222223" d="M436.9,79.5C437.3,79.5,436.3,79.2,436.9,79.5L436.9,79.5z"/>
	<path fill="#222223" d="M436.9,79.5c-0.2-0.1-2.1,0.3-2.8,0.4C435.3,79.9,439.3,79.5,436.9,79.5z"/>
	<path fill="#222223" d="M431.2,51.3C431.4,45.6,431.1,53.3,431.2,51.3L431.2,51.3z"/>
	<path fill="#222223" d="M431.3,54.9c-0.3-2-0.2-4.1,0.1-6.2C431.1,50.8,431.1,52.8,431.3,54.9z"/>
	<path fill="#222223" d="M431.3,54.9C431.1,52.8,431.2,53.7,431.3,54.9L431.3,54.9z"/>
	<path fill="#222223" d="M439.2,36.8c-4,2.6-6.5,6.6-7.5,11.1C432.7,43.4,435.3,39.3,439.2,36.8z"/>
	<path fill="#222223" d="M346.2,74.9c0.1,0,0.1,0.1,0.2,0.2c-0.6,0-6.4,0.8-7.1,1.4c2.9,1.4,27.4,3,27.7-0.6
		c-5.9,1.6-17.1-5.5-22.3-1.3C345.3,74.5,345.8,74.6,346.2,74.9z"/>
	<path fill="#222223" d="M346.4,75.1c-0.1-0.1-0.1-0.1-0.2-0.2C345.9,74.8,345.9,75.1,346.4,75.1z"/>
	<path fill="#222223" d="M339.9,75.1C338.3,73.8,338.4,75.2,339.9,75.1L339.9,75.1z"/>
	<path fill="#222223" d="M352.6,71c-0.4,0.2-1.1-0.2-1.7-0.2C346.1,70.5,350.4,72.1,352.6,71z"/>
	<path fill="#222223" d="M432,62.3c-0.6-1.9-1.5-4.3-0.5-1.4c-2.4-6.2-7.3-10.5-14.7-10C423.5,51.1,430.3,57.4,432,62.3z"/>
	<path fill="#222223" d="M434.2,63.2c-0.8-1.4-1.5-3-2-4.6C432.7,60.5,433.4,62,434.2,63.2z"/>
	<path fill="#222223" d="M507.5,58.7c0.3-0.3,0.7-0.7,1.1-1.2C508.2,57.9,507.8,58.3,507.5,58.7z"/>
	<path fill="#222223" d="M461.6,77.7C460.3,77.2,459.6,77.5,461.6,77.7L461.6,77.7z"/>
	<path fill="#222223" d="M272.1,252.2c-1.3-6.4-0.4-13.4,2.5-19C271.3,238.9,270.7,245.8,272.1,252.2z"/>
	<path fill="#222223" d="M504.8,61.5C505.7,62.2,506.2,60.2,504.8,61.5L504.8,61.5z"/>
	<path fill="#222223" d="M498.4,77.4C497.3,78,498.9,77.8,498.4,77.4L498.4,77.4z"/>
	<path fill="#222223" d="M274.1,258.1c-0.7-1.7-1.3-3.4-1.8-5.2C272.7,254.7,273.3,256.5,274.1,258.1z"/>
	<path fill="#222223" d="M411.8,67.9c7.4,0.9,6.1-5.5,2.3-9.3c-1.5-1.4-3.7-0.8-1.8,0.9c1.8,1.6,5.6,2.9,3.7,5.9
		c-4.9,7-13.6-6.3-5.3-12.5C405.4,56.3,403.6,67,411.8,67.9z"/>
	<path fill="#222223" d="M411.8,67.9C404,67,423.8,69.3,411.8,67.9L411.8,67.9z"/>
	<path fill="#222223" d="M410.7,53c1.9-1.2,4-1.8,6.2-2C414.7,51,412.6,51.5,410.7,53z"/>
	<path fill="#222223" d="M363,83.9c-0.9-0.4-1.7-0.2-2.3,0.4c0.8,0.2,1.6,0.2,2.3-0.2C363,84,363,84,363,83.9z"/>
	<path fill="#222223" d="M309.8,228.8C309.5,227.6,308.3,227.2,309.8,228.8L309.8,228.8z"/>
	<path fill="#222223" d="M343.6,84.3c0.2,0,0.4,0,0.5,0C343.9,84.2,343.3,84.1,343.6,84.3z"/>
	<path fill="#222223" d="M492.3,70.6C494.8,71.5,496,68.5,492.3,70.6L492.3,70.6z"/>
	<path fill="#222223" d="M476.3,81.2c0.6,0.3,1.2,0.5,1.8,0.7C477.6,81.7,477,81.4,476.3,81.2z"/>
	<path fill="#222223" d="M500.9,64.5c-1.9,0.7-3.9,2.5-5.9,4.1C497,67.8,498.8,66.3,500.9,64.5z"/>
	<path fill="#222223" d="M506.5,49.7c-0.4,1.9,2,0.8,0.8-0.8c-0.1-0.1-0.2-0.3-0.4-0.4C505.9,50.7,506.2,50.3,506.5,49.7z"/>
	<path fill="#222223" d="M499.4,81.8c-2.7,0.7-6.5,1.7-9.3,2.3c2.9-0.2,5.7-0.8,8.4-1.9C498.8,82,499.1,81.9,499.4,81.8z"/>
	<path fill="#222223" d="M452.6,65.5c-0.1,0,0,0,0.4,0c-0.6-0.6-3-0.2-3.8-0.1C450.5,65.4,451.7,65.5,452.6,65.5z"/>
	<path fill="#222223" d="M302.9,214.5c1.8,2.7,2.9,6,4.7,8C306.3,219.7,304.8,217,302.9,214.5z"/>
	<path fill="#222223" d="M484.5,83.1C484,83.2,485.3,83.6,484.5,83.1L484.5,83.1z"/>
	<path fill="#222223" d="M194,202c-0.6-1.6-1.2-3.1-1.9-4.4C192.4,199.3,192.8,200.8,194,202z"/>
	<path fill="#222223" d="M195.7,199.6c-0.1-0.1-0.5,0.6,0,0.4C196,198.8,195.8,199.2,195.7,199.6z"/>
	<path fill="#222223" d="M499.8,79c-1.5-0.4-3-0.4-4.6,0C497.6,79.2,499.2,79.2,499.8,79z"/>
	<path fill="#222223" d="M483.3,74.5c-1.1,0.3-2.3,0.7-3.6,1.1C480.9,75.4,482.1,75,483.3,74.5z"/>
	<path fill="#222223" d="M483.4,70c-0.4-0.2-0.9-0.3-1.3-0.4C475.9,67.7,479.3,72.2,483.4,70z"/>
	<path fill="#222223" d="M199.2,198.3c0,0.1,0.1,0.3,0.2,0.4C199.4,198.5,199.3,198.4,199.2,198.3
		C199.3,198.3,199.3,198.3,199.2,198.3z"/>
	<path fill="#222223" d="M236.5,198.2C236.6,198.3,237.1,198.1,236.5,198.2L236.5,198.2z"/>
	<path fill="#222223" d="M507.7,48.5C507.6,48.2,507.6,48.4,507.7,48.5L507.7,48.5z"/>
	<path fill="#222223" d="M465.7,73.5C466.2,74,466.7,73.9,465.7,73.5L465.7,73.5z"/>
	<path fill="#222223" d="M206.3,197c1.6,1.4,3,2.5,4.5,3.3C209.3,199.2,207.8,198.1,206.3,197z"/>
	<path fill="#222223" d="M251.4,200.7C251.3,200.7,251.4,200.8,251.4,200.7L251.4,200.7z"/>
	<path fill="#222223" d="M250.8,197.6c-0.4,0-0.7,0.1-1.1,0.1C249.8,197.7,250.5,197.8,250.8,197.6z"/>
	<path fill="#222223" d="M240.7,211.1C240.2,211.5,241.2,211.2,240.7,211.1L240.7,211.1z"/>
	<path fill="#222223" d="M240.8,211.1C241.3,211.1,241.7,210.3,240.8,211.1L240.8,211.1z"/>
	<path fill="#222223" d="M240,207.6C240.5,207.7,241.2,207.1,240,207.6L240,207.6z"/>
	<path fill="#222223" d="M193.9,202.9C193.8,202.7,194.3,203.7,193.9,202.9L193.9,202.9z"/>
	<path fill="#222223" d="M193.6,202.2c0.1,0.3,0.2,0.6,0.3,0.7c0.4,0.9,0.8,1.7,1.3,2.5C194.8,204.4,194.7,202.6,193.6,202.2z"/>
	<path fill="#222223" d="M309.1,225.6c0.1,1,0.3,1.9,0.7,2.8C309.8,227.2,309.6,226.3,309.1,225.6z"/>
	<path fill="#222223" d="M310.7,230.2c0.2,0.3,0.5,0.6,0.7,0.9C311.2,230.7,310.9,230.4,310.7,230.2z"/>
	<path fill="#222223" d="M309.7,240.8c0.7-2.4,0.5-2.1,0.3-1.2c0.6-2.8,0.6-5.6-0.1-8C310.2,235,310.5,237.5,309.7,240.8z"/>
	<path fill="#222223" d="M347.1,198.1c-0.6,0-1.3,0.2-1.8,0.4h0.1C346.1,198.8,346.6,198.6,347.1,198.1z"/>
	<path fill="#222223" d="M345.4,198.5C345.3,198.5,346.1,198.8,345.4,198.5L345.4,198.5z"/>
	<path fill="#222223" d="M278.3,255.4c-4.3-3.9-6.7-9.8-3.8-15.4c-5.3,8.8,0.4,15.3,8.7,18.6c-0.3-0.1-0.6-0.3-0.8-0.4
		c0.2,0.1,0.3,0.1,0.5,0.1c-0.8-0.5-2-1.2-3.9-2.4C278.6,255.7,278.4,255.6,278.3,255.4z M274.4,252.4c0.8,0.7,1.5,1.4,2.3,2.1
		C275.9,253.8,275.1,253.1,274.4,252.4z"/>
	<path fill="#222223" d="M283.5,258.6c-0.2-0.1-0.4-0.1-0.7-0.2C284.3,259.2,284.2,259.1,283.5,258.6z"/>
	<path fill="#222223" d="M282.1,257.6c-2-1.3-4.6-3-3.8-2.2c0.2,0.2,0.4,0.4,0.6,0.6C280,256.6,281,257.2,282.1,257.6z"/>
	<path fill="#222223" d="M282.1,257.6c0.6,0.4,1.1,0.7,1.4,1c12.6,3.3,23.5-5.8,26.3-17.7C306.6,251.7,294.5,262.6,282.1,257.6z"/>
	<path fill="#222223" d="M198.3,201.9c0,0.1,0,0.2,0,0.3C198.3,202,198.3,201.6,198.3,201.9z"/>
	<path fill="#222223" d="M229.5,198.2h0.1C229.6,198.1,229.5,198.1,229.5,198.2z"/>
	<path fill="#222223" d="M504.3,41C504.9,41.7,505.2,40.4,504.3,41L504.3,41z"/>
	<path fill="#222223" d="M468.1,77.7C467.7,77.8,468.6,78.1,468.1,77.7L468.1,77.7z"/>
	<path fill="#222223" d="M468.1,77.7C467.2,77.1,467.6,77.7,468.1,77.7L468.1,77.7z"/>
	<path fill="#222223" d="M213.3,212.9C217.3,214.5,214,212.9,213.3,212.9L213.3,212.9z"/>
	<path fill="#222223" d="M468.1,77.7c-0.6,0-1,0-1.2,0.1C467.3,77.8,467.7,77.8,468.1,77.7z"/>
	<path fill="#222223" d="M424.7,75.6c0.7-0.4,1.4-0.8,2.1-1.2C426.1,74.8,425.4,75.2,424.7,75.6z"/>
	<path fill="#222223" d="M270.7,202.1C270.7,202.2,270.8,202.1,270.7,202.1L270.7,202.1z"/>
	<path fill="#222223" d="M201.1,210.8c-0.2-0.2-1-0.2-1,0c0.2,0.2,0.5,0.3,0.8,0.4c0.1-0.1,0.1-0.1,0.1-0.2
		C201.3,210.7,201.2,210.7,201.1,210.8z"/>
	<path fill="#222223" d="M380.1,81.3C380.1,81.6,380.8,81.2,380.1,81.3L380.1,81.3z"/>
	<path fill="#222223" d="M280.1,202.3c0,0.1,0.1,0.1,0.2,0.2C280.4,202.4,280.3,202.3,280.1,202.3z"/>
	<path fill="#222223" d="M385.8,80.6C385.3,80.8,386,80.6,385.8,80.6L385.8,80.6z"/>
	<path fill="#222223" d="M215.1,212.7C213.1,211.9,214.4,212.7,215.1,212.7L215.1,212.7z"/>
	<path fill="#222223" d="M257.4,197.5C256.9,197.7,257.5,197.5,257.4,197.5L257.4,197.5z"/>
	<path fill="#222223" d="M505.4,77.5c0.1-0.2,0.1-0.4,0.2-0.5C505.4,77.2,505.2,77.6,505.4,77.5z"/>
	<path fill="#222223" d="M286.5,200.8c-0.1,0-0.2,0-0.2,0S286.4,200.8,286.5,200.8z"/>
	<path fill="#222223" d="M295.8,204.9C296.7,204.6,295.4,205,295.8,204.9L295.8,204.9z"/>
	<path fill="#222223" d="M281.4,200.8C281.2,201.4,282.2,201.2,281.4,200.8L281.4,200.8z"/>
	<path fill="#222223" d="M393.9,197.1c-0.1-0.1-0.2-0.1-0.3-0.1C393.4,197.2,393.9,197.2,393.9,197.1z"/>
	<path fill="#222223" d="M227.8,208.6c0.6,0.2,1,0.3,1.3,0.4c1.2,0.4,2.5,0.7,3.8,1c-1.6,0.5-3.2,0.9-4.7,1.3
		c3.2-0.5,6.5-0.8,9.7-0.4c0,0-4.7-0.5-4.5-1.3c0.3-0.3,0.6-0.4,1-0.5C232.2,209.4,229.9,209.2,227.8,208.6z"/>
	<path fill="#222223" d="M220.9,203.6C221.4,203.3,220.5,203.6,220.9,203.6L220.9,203.6z"/>
	<path fill="#222223" d="M431.8,70.1C431.8,70.1,431.8,70.2,431.8,70.1C431.8,70.2,431.9,70.2,431.8,70.1c0.9-0.1,1.6-0.9,1.7-1.5
		c-0.1,0.2-0.2,0.3-0.2,0.4c0-0.1,0.1-0.2,0.1-0.3C432.5,69.3,432,69.7,431.8,70.1z"/>
	<path fill="#222223" d="M232.9,209.9C227.7,208.9,227.6,211.6,232.9,209.9L232.9,209.9z"/>
	<path fill="#222223" d="M221.6,206.2c-0.1,0-0.2-0.1-0.3-0.1c2.2,1,4.4,2,6.6,2.5C225.7,207.9,223.6,207.1,221.6,206.2z"/>
	<path fill="#222223" d="M221.7,212.3c2.1-0.1,4.3-0.5,6.4-1.1C226,211.6,223.9,212,221.7,212.3z"/>
	<path fill="#222223" d="M506.8,72.4c0-1.5-3.1,1.8-0.3,0.3c0.1,0,0.2-0.1,0.3-0.2C506.8,72.5,506.8,72.4,506.8,72.4z"/>
	<path fill="#222223" d="M235.7,208.8c-0.5,0.1-1,0.2-1.3,0.2C234.8,209,235.3,208.9,235.7,208.8z"/>
	<path fill="#222223" d="M255.6,198C255.6,198,255.4,198.1,255.6,198L255.6,198z"/>
	<path fill="#222223" d="M254.7,198.6c0.3-0.2,0.7-0.4,0.9-0.6C255.2,198,254.9,198.2,254.7,198.6z"/>
	<path fill="#222223" d="M411.7,80.3C411.7,80.3,411.8,80.6,411.7,80.3L411.7,80.3z"/>
	<path fill="#222223" d="M433.6,67.2c-0.2,0-0.4,0.1-0.6,0.2C431.9,67.7,433.6,67.6,433.6,67.2z"/>
	<path fill="#222223" d="M472.2,75.8c0.7,0.2,1.3,0.3,2,0.3C473.7,76,473,75.9,472.2,75.8z"/>
	<path fill="#222223" d="M417.6,74.7c0.4-0.3,0.8-0.6,1.3-0.9C418.5,74,418,74.3,417.6,74.7z"/>
	<path fill="#222223" d="M199.8,206.4c0.5,0.5,1.1,0.8,1.7,1.1C201,207.2,200.4,206.8,199.8,206.4z"/>
	<path fill="#222223" d="M210.5,212.5c0.2,0,0.4,0,0.6,0.1C210,212.1,209.5,212.4,210.5,212.5z"/>
	<path fill="#222223" d="M489.3,67.9C489.3,68.4,492.8,69.5,489.3,67.9C488.9,68.1,489.2,68,489.3,67.9z"/>
	<path fill="#222223" d="M439.4,69.5c-0.7-0.7-1.5-1.4-2.3-2C437.4,68.1,438.5,68.8,439.4,69.5z"/>
	<path fill="#222223" d="M307.2,195.3C306.5,195.5,307,195.7,307.2,195.3L307.2,195.3z"/>
	<path fill="#222223" d="M505.2,77.9L505.2,77.9C505.1,78,505.1,78,505.2,77.9z"/>
	<path fill="#222223" d="M298.4,209.4c-0.2-0.1-0.6-0.4-1.2-0.7C297.6,209,298,209.2,298.4,209.4z"/>
	<path fill="#222223" d="M307.7,195.8C307.6,195.8,307.6,196.1,307.7,195.8L307.7,195.8z"/>
	<path fill="#222223" d="M410.1,82.2L410.1,82.2c0.2,0.2,0.5,0,0.6-0.5C410.5,81.8,410.3,82,410.1,82.2z"/>
	<path fill="#222223" d="M200.3,211.9C200.4,211.7,200.2,211.7,200.3,211.9L200.3,211.9z"/>
	<path fill="#222223" d="M322.3,196.2C322.5,196.5,324.5,196.2,322.3,196.2L322.3,196.2z"/>
	<path fill="#222223" d="M479.3,77.9c-1.3-0.3-2.7-0.7-4.1-1c1.6-0.3,3.1-0.8,4.4-1.2c-1.8,0.4-3.6,0.6-5.5,0.4
		c2.2,0.7-4.1,1.5-3.8,1.4C473.4,77.2,476.4,77.5,479.3,77.9z"/>
	<path fill="#222223" d="M485.9,78.9c-2.2-0.3-4.4-0.7-6.6-1C481.5,78.4,483.7,78.8,485.9,78.9z"/>
	<path fill="#222223" d="M313.9,83.5c0.1,0,0.2,0.1,0.3,0.1C314.3,83.3,313.6,83.3,313.9,83.5z"/>
	<path fill="#222223" d="M369.3,74.4c-1.2,0-2.3,0-2.8,0.7C366.8,75.7,369.8,76.2,369.3,74.4z"/>
	<path fill="#222223" d="M367.1,77.8c1.5-0.2,2.6,0.6,3.1-0.7C369.1,76.9,367.7,76.8,367.1,77.8z"/>
</g>
</svg>
