<?xml version="1.0" encoding="UTF-8" standalone="no"?>
<!-- Created with Inkscape (http://www.inkscape.org/) -->

<svg
   xmlns:dc="http://purl.org/dc/elements/1.1/"
   xmlns:cc="http://creativecommons.org/ns#"
   xmlns:rdf="http://www.w3.org/1999/02/22-rdf-syntax-ns#"
   xmlns:svg="http://www.w3.org/2000/svg"
   xmlns="http://www.w3.org/2000/svg"
   xmlns:sodipodi="http://sodipodi.sourceforge.net/DTD/sodipodi-0.dtd"
   xmlns:inkscape="http://www.inkscape.org/namespaces/inkscape"
   width="400px"
   height="400px"
   viewBox="0 0 400 400"
   id="svg3098"
   version="1.1"
   inkscape:version="0.91 r13725"
   sodipodi:docname="melis-splash.svg">
  <defs
     id="defs3100" />
  <sodipodi:namedview
     id="base"
     pagecolor="#ffffff"
     bordercolor="#666666"
     borderopacity="1.0"
     inkscape:pageopacity="0.0"
     inkscape:pageshadow="2"
     inkscape:zoom="2.4575"
     inkscape:cx="200"
     inkscape:cy="200"
     inkscape:current-layer="layer1"
     showgrid="true"
     inkscape:document-units="px"
     inkscape:grid-bbox="true"
     inkscape:window-width="1980"
     inkscape:window-height="1161"
     inkscape:window-x="576"
     inkscape:window-y="247"
     inkscape:window-maximized="0"
     showguides="true"
     inkscape:guide-bbox="true">
    <sodipodi:guide
       position="200,534"
       orientation="1,0"
       id="guide3477" />
  </sodipodi:namedview>
  <metadata
     id="metadata3103">
    <rdf:RDF>
      <cc:Work
         rdf:about="">
        <dc:format>image/svg+xml</dc:format>
        <dc:type
           rdf:resource="http://purl.org/dc/dcmitype/StillImage" />
        <dc:title />
      </cc:Work>
    </rdf:RDF>
  </metadata>
  <g
     id="layer1"
     inkscape:label="Layer 1"
     inkscape:groupmode="layer"
     transform="translate(0,336)">
    <g
       id="g18"
       transform="matrix(1.2473946,0,0,1.2473946,-362.34732,-563.63034)">
      <path
         style="fill:#f39200"
         inkscape:connector-curvature="0"
         d="m 429.706,285.575 4.978,0 1.348,24.891 -4.342,0 -0.936,-17.143 c -0.037,0 -0.075,0 -0.075,0 l -5.764,14.373 -3.443,0 -5.615,-14.225 c 0,0 -0.037,0 -0.074,0 l -0.937,16.994 -4.342,0 1.423,-24.891 5.091,0 6.213,16.281 c 0,0 0.037,0 0.075,0 l 6.4,-16.28 z"
         id="path20" />
      <path
         style="fill:#f39200"
         inkscape:connector-curvature="0"
         d="m 454.187,296.28 c 0,5.764 -7.149,6.512 -10.593,6.549 0.149,2.434 1.534,4.791 4.716,4.791 2.208,0 3.818,-1.01 4.716,-1.646 l 1.386,2.957 c -0.6,0.523 -3.069,2.096 -6.588,2.096 -6.176,0 -8.722,-3.967 -8.722,-9.582 0,-5.502 3.182,-10.367 9.133,-10.367 3.668,-10e-4 5.952,1.87 5.952,5.202 z m -6.214,-2.021 c -2.994,0 -4.417,2.92 -4.529,5.689 2.021,0.037 6.775,-0.6 6.775,-3.482 0,-1.385 -0.899,-2.207 -2.246,-2.207 z"
         id="path22" />
      <path
         style="fill:#f39200"
         inkscape:connector-curvature="0"
         d="m 461.822,284.489 0,19.838 c 0,2.32 0.487,3.182 2.021,3.182 0.749,0 1.572,-0.262 2.358,-0.6 l 0.973,2.994 c -1.01,0.637 -2.845,1.123 -4.454,1.123 -5.053,0 -5.353,-2.957 -5.353,-5.764 l 0,-20.773 4.455,0 z"
         id="path24" />
      <path
         style="fill:#f39200"
         inkscape:connector-curvature="0"
         d="m 471.742,283.741 c 1.534,0 2.583,1.123 2.583,2.508 0,1.422 -1.086,2.469 -2.583,2.469 -1.572,0 -2.583,-1.047 -2.583,-2.469 0,-1.385 1.048,-2.508 2.583,-2.508 z m -2.208,26.725 0,-18.828 4.454,0 0,18.828 -4.454,0 z"
         id="path26" />
      <path
         style="fill:#f39200"
         inkscape:connector-curvature="0"
         d="m 478.292,305.937 c 1.235,0.785 3.443,1.797 5.353,1.797 1.572,0 2.845,-0.711 2.845,-2.396 0,-1.684 -1.422,-2.207 -3.182,-2.732 -2.732,-0.785 -5.802,-1.684 -5.802,-5.576 0,-3.892 3.22,-5.951 6.85,-5.951 2.808,0 5.24,1.123 6.775,2.656 l -2.134,2.621 c -1.422,-1.236 -2.994,-2.021 -4.566,-2.021 -1.348,0 -2.62,0.674 -2.62,2.172 0,1.721 1.572,2.207 3.331,2.732 2.732,0.859 5.765,1.945 5.765,5.801 0,3.893 -2.882,5.988 -7.074,5.988 -3.219,0 -5.877,-1.16 -6.85,-1.908 l 1.309,-3.183 z"
         id="path28" />
    </g>
    <g
       id="g30"
       transform="matrix(1.2473946,0,0,1.2473946,-269.93409,-619.63034)">
      <path
         style="fill:#dadada"
         inkscape:connector-curvature="0"
         d="m 352.451,281.757 c 0,0 4.315,-4.756 11.54,-6.967 l 0,6.967 -11.54,0 z"
         id="path32" />
      <path
         style="fill:#dadada"
         inkscape:connector-curvature="0"
         d="m 350.759,285.753 c 0,0 4.315,-4.756 11.54,-6.967 l 0,6.967 -11.54,0 z"
         id="path34" />
      <g
         id="g36">
        <path
           style="fill:#dadada"
           inkscape:connector-curvature="0"
           d="m 350.759,297.919 c 0,14.336 11.621,25.41 25.957,25.41 l 0,-25.41 -25.957,0 z"
           id="path38" />
        <path
           style="fill:#dadada"
           inkscape:connector-curvature="0"
           d="m 376.716,271.96 c -14.336,0 -25.957,11.623 -25.957,25.959 l 25.957,0 0,-25.959 z"
           id="path40" />
      </g>
      <path
         style="fill:#dadada"
         inkscape:connector-curvature="0"
         d="m 394.843,290.675 c 0,0 3.979,0.346 5.535,-0.504 1.074,-0.588 2.037,-1.385 2.037,-2.68 0,0 -3.408,-3.332 -4.188,-4.539 -0.621,-0.432 -1.236,-1.227 -1.839,-2.004 -0.876,-1.129 -5.327,-8.996 -18.679,-8.996 -13.346,0 -22.025,4.744 -22.025,4.744 l 7.707,-0.066 c 2.324,2.289 -0.562,11.256 -0.562,11.256 l 32.014,2.789 z"
         id="path42" />
      <path
         inkscape:connector-curvature="0"
         d="m 366.72,280.45 c -5.86,2.689 -6.935,6.023 -6.938,6.023 l 3.694,0 c -2.984,1.562 -7.793,4.865 -7.793,4.865 l 29.052,0 c 0,0 7.156,0.041 12.244,0.025 2.293,-0.465 4.322,-1.322 5.446,-2.836 0,0 0.043,-1.398 -1.376,-2.732 -1.424,-1.338 -4.662,-4.848 -4.662,-4.848 0,0 -8.243,-6.008 -16.87,-6.008 -12.461,0 -19.066,5.51 -19.066,5.51 l 6.269,0 z"
         id="path44" />
      <path
         inkscape:connector-curvature="0"
         d="m 402.706,287.886 c 0,0.834 -0.704,2.137 -1.697,2.137 -0.99,0 -2.778,-1.934 -2.778,-2.766 0,-0.832 1.788,-1.504 2.778,-1.504 0.993,0 1.697,1.303 1.697,2.133 z"
         id="path46" />
      <g
         id="g48">
        <path
           inkscape:connector-curvature="0"
           d="m 354.746,297.919 c 0,12.115 9.821,21.938 21.938,21.938 l 0,-21.938 -21.938,0 z"
           id="path50" />
        <path
           inkscape:connector-curvature="0"
           d="m 376.684,275.979 c -12.116,0 -21.938,9.822 -21.938,21.939 l 21.938,0 0,-21.939 z"
           id="path52" />
      </g>
      <path
         inkscape:connector-curvature="0"
         d="m 355.819,285.448 c 0,0 4.314,-4.756 11.539,-6.967 l 0,6.967 -11.539,0 z"
         id="path54" />
      <path
         style="fill:#ffffff"
         inkscape:connector-curvature="0"
         d="m 392.757,305.474 -1.404,1.139 -3.069,0 c -0.239,-0.012 -2.337,-0.195 -2.337,-2.625 0,-2.504 2.273,-2.805 2.312,-2.812 l 3.062,0 c 0.167,0 0.323,-0.084 0.416,-0.223 l 0.171,-0.256 1.478,-1.197 c 0.215,-0.174 0.248,-0.49 0.074,-0.703 -0.175,-0.217 -0.489,-0.248 -0.703,-0.074 l -0.561,0.453 0,-3.688 c 0,-1.223 -0.342,-2.16 -1.015,-2.787 -0.917,-0.854 -2.098,-0.775 -2.11,-0.775 l -22.875,0 c -0.276,0 -0.5,0.223 -0.5,0.5 0,0.275 0.224,0.5 0.5,0.5 l 22.91,-0.002 c 0.015,0.002 0.804,-0.041 1.394,0.51 0.462,0.43 0.696,1.121 0.696,2.055 l 0,4.473 -0.036,0.055 -0.049,0.039 c -0.042,0.035 -0.071,0.078 -0.1,0.121 l -2.809,0.002 c -1.126,0.125 -3.257,1.084 -3.257,3.811 0,2.75 2.152,3.574 3.312,3.625 l 2.908,0 c 0.011,0.006 0.019,0.018 0.029,0.023 l 0,3.299 c 0,0.275 1,0.125 1,-0.15 l 0,-3.568 1.189,-0.965 c 0.215,-0.174 0.248,-0.488 0.074,-0.703 -0.172,-0.218 -0.486,-0.251 -0.7,-0.077 z"
         id="path56" />
      <g
         id="g58">
        <g
           id="g60">
          <g
             id="g62">
            <g
               id="g64">
              <path
                 style="fill:#f9b233"
                 inkscape:connector-curvature="0"
                 d="m 390.112,291.017 -23.601,0 c -1.532,0 -2.774,1.24 -2.774,2.775 l 0,17.229 c 0,1.529 1.242,2.771 2.774,2.771 l 22.22,0 c 1.452,0 2.629,-1.143 2.629,-2.549 l 0,-3.754 -2.649,0 c -2.022,0 -3.663,-1.639 -3.663,-3.664 0,-2.021 1.641,-3.662 3.663,-3.662 l 2.649,0 0,-4.768 c 0,-1.408 -1.177,-2.551 -2.629,-2.551 l -22.595,0 c -0.251,0 -0.457,-0.205 -0.457,-0.457 0,-0.252 0.206,-0.455 0.457,-0.455 l 23.277,0 c 1.946,0 2.629,1.727 2.629,2.549 l 0,5.025 0.843,-0.811 0,-4.904 c 0.001,-1.534 -1.24,-2.774 -2.773,-2.774 z"
                 id="path66" />
              <path
                 style="fill:#f9b233"
                 inkscape:connector-curvature="0"
                 d="m 392.043,311.44 c 0,0.232 0.188,0.42 0.422,0.42 0.231,0 0.421,-0.188 0.421,-0.42 l 0,-5.338 -0.843,0.766 0,4.572 z"
                 id="path68" />
            </g>
          </g>
          <circle
             style="fill:#ededed"
             cx="388.63599"
             cy="304.04199"
             r="1.6390001"
             id="circle70" />
          <g
             id="g72">
            <path
               style="fill:#f9b233"
               inkscape:connector-curvature="0"
               d="m 391.36,301.046 -2.842,0 c -1.535,0 -2.78,1.248 -2.78,2.781 0,1.537 1.245,2.781 2.78,2.781 l 2.842,0 1.525,-1.416 0,-5.398 -1.525,1.252 z"
               id="path74" />
          </g>
          <path
             style="fill:#f6f6f6"
             inkscape:connector-curvature="0"
             d="m 386.444,305.675 c 0,0 0.689,0.844 1.964,0.934 l 0.109,0.578 -0.406,0.254 c 0,0 -1.353,-0.258 -1.934,-0.969 l -0.138,-0.568 0.405,-0.229 z"
             id="path76" />
          <path
             style="fill:#f39200"
             inkscape:connector-curvature="0"
             d="m 388.681,305.325 c -0.732,0 -1.327,-0.594 -1.327,-1.33 0,-0.73 0.595,-1.324 1.327,-1.324 0.733,0 1.328,0.594 1.328,1.324 0,0.736 -0.595,1.33 -1.328,1.33 z"
             id="path78" />
        </g>
        <g
           id="g80">
          <path
             inkscape:connector-curvature="0"
             d="m 394.778,299.776 c 1.061,0 1.921,-0.869 1.921,-1.938 0,-1.072 -0.86,-1.938 -1.921,-1.938 -0.213,0 -0.608,0.188 -0.608,0.188 l -5.403,1.207 c -0.277,0.08 -0.537,0.242 -0.537,0.543 0,0.297 0.243,0.449 0.537,0.539 l 5.403,1.293 c 0,10e-4 0.395,0.106 0.608,0.106 z"
             id="path82" />
          <path
             inkscape:connector-curvature="0"
             d="m 394.778,297.118 c 1.061,0 1.921,-0.867 1.921,-1.938 0,-1.071 -0.86,-1.938 -1.921,-1.938 -0.213,0 -0.608,0.1 -0.608,0.1 l -5.403,1.297 c -0.277,0.078 -0.537,0.244 -0.537,0.541 0,0.299 0.243,0.451 0.537,0.541 l 5.403,1.297 c 0,0.001 0.395,0.1 0.608,0.1 z"
             id="path84" />
          <path
             inkscape:connector-curvature="0"
             d="m 394.778,294.462 c 1.061,0 1.921,-0.869 1.921,-1.938 0,-1.07 -0.86,-1.938 -1.921,-1.938 -0.213,0 -0.608,0.102 -0.608,0.102 l -5.403,1.295 c -0.277,0.078 -0.537,0.242 -0.537,0.541 0,0.297 0.243,0.451 0.537,0.539 l 5.403,1.297 c 0,0 0.395,0.102 0.608,0.102 z"
             id="path86" />
        </g>
        <g
           id="g88">
          <path
             inkscape:connector-curvature="0"
             d="m 378.491,290.437 c 0,-1.061 -0.867,-1.92 -1.936,-1.92 -1.071,0 -1.939,0.859 -1.939,1.92 0,0.213 0.189,0.607 0.189,0.607 l 1.207,5.406 c 0.08,0.275 0.243,0.535 0.543,0.535 0.297,0 0.45,-0.242 0.539,-0.535 l 1.294,-5.406 c 0.001,0 0.103,-0.395 0.103,-0.607 z"
             id="path90" />
          <path
             inkscape:connector-curvature="0"
             d="m 375.835,290.437 c 0,-1.061 -0.868,-1.92 -1.938,-1.92 -1.069,0 -1.938,0.859 -1.938,1.92 0,0.213 0.101,0.607 0.101,0.607 l 1.298,5.406 c 0.078,0.275 0.243,0.535 0.539,0.535 0.299,0 0.452,-0.242 0.543,-0.535 l 1.295,-5.406 c -0.001,0 0.1,-0.395 0.1,-0.607 z"
             id="path92" />
          <path
             inkscape:connector-curvature="0"
             d="m 373.179,290.437 c 0,-1.061 -0.868,-1.92 -1.938,-1.92 -1.071,0 -1.939,0.859 -1.939,1.92 0,0.213 0.104,0.607 0.104,0.607 l 1.295,5.406 c 0.079,0.275 0.241,0.535 0.541,0.535 0.298,0 0.451,-0.242 0.539,-0.535 l 1.297,-5.406 c -10e-4,0 0.101,-0.395 0.101,-0.607 z"
             id="path94" />
        </g>
      </g>
      <path
         style="fill:#ffffff"
         inkscape:connector-curvature="0"
         d="m 387.895,282.597 c 0,0 2.451,3.49 6.623,1.391 -2.504,-3.503 -6.623,-1.391 -6.623,-1.391 z"
         id="path96" />
      <g
         id="g98">
        <path
           style="fill:#ffffff"
           inkscape:connector-curvature="0"
           d="m 400.027,307.073 c 0,0 -9.708,9.225 -21.818,2.703 -12.745,-6.863 -21.074,-2.854 -18.854,2.58 0.376,0.918 1.123,1.738 1.978,2.672 3.458,3.779 9.501,7.518 16.945,7.539 8.382,0.024 17.506,-4.951 21.749,-15.494 z"
           id="path100" />
        <path
           inkscape:connector-curvature="0"
           d="m 399.728,308.573 c 0,0 -9.965,8.154 -22.394,1.633 -13.082,-6.863 -21.632,-2.854 -19.354,2.58 0.387,0.918 1.153,1.738 2.03,2.672 3.549,3.779 9.752,7.518 17.393,7.539 8.605,0.022 16.606,-4.203 22.325,-14.424 z"
           id="path102" />
        <g
           id="g104">
          <path
             style="fill:#cccccc"
             inkscape:connector-curvature="0"
             d="m 376.684,319.856 c -12.116,0 -21.938,-9.822 -21.938,-21.938 l -3.987,0 c 0,14.336 11.621,25.41 25.957,25.41 l -0.032,-3.472 z"
             id="path106" />
        </g>
        <g
           id="g108">
          <path
             style="fill:#cccccc"
             inkscape:connector-curvature="0"
             d="m 376.749,319.856 c 12.114,0 19.095,-7.506 24.071,-12.84 -3.705,9.662 -12.996,16.312 -24.104,16.312 l -0.308,-3.477 0.341,0.005 z"
             id="path110" />
        </g>
      </g>
    </g>
  </g>
</svg>
