<?xml version="1.0" encoding="UTF-8" standalone="no"?>
<!-- Created with Inkscape (http://www.inkscape.org/) -->

<svg
   xmlns:dc="http://purl.org/dc/elements/1.1/"
   xmlns:cc="http://creativecommons.org/ns#"
   xmlns:rdf="http://www.w3.org/1999/02/22-rdf-syntax-ns#"
   xmlns:svg="http://www.w3.org/2000/svg"
   xmlns="http://www.w3.org/2000/svg"
   xmlns:sodipodi="http://sodipodi.sourceforge.net/DTD/sodipodi-0.dtd"
   xmlns:inkscape="http://www.inkscape.org/namespaces/inkscape"
   width="64"
   height="24"
   id="svg3012"
   version="1.1"
   inkscape:version="0.48.5 r10040"
   sodipodi:docname="melis-text.svg">
  <defs
     id="defs3014" />
  <sodipodi:namedview
     id="base"
     pagecolor="#ffffff"
     bordercolor="#666666"
     borderopacity="1.0"
     inkscape:pageopacity="0.0"
     inkscape:pageshadow="2"
     inkscape:zoom="5.5"
     inkscape:cx="32"
     inkscape:cy="32"
     inkscape:current-layer="layer1"
     showgrid="true"
     inkscape:document-units="px"
     inkscape:grid-bbox="true"
     inkscape:window-width="791"
     inkscape:window-height="683"
     inkscape:window-x="585"
     inkscape:window-y="139"
     inkscape:window-maximized="0" />
  <metadata
     id="metadata3017">
    <rdf:RDF>
      <cc:Work
         rdf:about="">
        <dc:format>image/svg+xml</dc:format>
        <dc:type
           rdf:resource="http://purl.org/dc/dcmitype/StillImage" />
        <dc:title></dc:title>
      </cc:Work>
    </rdf:RDF>
  </metadata>
  <g
     id="layer1"
     inkscape:label="Layer 1"
     inkscape:groupmode="layer"
     transform="translate(0,-40)">
    <g
       id="g18"
       transform="matrix(0.75346235,0,0,0.75346235,-307.55341,-172.15893)">
      <path
         d="m 429.706,285.575 h 4.978 l 1.348,24.891 h -4.342 l -0.936,-17.143 c -0.037,0 -0.075,0 -0.075,0 l -5.764,14.373 h -3.443 l -5.615,-14.225 c 0,0 -0.037,0 -0.074,0 l -0.937,16.994 h -4.342 l 1.423,-24.891 h 5.091 l 6.213,16.281 c 0,0 0.037,0 0.075,0 l 6.4,-16.28 z"
         id="path20"
         inkscape:connector-curvature="0"
         style="fill:#f39200" />
      <path
         d="m 454.187,296.28 c 0,5.764 -7.149,6.512 -10.593,6.549 0.149,2.434 1.534,4.791 4.716,4.791 2.208,0 3.818,-1.01 4.716,-1.646 l 1.386,2.957 c -0.6,0.523 -3.069,2.096 -6.588,2.096 -6.176,0 -8.722,-3.967 -8.722,-9.582 0,-5.502 3.182,-10.367 9.133,-10.367 3.668,-10e-4 5.952,1.87 5.952,5.202 z m -6.214,-2.021 c -2.994,0 -4.417,2.92 -4.529,5.689 2.021,0.037 6.775,-0.6 6.775,-3.482 0,-1.385 -0.899,-2.207 -2.246,-2.207 z"
         id="path22"
         inkscape:connector-curvature="0"
         style="fill:#f39200" />
      <path
         d="m 461.822,284.489 v 19.838 c 0,2.32 0.487,3.182 2.021,3.182 0.749,0 1.572,-0.262 2.358,-0.6 l 0.973,2.994 c -1.01,0.637 -2.845,1.123 -4.454,1.123 -5.053,0 -5.353,-2.957 -5.353,-5.764 v -20.773 h 4.455 z"
         id="path24"
         inkscape:connector-curvature="0"
         style="fill:#f39200" />
      <path
         d="m 471.742,283.741 c 1.534,0 2.583,1.123 2.583,2.508 0,1.422 -1.086,2.469 -2.583,2.469 -1.572,0 -2.583,-1.047 -2.583,-2.469 0,-1.385 1.048,-2.508 2.583,-2.508 z m -2.208,26.725 v -18.828 h 4.454 v 18.828 h -4.454 z"
         id="path26"
         inkscape:connector-curvature="0"
         style="fill:#f39200" />
      <path
         d="m 478.292,305.937 c 1.235,0.785 3.443,1.797 5.353,1.797 1.572,0 2.845,-0.711 2.845,-2.396 0,-1.684 -1.422,-2.207 -3.182,-2.732 -2.732,-0.785 -5.802,-1.684 -5.802,-5.576 0,-3.892 3.22,-5.951 6.85,-5.951 2.808,0 5.24,1.123 6.775,2.656 l -2.134,2.621 c -1.422,-1.236 -2.994,-2.021 -4.566,-2.021 -1.348,0 -2.62,0.674 -2.62,2.172 0,1.721 1.572,2.207 3.331,2.732 2.732,0.859 5.765,1.945 5.765,5.801 0,3.893 -2.882,5.988 -7.074,5.988 -3.219,0 -5.877,-1.16 -6.85,-1.908 l 1.309,-3.183 z"
         id="path28"
         inkscape:connector-curvature="0"
         style="fill:#f39200" />
    </g>
  </g>
</svg>
