<?xml version="1.0" encoding="utf-8"?>
<!-- Generator: Adobe Illustrator 17.0.2, SVG Export Plug-In . SVG Version: 6.00 Build 0)  -->
<!DOCTYPE svg PUBLIC "-//W3C//DTD SVG 1.1//EN" "http://www.w3.org/Graphics/SVG/1.1/DTD/svg11.dtd">
<svg version="1.1" id="Livello_1" xmlns="http://www.w3.org/2000/svg" xmlns:xlink="http://www.w3.org/1999/xlink" x="0px" y="0px"
	 width="100px" height="100px" viewBox="0 0 100 100" enable-background="new 0 0 100 100" xml:space="preserve">
<g>
	<path fill-rule="evenodd" clip-rule="evenodd" fill="#9D9E9F" d="M98.541,54.773c-7.485,0-19.253-5.123-23.207-7.757
		c-0.447-0.297-1.029-0.297-1.476,0c-3.289,2.194-11.997,6.105-19.143,7.354c-0.908-1.342-1.365-2.881-1.545-4.558
		c2.916-2.327,5.252-5.482,6.955-9.081c1.285-0.439,2.378-1.288,3.263-2.412c1.104-1.397,1.879-3.227,2.292-5.18
		c0.403-1.904,0.469-3.96,0.164-5.867c-0.222-1.386-0.643-2.702-1.277-3.846c-0.741-6.477-3.467-12.431-7.184-16.601
		c-0.91-1.053-1.979-2.063-3.161-2.991C51.786,2.074,47.611,0,41.454,0c-6.402,0-10.756,2.315-13.221,4.173
		c-0.058,0.047-0.12,0.094-0.175,0.14c-5.044,4.21-9.269,10.984-9.793,18.034c-0.034,0.471-0.019,0.879,0.031,1.221
		c-0.591,1.109-0.986,2.374-1.199,3.702c-0.305,1.907-0.239,3.963,0.164,5.866c0.414,1.955,1.189,3.784,2.292,5.182
		c0.887,1.123,1.978,1.972,3.264,2.412c1.703,3.6,4.038,6.754,6.956,9.081c-0.374,3.484-1.93,6.377-6.279,8.13
		c-9.89,3.986-23.798,5.102-23.489,17.058C0.072,77.58,1.148,80,2.794,83h53.779c0.659,1.128,1.319,2.174,1.96,3.115
		c4.611,6.764,10.75,12.184,15.642,13.816C74.31,99.977,74.456,100,74.596,100h0.002c0.143,0,0.283-0.023,0.421-0.069
		c4.892-1.632,11.033-7.056,15.642-13.816c4.201-6.164,9.21-16.371,9.21-30.012C99.871,55.369,99.276,54.773,98.541,54.773z
		 M24.602,38.801c-4.458-0.746-6.612-8.683-4.537-13.265c0.917-2.026,2.145-2.634,3.36-0.441c1.138,2.055,1.145,5.236,1.166,5.719
		c0.13,3.147,3.508,4.243,2.717,2.061c-0.763-2.108-1.745-5.381-1.939-9.543c0.089-3.044,0.87-6.223,2.141-9.167
		c1.419-2.095,2.994-3.085,7.086-1.985c2.088,0.561,4.609,0.889,7.325,0.889c2.729,0,5.261-0.33,7.353-0.896
		c3.748-1.013,4.714-0.035,6.227,2.042l0.085,0.118c1.117,2.61,1.847,5.396,2.046,8.105c-0.023,0.154-0.037,0.301-0.041,0.443
		c-0.139,4.377-1.164,7.812-1.956,9.995c-0.791,2.182,2.695,1.089,2.717-2.061c0.004-0.439,0.154-3.028,0.93-5.109
		c0.996-2.676,2.541-2.861,3.668,0.033c1.873,4.803-0.212,12.326-4.608,13.062c-3.15,7.176-8.935,12.556-16.87,12.556
		C33.536,51.357,27.751,45.977,24.602,38.801z M41.605,77.467c-6.598-2.687-14.751-7.329-15.854-17.224
		c3.559-1.285,5.627-4.675,6.745-8.599c2.645,1.468,5.646,2.305,8.976,2.305c3.426,0,6.506-0.888,9.206-2.438
		c0.316,1.136,0.74,2.203,1.228,3.212c-0.427,0.029-0.848,0.05-1.252,0.05c-0.733,0-1.33,0.596-1.33,1.33
		c0,5.783,0.905,10.941,2.262,15.444C48.584,74.282,44.907,76.122,41.605,77.467z M88.461,84.621
		c-4.705,6.903-10.259,11.253-13.865,12.639c-3.606-1.386-9.16-5.739-13.865-12.639c-3.858-5.659-8.43-14.908-8.732-27.229
		c4.331-0.272,9.155-1.764,12.584-3.032c3.772-1.398,7.578-3.174,10.013-4.659c2.434,1.485,6.24,3.262,10.012,4.659
		c3.427,1.271,8.254,2.76,12.584,3.032C96.891,69.713,92.319,78.962,88.461,84.621z"/>
	<polygon fill-rule="evenodd" clip-rule="evenodd" fill="#9D9E9F" points="71.936,80.048 71.933,80.047 71.931,80.048 	"/>
	<path fill-rule="evenodd" clip-rule="evenodd" fill="#9D9E9F" d="M71.933,76.837l-4.377-4.379c-0.52-0.518-1.364-0.518-1.881,0
		c-0.52,0.518-0.52,1.363,0,1.881l5.321,5.321c0.259,0.258,0.598,0.387,0.938,0.388c0.339-0.001,0.679-0.128,0.938-0.388
		l13.301-13.301c0.52-0.518,0.52-1.363,0-1.881c-0.517-0.518-1.361-0.518-1.881,0L71.933,76.837z"/>
</g>
</svg>
