<?xml version="1.0" encoding="utf-8"?>
<!-- Generator: Adobe Illustrator 17.0.2, SVG Export Plug-In . SVG Version: 6.00 Build 0)  -->
<!DOCTYPE svg PUBLIC "-//W3C//DTD SVG 1.1//EN" "http://www.w3.org/Graphics/SVG/1.1/DTD/svg11.dtd">
<svg version="1.1" id="Livello_1" xmlns="http://www.w3.org/2000/svg" xmlns:xlink="http://www.w3.org/1999/xlink" x="0px" y="0px"
	 width="100px" height="100px" viewBox="0 0 100 100" enable-background="new 0 0 100 100" xml:space="preserve">
<g>
	<path fill-rule="evenodd" clip-rule="evenodd" fill="#9D9E9F" d="M98.541,56.651c-0.419,0-0.852-0.018-1.298-0.052
		c0.17-0.729,0.392-1.706,0.407-2.294c0.212-8.2-9.326-8.923-16.109-11.657c-2.982-1.202-4.05-3.282-4.305-5.672
		c2-1.596,3.602-3.807,4.77-6.276c0.881-0.301,1.631-0.907,2.238-1.678c0.757-0.958,1.289-2.225,1.572-3.565
		c0.276-1.306,0.322-2.722,0.112-4.03c-0.152-0.95-0.441-1.856-0.876-2.64c-0.508-4.442-2.378-8.527-4.927-11.387
		c-0.624-0.722-1.358-1.416-2.168-2.052c-1.671-1.207-4.535-2.63-8.757-2.63c-4.391,0-7.377,1.588-9.067,2.862
		c-0.04,0.032-0.078,0.069-0.12,0.096c-2.78,1.762-4.994,5.806-6.29,8.939c-1.418-0.37-3.05-0.607-4.909-0.607
		c-1.95,0-3.659,0.27-5.142,0.684c-0.961-2.408-2.478-5.466-4.317-7.294c-0.677-0.673-1.358-1.415-2.168-2.051
		c-1.671-1.207-4.535-2.629-8.757-2.629c-4.391,0-7.377,1.588-9.067,2.862c-0.04,0.032-0.082,0.064-0.12,0.096
		c-3.459,2.887-6.357,7.533-6.716,12.368c-0.024,0.323-0.013,0.603,0.021,0.838c-0.405,0.761-0.676,1.628-0.822,2.539
		c-0.209,1.308-0.164,2.718,0.112,4.023c0.284,1.341,0.816,2.595,1.572,3.554c0.608,0.771,1.357,1.353,2.239,1.654
		c1.168,2.469,2.77,4.632,4.771,6.228c-0.256,2.389-1.323,4.374-4.306,5.576C9.33,45.19-0.208,46.134,0.003,54.334
		C0.049,56.104,0.788,59,1.916,60H33.97c0.156,0,0.312-0.318,0.466-0.38c3.073-1.239,4.402-3.313,4.877-5.652
		c0.051,0.041,0.098-0.016,0.149,0.024c-0.299,2.789-1.545,5.054-5.027,6.457C26.517,63.64,15.383,64.778,15.63,74.35
		c0.053,2.067,0.915,3.65,2.233,6.65h42.628c0.711,1,1.43,2.592,2.124,3.61c4.141,6.074,9.653,10.902,14.046,12.367
		C76.782,97.018,76.913,97,77.039,97h0.002c0.128,0,0.254,0.111,0.378,0.071c4.393-1.465,9.908-6.27,14.047-12.34
		c3.772-5.535,8.27-14.668,8.27-26.918C99.736,57.154,99.202,56.651,98.541,56.651z M80.177,44.03
		c-0.319,2.812-1.314,4.575-2.326,5.749c-0.046-0.03-0.104-0.064-0.149-0.093c-0.401-0.267-0.924-0.267-1.325,0
		c-1.911,1.275-5.866,3.195-10.156,4.699c-1.76-0.957-3.486-2.165-4.874-3.754c0.928-1.223,1.735-2.573,2.416-4.012
		c1.029-0.352,1.904-1.031,2.613-1.931c0.884-1.119,1.504-2.584,1.835-4.147c0.061-0.287,0.102-0.581,0.144-0.874
		c0.283,0.024,0.565,0.051,0.857,0.051c2.35,0,4.462-0.608,6.314-1.671C76.286,40.776,77.709,43.14,80.177,44.03z M58.758,56.36
		c-0.252-0.707-0.483-1.602-0.563-2.351c0.046-0.037,0.089,0.054,0.135,0.017c0.144,0.742,0.443,1.601,0.794,2.274
		C59.001,56.32,58.879,56.34,58.758,56.36z M59.637,12.435c0.973-1.437,2.053-2.116,4.86-1.362c1.432,0.385,3.161,0.609,5.023,0.609
		c1.871,0,3.608-0.226,5.043-0.615c2.57-0.695,3.233-0.024,4.271,1.4l0.058,0.081c0.766,1.79,1.267,3.701,1.403,5.558
		c-0.016,0.105-0.025,0.207-0.028,0.304c-0.095,3.002-0.799,5.358-1.341,6.855c-0.543,1.496,1.848,0.747,1.863-1.413
		c0.003-0.301,0.106-2.077,0.638-3.504c0.683-1.835,1.742-1.962,2.516,0.023c1.284,3.294-0.145,8.454-3.16,8.958
		c-2.161,4.922-6.128,8.611-11.57,8.611c-0.247,0-0.487-0.015-0.727-0.031c0.005-0.698-0.035-1.395-0.142-2.067
		c-0.178-1.109-0.515-2.163-1.022-3.079c-0.593-5.186-2.776-9.952-5.752-13.291c-0.729-0.843-1.585-1.652-2.531-2.395
		c-0.325-0.235-0.703-0.475-1.106-0.715C58.289,15.117,58.851,13.533,59.637,12.435z M16.873,29.33
		c-3.058-0.512-4.535-5.955-3.112-9.097c0.629-1.389,1.471-1.807,2.304-0.302c0.78,1.41,0.785,3.591,0.799,3.922
		c0.089,2.158,2.406,2.91,1.863,1.413c-0.523-1.446-1.197-3.69-1.33-6.544c0.061-2.088,0.596-4.268,1.468-6.287
		c0.973-1.437,2.053-2.116,4.86-1.362c1.432,0.385,3.161,0.609,5.023,0.609c1.871,0,3.608-0.226,5.043-0.615
		c2.57-0.695,3.233-0.024,4.271,1.4l0.058,0.081c0.847,1.358,1.344,2.71,1.657,3.784c-0.587,0.341-1.111,0.688-1.548,1.018
		c-0.046,0.037-0.096,0.075-0.14,0.112c-4.038,3.37-7.421,8.794-7.841,14.438c-0.028,0.377-0.016,0.704,0.024,0.978
		c-0.473,0.888-0.79,1.9-0.96,2.964c-0.108,0.673-0.148,1.369-0.143,2.067c-0.241,0.016-0.482,0.031-0.73,0.031
		C23,37.941,19.033,34.252,16.873,29.33z M28.533,55.811c-4.525-1.843-10.117-5.008-10.873-11.795
		c2.441-0.881,3.859-3.197,4.626-5.888c1.814,1.007,3.872,1.585,6.156,1.585c0.292,0,0.577-0.016,0.862-0.035
		c0.041,0.289,0.082,0.579,0.141,0.861c0.331,1.565,0.952,3.03,1.835,4.148c0.71,0.899,1.584,1.579,2.613,1.931
		c0.697,1.472,1.527,2.849,2.482,4.095C34.18,53.163,31.18,54.733,28.533,55.811z M35.323,45.074
		c-3.569-0.598-5.294-6.952-3.632-10.62c0.735-1.622,1.717-2.109,2.69-0.353c0.911,1.646,0.917,4.192,0.933,4.579
		c0.104,2.52,2.809,3.397,2.175,1.65c-0.611-1.688-1.397-4.308-1.552-7.64c0.071-2.437,0.696-4.982,1.714-7.34
		c1.136-1.677,2.397-2.47,5.673-1.589c1.672,0.449,3.69,0.711,5.864,0.711c2.185,0,4.212-0.264,5.887-0.718
		c3.001-0.811,3.775-0.028,4.986,1.635l0.068,0.095c0.895,2.089,1.479,4.32,1.638,6.489c-0.018,0.123-0.029,0.241-0.033,0.355
		c-0.111,3.505-0.932,6.255-1.566,8.002c-0.634,1.747,2.157,0.872,2.175-1.65c0.003-0.352,0.123-2.424,0.744-4.09
		c0.798-2.143,2.034-2.29,2.937,0.027c1.499,3.845-0.17,9.869-3.69,10.458c-2.522,5.745-7.153,10.053-13.506,10.053
		C42.476,55.127,37.844,50.82,35.323,45.074z M48.935,76.019c-5.283-2.152-11.81-5.862-12.693-13.784
		c2.85-1.029,4.505-3.74,5.4-6.882c2.118,1.175,4.52,1.847,7.187,1.847c2.743,0,5.209-0.71,7.37-1.951
		c0.093,0.334,0.286,0.933,0.431,1.359c-0.371,0.024-0.739,0.044-1.091,0.044c-0.658,0-1.194,0.535-1.194,1.194
		c0,5.208,0.817,9.852,2.042,13.903C54.091,73.681,51.383,75.022,48.935,76.019z M89.49,83.455
		c-4.225,6.198-9.213,10.105-12.451,11.35c-3.238-1.245-8.226-5.153-12.451-11.35c-3.464-5.082-7.57-13.387-7.841-24.451
		c3.889-0.244,8.221-1.584,11.301-2.723c3.387-1.255,6.805-2.851,8.991-4.184c2.186,1.333,5.604,2.929,8.991,4.184
		c3.077,1.141,7.412,2.479,11.301,2.723C97.06,70.068,92.954,78.373,89.49,83.455z"/>
	<path fill-rule="evenodd" clip-rule="evenodd" fill="#9D9E9F" d="M74.648,76.465l-3.931-3.932c-0.467-0.465-1.225-0.465-1.689,0
		c-0.467,0.466-0.467,1.224,0,1.689l4.778,4.778c0.233,0.231,0.537,0.348,0.842,0.348c0.305-0.001,0.61-0.115,0.842-0.348
		l11.945-11.944c0.467-0.465,0.467-1.224,0-1.689c-0.464-0.465-1.222-0.465-1.689,0L74.648,76.465z"/>
	<polygon fill-rule="evenodd" clip-rule="evenodd" fill="#9D9E9F" points="74.65,79.348 74.648,79.348 74.646,79.348 	"/>
</g>
</svg>
