<?xml version="1.0" encoding="utf-8"?>
<!-- Generator: Adobe Illustrator 17.0.2, SVG Export Plug-In . SVG Version: 6.00 Build 0)  -->
<!DOCTYPE svg PUBLIC "-//W3C//DTD SVG 1.1//EN" "http://www.w3.org/Graphics/SVG/1.1/DTD/svg11.dtd">
<svg version="1.1" id="Livello_1" xmlns="http://www.w3.org/2000/svg" xmlns:xlink="http://www.w3.org/1999/xlink" x="0px" y="0px"
	 width="100px" height="100px" viewBox="0 0 100 100" enable-background="new 0 0 100 100" xml:space="preserve">
<path fill-rule="evenodd" clip-rule="evenodd" fill="#9D9E9F" d="M71.674,69.857c-5.243-2.113-7.119-5.601-7.568-9.802
	c3.516-2.805,6.332-6.609,8.386-10.949c1.55-0.53,2.867-1.553,3.935-2.908c1.331-1.685,2.265-3.891,2.764-6.246
	c0.485-2.296,0.566-4.774,0.198-7.073c-0.268-1.671-0.775-3.258-1.539-4.636c-0.893-7.809-4.18-14.987-8.662-20.015
	c-1.098-1.27-2.387-2.487-3.812-3.606C62.437,2.501,57.403,0,49.98,0c-7.719,0-12.968,2.792-15.94,5.031
	c-0.07,0.056-0.144,0.113-0.211,0.169c-6.081,5.075-11.176,13.243-11.807,21.743c-0.042,0.567-0.024,1.06,0.037,1.472
	c-0.712,1.338-1.189,2.862-1.445,4.464c-0.368,2.3-0.288,4.778,0.197,7.072c0.499,2.357,1.434,4.563,2.763,6.247
	c1.069,1.354,2.385,2.378,3.935,2.908c2.054,4.34,4.869,8.143,8.387,10.949c-0.45,4.2-2.326,7.689-7.57,9.802
	C16.402,74.663-0.366,75.973,0.006,90.389c0.08,3.112,1.378,6.387,3.362,9.611h93.264c1.984-3.224,3.282-6.499,3.361-9.611
	C100.367,75.973,83.598,74.663,71.674,69.857z M29.662,46.781c-5.375-0.9-7.972-10.469-5.47-15.993
	c1.106-2.442,2.586-3.176,4.051-0.531c1.372,2.478,1.381,6.313,1.405,6.895c0.157,3.794,4.23,5.115,3.276,2.485
	c-0.92-2.542-2.104-6.487-2.338-11.505c0.107-3.67,1.048-7.503,2.581-11.053c1.71-2.526,3.61-3.719,8.544-2.394
	c2.517,0.677,5.557,1.071,8.831,1.071c3.29,0,6.343-0.398,8.866-1.081c4.519-1.221,5.684-0.042,7.508,2.462l0.102,0.142
	c1.347,3.147,2.227,6.506,2.467,9.772c-0.027,0.185-0.044,0.363-0.05,0.534c-0.167,5.278-1.404,9.419-2.358,12.051
	c-0.954,2.63,3.249,1.313,3.276-2.485c0.004-0.53,0.186-3.651,1.121-6.16c1.201-3.227,3.063-3.449,4.423,0.04
	c2.258,5.791-0.256,14.862-5.556,15.749C66.542,55.433,59.568,61.92,50,61.92C40.434,61.92,33.459,55.433,29.662,46.781z
	 M50.161,93.382c-7.955-3.24-17.785-8.827-19.115-20.758c4.291-1.549,6.785-5.632,8.132-10.363
	c3.189,1.769,6.807,2.781,10.822,2.781c4.131,0,7.844-1.07,11.099-2.938c1.337,4.799,3.838,8.955,8.176,10.52
	C67.946,84.555,58.116,90.142,50.161,93.382z"/>
</svg>
