<?xml version="1.0" encoding="utf-8"?>
<!-- Generator: Adobe Illustrator 17.0.2, SVG Export Plug-In . SVG Version: 6.00 Build 0)  -->
<!DOCTYPE svg PUBLIC "-//W3C//DTD SVG 1.1//EN" "http://www.w3.org/Graphics/SVG/1.1/DTD/svg11.dtd">
<svg version="1.1" id="Livello_1" xmlns="http://www.w3.org/2000/svg" xmlns:xlink="http://www.w3.org/1999/xlink" x="0px" y="0px"
	 width="100px" height="100px" viewBox="0 0 100 100" enable-background="new 0 0 100 100" xml:space="preserve">
<path fill="#9D9E9F" d="M64.739,68.034C64.896,68.097,65.056,68,65.216,68h32.822c1.156-1,1.912-3.566,1.958-5.379
	c0.217-8.397-9.55-8.941-16.496-11.74c-3.054-1.231-4.147-3.263-4.408-5.71c2.048-1.634,3.689-3.85,4.885-6.378
	c0.903-0.308,1.67-0.905,2.292-1.694c0.775-0.981,1.32-2.266,1.61-3.638c0.283-1.337,0.329-2.781,0.115-4.12
	c-0.156-0.973-0.451-1.898-0.897-2.701c-0.52-4.549-2.435-8.73-5.045-11.659c-0.639-0.74-1.39-1.449-2.22-2.101
	c-1.711-1.236-4.644-2.693-8.968-2.693c-4.496,0-7.554,1.626-9.285,2.931c-0.041,0.033-0.08,0.071-0.123,0.098
	c-2.847,1.805-5.114,5.946-6.441,9.153c-1.452-0.379-3.124-0.621-5.027-0.621c-1.997,0-3.747,0.277-5.265,0.701
	c-0.984-2.466-2.537-5.597-4.421-7.469c-0.694-0.689-1.39-1.449-2.22-2.101c-1.711-1.236-4.644-2.693-8.968-2.693
	c-4.496,0-7.554,1.626-9.285,2.931c-0.041,0.033-0.084,0.066-0.123,0.098c-3.542,2.956-6.51,7.714-6.878,12.665
	c-0.024,0.33-0.014,0.617,0.021,0.858c-0.415,0.779-0.693,1.667-0.842,2.6c-0.214,1.34-0.168,2.783,0.115,4.12
	c0.29,1.373,0.835,2.658,1.609,3.639c0.623,0.789,1.389,1.385,2.292,1.694c1.196,2.528,2.836,4.744,4.885,6.378
	c-0.262,2.447-1.355,4.479-4.41,5.71C9.553,53.68-0.214,54.224,0.003,62.621C0.049,64.434,0.806,67,1.961,68h32.824
	c0.159,0,0.32,0.097,0.477,0.034c3.147-1.268,4.507-3.181,4.995-5.576c0.052,0.042,0.101,0.089,0.153,0.131
	c-0.306,2.856-1.582,5.228-5.148,6.665c-8.108,3.268-19.51,4.284-19.257,14.086c0.054,2.116,0.937,4.66,2.286,6.66h63.42
	c1.349-2,2.232-4.544,2.286-6.661c0.253-9.803-11.149-10.756-19.258-14.024c-3.565-1.437-4.841-3.84-5.146-6.697
	c0.047-0.038,0.091-0.095,0.138-0.134C60.201,64.905,61.553,66.749,64.739,68.034z M82.102,52.492
	c-0.775,6.95-6.5,10.204-11.134,12.092c-2.759-1.124-5.89-2.748-8.148-5.333c0.951-1.253,1.777-2.635,2.474-4.109
	c1.054-0.36,1.95-1.056,2.675-1.977c0.905-1.146,1.54-2.646,1.88-4.247c0.062-0.293,0.105-0.594,0.147-0.895
	c0.29,0.025,0.578,0.052,0.878,0.052c2.406,0,4.569-0.623,6.465-1.711C78.118,49.159,79.575,51.58,82.102,52.492z M61.069,20.138
	c0.996-1.471,2.103-2.166,4.977-1.394c1.466,0.394,3.237,0.624,5.144,0.624c1.916,0,3.695-0.232,5.164-0.629
	c2.632-0.711,3.311-0.025,4.373,1.434l0.059,0.083c0.785,1.833,1.297,3.79,1.437,5.692c-0.016,0.108-0.026,0.212-0.029,0.311
	c-0.097,3.074-0.818,5.487-1.373,7.02c-0.556,1.532,1.892,0.765,1.908-1.448c0.003-0.308,0.108-2.126,0.653-3.588
	c0.7-1.88,1.784-2.009,2.576,0.023c1.315,3.373-0.149,8.657-3.236,9.174c-2.213,5.04-6.275,8.818-11.848,8.818
	c-0.253,0-0.499-0.016-0.745-0.032c0.006-0.715-0.036-1.428-0.146-2.117c-0.182-1.136-0.527-2.215-1.047-3.153
	c-0.607-5.31-2.843-10.191-5.89-13.61c-0.746-0.864-1.623-1.691-2.592-2.452c-0.333-0.24-0.72-0.487-1.133-0.732
	C59.688,22.884,60.264,21.262,61.069,20.138z M17.277,37.439c-3.131-0.524-4.644-6.098-3.186-9.316
	c0.644-1.422,1.506-1.85,2.36-0.31c0.799,1.443,0.804,3.677,0.819,4.017c0.091,2.21,2.464,2.98,1.908,1.448
	c-0.536-1.481-1.226-3.779-1.362-6.702c0.062-2.138,0.611-4.37,1.503-6.438c0.996-1.471,2.103-2.166,4.977-1.394
	c1.466,0.394,3.237,0.624,5.144,0.624c1.916,0,3.695-0.232,5.164-0.629c2.632-0.711,3.311-0.025,4.373,1.434l0.059,0.083
	c0.867,1.391,1.376,2.775,1.696,3.874c-0.601,0.35-1.138,0.705-1.586,1.042c-0.047,0.038-0.098,0.077-0.143,0.115
	c-4.135,3.451-7.599,9.005-8.029,14.785c-0.028,0.386-0.016,0.721,0.025,1.001c-0.484,0.91-0.809,1.946-0.983,3.035
	c-0.11,0.689-0.152,1.402-0.146,2.117c-0.247,0.016-0.494,0.032-0.747,0.032C23.552,46.257,19.489,42.479,17.277,37.439z
	 M29.218,64.556c-4.634-1.887-10.36-5.128-11.135-12.078c2.5-0.902,3.952-3.274,4.737-6.03c1.857,1.031,3.965,1.623,6.304,1.623
	c0.299,0,0.591-0.017,0.883-0.036c0.042,0.296,0.084,0.593,0.145,0.882c0.339,1.602,0.975,3.103,1.879,4.248
	c0.727,0.921,1.622,1.617,2.676,1.977c0.713,1.508,1.564,2.918,2.542,4.193C35,61.844,31.928,63.452,29.218,64.556z M63.109,71.134
	c-0.904,8.113-7.588,11.912-12.998,14.116c-5.409-2.203-12.094-6.002-12.998-14.116c2.918-1.053,4.614-3.83,5.53-7.047
	c2.168,1.203,4.629,1.891,7.359,1.891c2.809,0,5.334-0.727,7.547-1.998C58.458,67.244,60.159,70.07,63.109,71.134z M50.001,63.856
	c-6.505,0-11.248-4.411-13.83-10.294c-3.655-0.612-5.421-7.119-3.72-10.875c0.752-1.661,1.758-2.16,2.755-0.361
	c0.933,1.685,0.939,4.293,0.956,4.689c0.107,2.58,2.876,3.479,2.228,1.69c-0.625-1.729-1.431-4.411-1.59-7.823
	c0.073-2.496,0.713-5.102,1.755-7.516c1.163-1.718,2.455-2.529,5.81-1.628c1.712,0.46,3.779,0.728,6.005,0.728
	c2.237,0,4.313-0.271,6.029-0.735c3.073-0.83,3.865-0.029,5.105,1.674l0.069,0.097c0.916,2.14,1.514,4.424,1.678,6.645
	c-0.019,0.126-0.03,0.247-0.034,0.363c-0.114,3.589-0.955,6.405-1.603,8.195c-0.649,1.789,2.209,0.893,2.227-1.69
	c0.003-0.36,0.126-2.482,0.762-4.189c0.817-2.194,2.083-2.345,3.008,0.027c1.535,3.938-0.174,10.106-3.778,10.709
	C61.25,59.445,56.507,63.856,50.001,63.856z"/>
</svg>
