<?xml version="1.0" encoding="utf-8"?>
<!-- Generator: Adobe Illustrator 17.0.2, SVG Export Plug-In . SVG Version: 6.00 Build 0)  -->
<!DOCTYPE svg PUBLIC "-//W3C//DTD SVG 1.1//EN" "http://www.w3.org/Graphics/SVG/1.1/DTD/svg11.dtd">
<svg version="1.1" id="Livello_1" xmlns="http://www.w3.org/2000/svg" xmlns:xlink="http://www.w3.org/1999/xlink" x="0px" y="0px"
	 width="48.4px" height="48.5px" viewBox="0 0 48.4 48.5" enable-background="new 0 0 48.4 48.5" xml:space="preserve">
<g transform="translate(440 480)">
	
		<path fill="#9E9E9F" stroke="#FFFFFF" stroke-width="0.9503" stroke-linecap="round" stroke-linejoin="round" stroke-miterlimit="10" d="
		M-408.1-469.8l-8.6-8.6c-0.2-0.2-0.4-0.3-0.7-0.3h-18.1c-1.6,0-2.9,1.3-2.9,2.9v37.4c0,1.6,1.3,2.9,2.9,2.9h24.7
		c1.6,0,2.9-1.3,2.9-2.9v-30.8C-407.8-469.4-407.9-469.6-408.1-469.8z M-410.1-469.1h-6.3c-0.5,0-1-0.4-1-1v-6.3L-410.1-469.1z
		 M-409.7-438.4c0,0.5-0.4,1-1,1h-24.7c-0.5,0-1-0.4-1-1v-37.4c0-0.5,0.4-1,1-1h16.2v6.7c0,1.6,1.3,2.9,2.9,2.9h6.7v28.8H-409.7z"/>
</g>
<g>
	<polygon fill="#FFFFFF" points="22.9,18.6 38.7,14.7 45.5,39.8 29.7,43.7 	"/>
	<g>
		
			<path fill="#9E9E9F" stroke="#FFFFFF" stroke-width="0.4944" stroke-linecap="round" stroke-linejoin="round" stroke-miterlimit="10" d="
			M42.9,27.7c1.1,4.4,2.3,8.9,3.4,13.2c0.4,1.6-0.4,2.9-2,3.3c-4.1,1-8.1,2-12.2,2.9c-1.6,0.4-3-0.4-3.4-2
			c-2.3-8.9-4.5-17.6-6.8-26.5c-0.4-1.6,0.4-2.9,2-3.3c4.1-1,8.1-2,12.2-2.9c1.6-0.4,3,0.4,3.4,2C40.7,18.8,41.8,23.3,42.9,27.7z
			 M44.1,39c-1.8-7-3.6-14.2-5.4-21.1c-4.8,1.2-9.5,2.3-14.2,3.5c1.8,7,3.6,14.1,5.4,21.1C34.7,41.2,39.3,40.2,44.1,39z M38.7,42.7
			c-0.2-0.7-0.8-1.1-1.6-1c-0.7,0.2-1.1,0.9-1,1.6c0.2,0.7,0.9,1.1,1.5,0.9C38.5,44.2,38.9,43.4,38.7,42.7z M30.9,16.9
			c-0.4,0.1-0.9,0.2-1.2,0.3c-0.1,0-0.4,0.1-0.3,0.4c0.1,0.3,0.3,0.2,0.5,0.2c0.9-0.2,1.6-0.4,2.5-0.6c0.1,0,0.3-0.2,0.3-0.4
			c-0.1-0.3-0.3-0.2-0.4-0.2C31.8,16.7,31.3,16.8,30.9,16.9z"/>
	</g>
</g>
<line fill="none" stroke="#9E9E9F" stroke-linecap="round" stroke-miterlimit="10" x1="6.1" y1="18.2" x2="19.1" y2="18.2"/>
<line fill="none" stroke="#9E9E9F" stroke-linecap="round" stroke-miterlimit="10" x1="6.1" y1="20.1" x2="14.6" y2="20.1"/>
<line fill="none" stroke="#9E9E9F" stroke-linecap="round" stroke-miterlimit="10" x1="6.1" y1="22" x2="20.5" y2="22"/>
<line fill="none" stroke="#9E9E9F" stroke-linecap="round" stroke-miterlimit="10" x1="6.1" y1="23.9" x2="17.1" y2="23.9"/>
<line fill="none" stroke="#9E9E9F" stroke-linecap="round" stroke-miterlimit="10" x1="6.1" y1="25.7" x2="20.1" y2="25.7"/>
<line fill="none" stroke="#9E9E9F" stroke-linecap="round" stroke-miterlimit="10" x1="6.1" y1="27.6" x2="11.8" y2="27.6"/>
<g transform="translate(400 1040)">
	<path fill="#9E9E9F" d="M-369-1004.7c-0.6,0.2-1.3-0.2-1.4-0.9c-0.2-0.6,0.2-1.3,0.9-1.4c0.6-0.2,1.3,0.2,1.4,0.9
		C-368-1005.5-368.4-1004.8-369-1004.7z M-369.4-1006.4c-0.3,0.1-0.5,0.4-0.4,0.7s0.4,0.5,0.7,0.4c0.3-0.1,0.5-0.4,0.4-0.7
		C-368.8-1006.3-369.1-1006.5-369.4-1006.4z"/>
	<path fill="#9E9E9F" d="M-366.2-1005.4c-0.6,0.2-1.3-0.2-1.4-0.9c-0.2-0.6,0.2-1.3,0.9-1.4c0.6-0.2,1.3,0.2,1.4,0.9
		C-365.2-1006.1-365.5-1005.5-366.2-1005.4z M-366.6-1007.1c-0.3,0.1-0.5,0.4-0.4,0.7c0.1,0.3,0.4,0.5,0.7,0.4
		c0.3-0.1,0.5-0.4,0.4-0.7C-365.9-1007-366.3-1007.1-366.6-1007.1z"/>
	<path fill="#9E9E9F" d="M-363.3-1006.1c-0.6,0.2-1.3-0.2-1.4-0.9c-0.2-0.6,0.2-1.3,0.9-1.4c0.6-0.2,1.3,0.2,1.4,0.9
		C-362.3-1006.8-362.7-1006.2-363.3-1006.1z M-363.7-1007.8c-0.3,0.1-0.5,0.4-0.4,0.7c0.1,0.3,0.4,0.5,0.7,0.4
		c0.3-0.1,0.5-0.4,0.4-0.7C-363.1-1007.6-363.4-1007.8-363.7-1007.8z"/>
	<path fill="#9E9E9F" d="M-368.3-1001.8c-0.6,0.2-1.3-0.2-1.4-0.9c-0.2-0.6,0.2-1.3,0.9-1.4c0.6-0.2,1.3,0.2,1.4,0.9
		C-367.3-1002.6-367.7-1002-368.3-1001.8z M-368.7-1003.5c-0.3,0.1-0.5,0.4-0.4,0.7c0.1,0.3,0.4,0.5,0.7,0.4
		c0.3-0.1,0.5-0.4,0.4-0.7C-368.1-1003.4-368.4-1003.6-368.7-1003.5z"/>
	<path fill="#9E9E9F" d="M-365.5-1002.5c-0.6,0.2-1.3-0.2-1.4-0.9c-0.2-0.6,0.2-1.3,0.9-1.4c0.6-0.2,1.3,0.2,1.4,0.9
		C-364.5-1003.3-364.9-1002.7-365.5-1002.5z M-365.9-1004.2c-0.3,0.1-0.5,0.4-0.4,0.7c0.1,0.3,0.4,0.5,0.7,0.4
		c0.3-0.1,0.5-0.4,0.4-0.7C-365.3-1004.1-365.6-1004.3-365.9-1004.2z"/>
	<path fill="#9E9E9F" d="M-362.6-1003.2c-0.6,0.2-1.3-0.2-1.4-0.9c-0.2-0.6,0.2-1.3,0.9-1.4c0.6-0.2,1.3,0.2,1.4,0.9
		C-361.6-1004-362-1003.4-362.6-1003.2z M-363.1-1004.9c-0.3,0.1-0.5,0.4-0.4,0.7c0.1,0.3,0.4,0.5,0.7,0.4c0.3-0.1,0.5-0.4,0.4-0.7
		C-362.4-1004.8-362.7-1005-363.1-1004.9z"/>
	<path fill="#9E9E9F" d="M-367.6-999c-0.6,0.2-1.3-0.2-1.4-0.9c-0.2-0.6,0.2-1.3,0.9-1.4c0.6-0.2,1.3,0.2,1.4,0.9
		C-366.6-999.8-367-999.2-367.6-999z M-368-1000.7c-0.3,0.1-0.5,0.4-0.4,0.7c0.1,0.3,0.4,0.5,0.7,0.4c0.3-0.1,0.5-0.4,0.4-0.7
		C-367.4-1000.6-367.7-1000.8-368-1000.7z"/>
	<path fill="#9E9E9F" d="M-364.8-999.7c-0.6,0.2-1.3-0.2-1.4-0.9c-0.2-0.6,0.2-1.3,0.9-1.4c0.6-0.2,1.3,0.2,1.4,0.9
		C-363.8-1000.5-364.2-999.8-364.8-999.7z M-365.2-1001.4c-0.3,0.1-0.5,0.4-0.4,0.7c0.1,0.3,0.4,0.5,0.7,0.4
		c0.3-0.1,0.5-0.4,0.4-0.7C-364.6-1001.3-364.9-1001.5-365.2-1001.4z"/>
	<path fill="#9E9E9F" d="M-362-1000.4c-0.6,0.2-1.3-0.2-1.4-0.9c-0.2-0.6,0.2-1.3,0.9-1.4c0.6-0.2,1.3,0.2,1.4,0.9
		C-360.9-1001.2-361.3-1000.5-362-1000.4z M-362.4-1002.1c-0.3,0.1-0.5,0.4-0.4,0.7c0.1,0.3,0.4,0.5,0.7,0.4
		c0.3-0.1,0.5-0.4,0.4-0.7C-361.7-1002-362.1-1002.2-362.4-1002.1z"/>
	<path fill="#9E9E9F" d="M-360.5-1006.7c-0.6,0.2-1.3-0.2-1.4-0.9c-0.2-0.6,0.2-1.3,0.9-1.4c0.6-0.2,1.3,0.2,1.4,0.9
		C-359.5-1007.5-359.9-1006.9-360.5-1006.7z M-360.9-1008.4c-0.3,0.1-0.5,0.4-0.4,0.7c0.1,0.3,0.4,0.5,0.7,0.4
		c0.3-0.1,0.5-0.4,0.4-0.7C-360.3-1008.3-360.6-1008.5-360.9-1008.4z"/>
	<path fill="#9E9E9F" d="M-359.8-1003.9c-0.6,0.2-1.3-0.2-1.4-0.9c-0.2-0.6,0.2-1.3,0.9-1.4c0.6-0.2,1.3,0.2,1.4,0.9
		C-358.8-1004.7-359.2-1004.1-359.8-1003.9z M-360.2-1005.6c-0.3,0.1-0.5,0.4-0.4,0.7c0.1,0.3,0.4,0.5,0.7,0.4
		c0.3-0.1,0.5-0.4,0.4-0.7C-359.6-1005.5-359.9-1005.7-360.2-1005.6z"/>
	<path fill="#9E9E9F" d="M-359.1-1001.1c-0.6,0.2-1.3-0.2-1.4-0.9c-0.2-0.6,0.2-1.3,0.9-1.4c0.6-0.2,1.3,0.2,1.4,0.9
		C-358.1-1001.9-358.5-1001.2-359.1-1001.1z M-359.5-1002.8c-0.3,0.1-0.5,0.4-0.4,0.7c0.1,0.3,0.4,0.5,0.7,0.4
		c0.3-0.1,0.5-0.4,0.4-0.7C-358.9-1002.7-359.2-1002.8-359.5-1002.8z"/>
</g>
<path fill="none" stroke="#9E9E9F" stroke-width="0.5138" stroke-miterlimit="10" d="M40.3,27.3c0.2,1-0.2,1.9-0.9,2.1l-9.7,2.5
	c-0.8,0.2-1.6-0.4-1.8-1.4L26.2,24c-0.2-1,0.2-1.9,0.9-2.1l9.7-2.5c0.8-0.2,1.6,0.4,1.8,1.4L40.3,27.3z"/>
<g>
	
		<line fill="none" stroke="#9E9E9F" stroke-width="0.6287" stroke-linecap="round" stroke-miterlimit="10" x1="27.7" y1="23.8" x2="35.7" y2="21.9"/>
	
		<line fill="none" stroke="#9E9E9F" stroke-width="0.6287" stroke-linecap="round" stroke-miterlimit="10" x1="28" y1="24.9" x2="33.2" y2="23.7"/>
	
		<line fill="none" stroke="#9E9E9F" stroke-width="0.6287" stroke-linecap="round" stroke-miterlimit="10" x1="28.3" y1="26.1" x2="37" y2="24"/>
	
		<line fill="none" stroke="#9E9E9F" stroke-width="0.6287" stroke-linecap="round" stroke-miterlimit="10" x1="28.5" y1="27.2" x2="35.3" y2="25.6"/>
	
		<line fill="none" stroke="#9E9E9F" stroke-width="0.6287" stroke-linecap="round" stroke-miterlimit="10" x1="28.8" y1="28.4" x2="37.4" y2="26.3"/>
	
		<line fill="none" stroke="#9E9E9F" stroke-width="0.6287" stroke-linecap="round" stroke-miterlimit="10" x1="29.1" y1="29.5" x2="32.5" y2="28.7"/>
</g>
<line fill="none" stroke="#9E9E9F" stroke-width="0.4623" stroke-linecap="round" stroke-miterlimit="10" x1="33.8" y1="29.8" x2="33.4" y2="27.9"/>
</svg>
