<?xml version="1.0" encoding="utf-8"?>
<!-- Generator: Adobe Illustrator 17.0.2, SVG Export Plug-In . SVG Version: 6.00 Build 0)  -->
<!DOCTYPE svg PUBLIC "-//W3C//DTD SVG 1.1//EN" "http://www.w3.org/Graphics/SVG/1.1/DTD/svg11.dtd">
<svg version="1.1" id="Livello_1" xmlns="http://www.w3.org/2000/svg" xmlns:xlink="http://www.w3.org/1999/xlink" x="0px" y="0px"
	 width="48.4px" height="48.5px" viewBox="0 0 48.4 48.5" enable-background="new 0 0 48.4 48.5" xml:space="preserve">
<g>
	<g>
		<path fill="#9E9E9F" stroke="#FFFFFF" stroke-width="0.5" stroke-miterlimit="10" d="M34.3,33.7c-2.4-1-3.3-2.6-3.5-4.6
			c1.6-1.3,2.9-3.1,3.9-5.1c0.7-0.2,1.3-0.7,1.8-1.4c0.6-0.8,1.1-1.8,1.3-2.9c0.2-1.1,0.3-2.2,0.1-3.3c-0.1-0.8-0.4-1.5-0.7-2.2
			c-0.4-3.6-1.9-7-4-9.3c-0.5-0.6-1.1-1.2-1.8-1.7C30,2.2,27.7,1,24.2,1c-3.6,0-6,1.3-7.4,2.3l-0.1,0.1c-2.8,2.4-5.2,6.2-5.5,10.1
			c0,0.3,0,0.5,0,0.7c-0.3,0.6-0.6,1.3-0.7,2.1c-0.2,1.1-0.1,2.2,0.1,3.3s0.7,2.1,1.3,2.9c0.5,0.6,1.1,1.1,1.8,1.4
			c1,2,2.3,3.8,3.9,5.1c-0.2,2-1.1,3.6-3.5,4.6C8.6,35.7,0.8,36.3,0.9,43c0,1.4,0.6,3,1.6,4.5h43.4c0.9-1.5,1.5-3,1.6-4.5
			C47.6,36.6,39.8,35.9,34.3,33.7z"/>
		<path fill="#FFFFFF" d="M14.8,23c-2.5-0.4-3.7-4.9-2.5-7.4c0.5-1.1,1.2-1.5,1.9-0.2c0.6,1.2,0.6,2.9,0.7,3.2
			c0.1,1.8,2,2.4,1.5,1.2c-0.4-1.2-1-3-1.1-5.3c0-1.7,0.5-3.5,1.2-5.1c0.8-1.2,1.7-1.7,4-1.1c1.2,0.3,2.6,0.5,4.1,0.5
			s2.9-0.2,4.1-0.5c2.1-0.6,2.6,0,3.5,1.1v0.1c0.6,1.5,1,3,1.1,4.5c0,0.1,0,0.2,0,0.2c-0.1,2.5-0.7,4.4-1.1,5.6
			c-0.4,1.2,1.5,0.6,1.5-1.2c0-0.2,0.1-1.7,0.5-2.9c0.6-1.5,1.4-1.6,2.1,0c1,2.7-0.1,6.9-2.6,7.3c-1.8,4-5,7-9.5,7
			C19.8,30.1,16.5,27,14.8,23z"/>
		<path fill="#FFFFFF" d="M24.3,46.9c-3.7-1.5-8.3-6.3-8.9-11.9c2-0.7,3.2-2.6,3.8-4.8c1.5,0.8,3.2,1.3,5,1.3c1.9,0,3.6-0.5,5.2-1.4
			c0.6,2.2,1.8,4.2,3.8,4.9C32.6,40.6,28,45.4,24.3,46.9z"/>
		
			<path fill="#9E9E9F" stroke="#FFFFFF" stroke-width="0.6704" stroke-linecap="round" stroke-linejoin="round" stroke-miterlimit="10" d="
			M24.1,32l-6.2,6.8l3.5-1.9c0,0-0.2,1.1,1.5,2.1c0,0-2.2,5.5,1.4,7.6c3.4-2.2,1.2-7.6,1.2-7.6s1.7-0.8,1.5-2.3
			c3.1,1.9,3.9,2.5,3.9,2.5L24.1,32z"/>
		<line fill="none" stroke="#FFFFFF" stroke-miterlimit="10" x1="33.6" y1="44.6" x2="40.2" y2="44.6"/>
	</g>
</g>
</svg>
