<?xml version="1.0" encoding="utf-8"?>
<!-- Generator: Adobe Illustrator 17.0.2, SVG Export Plug-In . SVG Version: 6.00 Build 0)  -->
<!DOCTYPE svg PUBLIC "-//W3C//DTD SVG 1.1//EN" "http://www.w3.org/Graphics/SVG/1.1/DTD/svg11.dtd">
<svg version="1.1" id="Livello_1" xmlns="http://www.w3.org/2000/svg" xmlns:xlink="http://www.w3.org/1999/xlink" x="0px" y="0px"
	 width="48.4px" height="48.5px" viewBox="0 0 48.4 48.5" enable-background="new 0 0 48.4 48.5" xml:space="preserve">
<g>
	<g>
		<rect x="7.9" y="10.1" fill="#9E9E9F" width="0.6" height="3.3"/>
		<rect x="7.9" y="13.4" fill="#9E9E9F" width="0.6" height="0.6"/>
		<rect x="7.9" y="14.5" fill="#9E9E9F" width="0.6" height="0.6"/>
		<rect x="7.9" y="15.5" fill="#9E9E9F" width="0.6" height="0.6"/>
		<rect x="7.9" y="16.7" fill="#9E9E9F" width="0.6" height="1.1"/>
		<rect x="7.9" y="17.8" fill="#9E9E9F" width="0.6" height="1.7"/>
		<rect x="7.9" y="19.5" fill="#9E9E9F" width="0.6" height="1.1"/>
		<rect x="8.5" y="10.1" fill="#9E9E9F" width="0.6" height="0.6"/>
		<rect x="8.5" y="13.4" fill="#9E9E9F" width="0.6" height="0.6"/>
		<rect x="8.5" y="15.5" fill="#9E9E9F" width="0.6" height="0.6"/>
		<rect x="8.5" y="16.7" fill="#9E9E9F" width="0.6" height="0.6"/>
		<rect x="8.5" y="20" fill="#9E9E9F" width="0.6" height="0.6"/>
		<rect x="9" y="10.1" fill="#9E9E9F" width="0.6" height="0.6"/>
		<rect x="9" y="11.1" fill="#9E9E9F" width="0.6" height="1.7"/>
		<rect x="9" y="13.4" fill="#9E9E9F" width="0.6" height="0.6"/>
		<rect x="9.5" y="14.3" fill="#9E9E9F" width="0.6" height="1.7"/>
		<rect x="9" y="16.7" fill="#9E9E9F" width="0.6" height="0.6"/>
		<rect x="9" y="17.8" fill="#9E9E9F" width="0.6" height="1.7"/>
		<rect x="9" y="20" fill="#9E9E9F" width="0.6" height="0.6"/>
		<rect x="9.6" y="10.1" fill="#9E9E9F" width="0.6" height="0.6"/>
		<rect x="9.6" y="11.1" fill="#9E9E9F" width="0.6" height="1.7"/>
		<rect x="9.6" y="13.4" fill="#9E9E9F" width="0.6" height="0.6"/>
		<rect x="9.6" y="16.7" fill="#9E9E9F" width="0.6" height="0.6"/>
		<rect x="9.6" y="17.8" fill="#9E9E9F" width="0.6" height="1.7"/>
		<rect x="9.6" y="20" fill="#9E9E9F" width="0.6" height="0.6"/>
		<rect x="10.2" y="10.1" fill="#9E9E9F" width="0.6" height="0.6"/>
		<rect x="10.2" y="11.1" fill="#9E9E9F" width="0.6" height="1.7"/>
		<rect x="10.2" y="13.4" fill="#9E9E9F" width="0.6" height="0.6"/>
		<rect x="10.2" y="16.7" fill="#9E9E9F" width="0.6" height="0.6"/>
		<rect x="10.2" y="17.8" fill="#9E9E9F" width="0.6" height="1.7"/>
		<rect x="10.2" y="20" fill="#9E9E9F" width="0.6" height="0.6"/>
		<rect x="10.7" y="10.1" fill="#9E9E9F" width="0.6" height="0.6"/>
		<rect x="10.7" y="13.4" fill="#9E9E9F" width="0.6" height="0.6"/>
		<rect x="10.7" y="15" fill="#9E9E9F" width="0.6" height="1.1"/>
		<rect x="10.7" y="16.7" fill="#9E9E9F" width="0.6" height="0.6"/>
		<rect x="10.7" y="20" fill="#9E9E9F" width="0.6" height="0.6"/>
		<rect x="11.3" y="10.1" fill="#9E9E9F" width="0.6" height="3.3"/>
		<rect x="11.3" y="13.4" fill="#9E9E9F" width="0.6" height="0.6"/>
		<rect x="11.3" y="14.5" fill="#9E9E9F" width="0.6" height="0.6"/>
		<rect x="11.3" y="15.5" fill="#9E9E9F" width="0.6" height="0.6"/>
		<rect x="11.3" y="16.7" fill="#9E9E9F" width="0.6" height="1.1"/>
		<rect x="11.3" y="17.8" fill="#9E9E9F" width="0.6" height="1.7"/>
		<rect x="11.3" y="19.5" fill="#9E9E9F" width="0.6" height="1.1"/>
		<rect x="11.9" y="15" fill="#9E9E9F" width="0.6" height="0.6"/>
		<rect x="12.4" y="10.1" fill="#9E9E9F" width="0.6" height="0.6"/>
		<rect x="12.4" y="11.1" fill="#9E9E9F" width="0.6" height="0.6"/>
		<rect x="12.4" y="12.9" fill="#9E9E9F" width="0.6" height="0.6"/>
		<rect x="12.4" y="13.4" fill="#9E9E9F" width="0.6" height="0.6"/>
		<rect x="12.4" y="15" fill="#9E9E9F" width="0.6" height="0.6"/>
		<rect x="12.4" y="16.2" fill="#9E9E9F" width="0.6" height="1.1"/>
		<rect x="12.4" y="19" fill="#9E9E9F" width="0.6" height="0.6"/>
		<rect x="12.4" y="20" fill="#9E9E9F" width="0.6" height="0.6"/>
		<rect x="13" y="10.1" fill="#9E9E9F" width="0.6" height="2"/>
		<rect x="13" y="16.7" fill="#9E9E9F" width="0.6" height="0.6"/>
		<rect x="13.4" y="14.3" fill="#9E9E9F" width="0.6" height="0.6"/>
		<rect x="13" y="19.5" fill="#9E9E9F" width="0.6" height="1.1"/>
		<rect x="13.6" y="10.1" fill="#9E9E9F" width="0.6" height="0.6"/>
		<rect x="13.6" y="12.9" fill="#9E9E9F" width="0.6" height="0.6"/>
		<rect x="13.6" y="15.5" fill="#9E9E9F" width="0.6" height="0.6"/>
		<rect x="13.6" y="20" fill="#9E9E9F" width="0.6" height="0.6"/>
		<rect x="13.8" y="15.5" fill="#9E9E9F" width="0.6" height="0.6"/>
		<rect x="13.8" y="17.8" fill="#9E9E9F" width="0.6" height="1.7"/>
		<rect x="14.3" y="10.1" fill="#9E9E9F" width="0.6" height="3.3"/>
		<rect x="14.3" y="13.4" fill="#9E9E9F" width="0.6" height="0.6"/>
		<rect x="14.3" y="16.7" fill="#9E9E9F" width="0.6" height="0.6"/>
		<rect x="13" y="17.8" fill="#9E9E9F" width="0.6" height="0.6"/>
		<rect x="14.3" y="17.8" fill="#9E9E9F" width="0.6" height="0.6"/>
		<rect x="14.3" y="19.5" fill="#9E9E9F" width="0.6" height="1.1"/>
		<rect x="14.9" y="10.1" fill="#9E9E9F" width="0.6" height="0.6"/>
		<rect x="14.9" y="13.4" fill="#9E9E9F" width="0.6" height="0.6"/>
		<rect x="14.9" y="15" fill="#9E9E9F" width="0.6" height="1.1"/>
		<rect x="14.9" y="17.8" fill="#9E9E9F" width="0.6" height="1.1"/>
		<rect x="14.9" y="19.5" fill="#9E9E9F" width="0.6" height="0.6"/>
		<rect x="15.5" y="10.1" fill="#9E9E9F" width="0.6" height="0.6"/>
		<rect x="15.5" y="11.1" fill="#9E9E9F" width="0.6" height="1.7"/>
		<rect x="15.5" y="13.4" fill="#9E9E9F" width="0.6" height="0.6"/>
		<rect x="15.5" y="15.5" fill="#9E9E9F" width="0.6" height="0.6"/>
		<rect x="15.5" y="16.2" fill="#9E9E9F" width="0.6" height="1.7"/>
		<rect x="15.5" y="19.5" fill="#9E9E9F" width="0.6" height="0.6"/>
		<rect x="16" y="10.1" fill="#9E9E9F" width="0.6" height="0.6"/>
		<rect x="16" y="11.1" fill="#9E9E9F" width="0.6" height="1.7"/>
		<rect x="16" y="13.4" fill="#9E9E9F" width="0.6" height="0.6"/>
		<rect x="16" y="14.5" fill="#9E9E9F" width="0.6" height="0.6"/>
		<rect x="16" y="16.7" fill="#9E9E9F" width="0.6" height="0.6"/>
		<rect x="16" y="17.8" fill="#9E9E9F" width="0.6" height="1.1"/>
		<rect x="16" y="20" fill="#9E9E9F" width="0.6" height="0.6"/>
		<rect x="16.6" y="10.1" fill="#9E9E9F" width="0.6" height="0.6"/>
		<rect x="16.6" y="11.1" fill="#9E9E9F" width="0.6" height="1.7"/>
		<rect x="16.6" y="13.4" fill="#9E9E9F" width="0.6" height="0.6"/>
		<rect x="16.6" y="14.5" fill="#9E9E9F" width="0.6" height="0.6"/>
		<rect x="16.6" y="16.2" fill="#9E9E9F" width="0.6" height="0.6"/>
		<rect x="16.6" y="18.3" fill="#9E9E9F" width="0.6" height="0.6"/>
		<rect x="17.2" y="10.1" fill="#9E9E9F" width="0.6" height="0.6"/>
		<rect x="17.2" y="13.4" fill="#9E9E9F" width="0.6" height="0.6"/>
		<rect x="17.2" y="15.5" fill="#9E9E9F" width="0.6" height="0.6"/>
		<rect x="17.2" y="17.3" fill="#9E9E9F" width="0.6" height="0.6"/>
		<rect x="17.7" y="10.1" fill="#9E9E9F" width="0.6" height="3.3"/>
		<rect x="17.7" y="13.4" fill="#9E9E9F" width="0.6" height="0.6"/>
		<rect x="17.7" y="16.2" fill="#9E9E9F" width="0.6" height="1.7"/>
		<rect x="17.7" y="17.8" fill="#9E9E9F" width="0.6" height="0.6"/>
		<rect x="17.7" y="19" fill="#9E9E9F" width="0.6" height="0.6"/>
		<rect x="17.7" y="20" fill="#9E9E9F" width="0.6" height="0.6"/>
	</g>
	<g transform="translate(80 1160)">
		<path fill="#9E9E9F" stroke="#FFFFFF" stroke-width="0.5" stroke-miterlimit="10" d="M-43.7-1157.2h-31.4c-1.6,0-2.9,1.3-2.9,2.9
			v19.6c0,1.6,1.3,2.9,2.9,2.9h14.7v3.9h-6.9c-0.5,0-1,0.4-1,1c0,0.5,0.4,1,1,1h15.7c0.5,0,1-0.4,1-1c0-0.5-0.4-1-1-1h-6.9v-3.9
			h14.7c1.6,0,2.9-1.3,2.9-2.9v-19.6C-40.7-1155.8-42.1-1157.2-43.7-1157.2z M-42.7-1134.7c0,0.5-0.4,1-1,1h-31.4c-0.5,0-1-0.4-1-1
			v-19.6c0-0.5,0.4-1,1-1h31.4c0.5,0,1,0.4,1,1C-42.7-1154.3-42.7-1134.7-42.7-1134.7z"/>
	</g>
</g>
<g>
	<rect x="26.5" y="17.8" transform="matrix(0.97 -0.243 0.243 0.97 -6.2289 9.3218)" fill="#FFFFFF" width="16.3" height="24.2"/>
	<g>
		
			<path fill="#9E9E9F" stroke="#FFFFFF" stroke-width="0.5" stroke-linecap="round" stroke-linejoin="round" stroke-miterlimit="10" d="
			M42.9,27.3c1.1,4.5,2.3,9.1,3.4,13.5c0.4,1.6-0.4,3-2,3.4c-4.1,1-8.1,2-12.2,3c-1.6,0.4-3-0.4-3.4-2c-2.3-9.1-4.5-18-6.8-27.1
			c-0.4-1.6,0.4-3,2-3.4c4.1-1,8.1-2,12.2-3c1.6-0.4,3,0.4,3.4,2C40.7,18.2,41.8,22.8,42.9,27.3z M44.1,38.8
			c-1.8-7.2-3.6-14.5-5.4-21.6c-4.8,1.2-9.5,2.4-14.2,3.6c1.8,7.2,3.6,14.4,5.4,21.6C34.7,41.1,39.3,40,44.1,38.8z M38.7,42.6
			c-0.2-0.7-0.8-1.1-1.6-1c-0.7,0.2-1.1,0.9-1,1.6c0.2,0.7,0.9,1.1,1.5,0.9C38.5,44.1,38.9,43.3,38.7,42.6z M30.9,16.2
			c-0.4,0.1-0.9,0.2-1.2,0.3c-0.1,0-0.2,0.2-0.3,0.3c0.2,0.1,0.3,0.2,0.5,0.3c0.9-0.2,1.6-0.4,2.5-0.6c0.1,0,0.2-0.3,0.3-0.3
			c-0.2-0.1-0.3-0.2-0.4-0.2C31.8,16,31.3,16.1,30.9,16.2z"/>
	</g>
</g>
<g>
	
		<rect x="30.2" y="24.7" transform="matrix(0.9722 -0.2342 0.2342 0.9722 -5.7591 8.7866)" fill="none" stroke="#9E9E9F" stroke-width="0.5" stroke-miterlimit="10" width="7.8" height="7.8"/>
	<line fill="none" stroke="#9E9E9F" stroke-width="0.5" stroke-miterlimit="10" x1="32.9" y1="23.9" x2="33.3" y2="25.8"/>
	<line fill="none" stroke="#9E9E9F" stroke-width="0.5" stroke-miterlimit="10" x1="34.7" y1="31.5" x2="35.2" y2="33.4"/>
	<line fill="none" stroke="#9E9E9F" stroke-width="0.5" stroke-miterlimit="10" x1="29.2" y1="29.8" x2="31.1" y2="29.4"/>
	<line fill="none" stroke="#9E9E9F" stroke-width="0.5" stroke-miterlimit="10" x1="36.9" y1="28" x2="38.8" y2="27.5"/>
</g>
</svg>
