<?xml version="1.0" encoding="utf-8"?>
<!-- Generator: Adobe Illustrator 17.0.2, SVG Export Plug-In . SVG Version: 6.00 Build 0)  -->
<!DOCTYPE svg PUBLIC "-//W3C//DTD SVG 1.1//EN" "http://www.w3.org/Graphics/SVG/1.1/DTD/svg11.dtd">
<svg version="1.1" id="Livello_1" xmlns="http://www.w3.org/2000/svg" xmlns:xlink="http://www.w3.org/1999/xlink" x="0px" y="0px"
	 width="48.4px" height="48.5px" viewBox="0 0 48.4 48.5" enable-background="new 0 0 48.4 48.5" xml:space="preserve">
<g transform="translate(440 480)">
	
		<path fill="#9E9E9F" stroke="#FFFFFF" stroke-width="0.9503" stroke-linecap="round" stroke-linejoin="round" stroke-miterlimit="10" d="
		M-408.1-469.8l-8.6-8.6c-0.2-0.2-0.4-0.3-0.7-0.3h-18.1c-1.6,0-2.9,1.3-2.9,2.9v37.4c0,1.6,1.3,2.9,2.9,2.9h24.7
		c1.6,0,2.9-1.3,2.9-2.9v-30.8C-407.8-469.4-407.9-469.6-408.1-469.8z M-410.1-469.1h-6.3c-0.5,0-1-0.4-1-1v-6.3L-410.1-469.1z
		 M-409.7-438.4c0,0.5-0.4,1-1,1h-24.7c-0.5,0-1-0.4-1-1v-37.4c0-0.5,0.4-1,1-1h16.2v6.7c0,1.6,1.3,2.9,2.9,2.9h6.7V-438.4z"/>
</g>
<g>
	<g>
		<rect x="7.9" y="10.1" fill="#9E9E9F" width="0.6" height="3.3"/>
		<rect x="7.9" y="13.4" fill="#9E9E9F" width="0.6" height="0.6"/>
		<rect x="7.9" y="14.5" fill="#9E9E9F" width="0.6" height="0.6"/>
		<rect x="7.9" y="15.5" fill="#9E9E9F" width="0.6" height="0.6"/>
		<rect x="7.9" y="16.7" fill="#9E9E9F" width="0.6" height="1.1"/>
		<rect x="7.9" y="17.8" fill="#9E9E9F" width="0.6" height="1.7"/>
		<rect x="7.9" y="19.5" fill="#9E9E9F" width="0.6" height="1.1"/>
		<rect x="8.5" y="10.1" fill="#9E9E9F" width="0.6" height="0.6"/>
		<rect x="8.5" y="13.4" fill="#9E9E9F" width="0.6" height="0.6"/>
		<rect x="8.5" y="15.5" fill="#9E9E9F" width="0.6" height="0.6"/>
		<rect x="8.5" y="16.7" fill="#9E9E9F" width="0.6" height="0.6"/>
		<rect x="8.5" y="20" fill="#9E9E9F" width="0.6" height="0.6"/>
		<rect x="9" y="10.1" fill="#9E9E9F" width="0.6" height="0.6"/>
		<rect x="9" y="11.1" fill="#9E9E9F" width="0.6" height="1.7"/>
		<rect x="9" y="13.4" fill="#9E9E9F" width="0.6" height="0.6"/>
		<rect x="9.5" y="14.3" fill="#9E9E9F" width="0.6" height="1.7"/>
		<rect x="9" y="16.7" fill="#9E9E9F" width="0.6" height="0.6"/>
		<rect x="9" y="17.8" fill="#9E9E9F" width="0.6" height="1.7"/>
		<rect x="9" y="20" fill="#9E9E9F" width="0.6" height="0.6"/>
		<rect x="9.6" y="10.1" fill="#9E9E9F" width="0.6" height="0.6"/>
		<rect x="9.6" y="11.1" fill="#9E9E9F" width="0.6" height="1.7"/>
		<rect x="9.6" y="13.4" fill="#9E9E9F" width="0.6" height="0.6"/>
		<rect x="9.6" y="16.7" fill="#9E9E9F" width="0.6" height="0.6"/>
		<rect x="9.6" y="17.8" fill="#9E9E9F" width="0.6" height="1.7"/>
		<rect x="9.6" y="20" fill="#9E9E9F" width="0.6" height="0.6"/>
		<rect x="10.2" y="10.1" fill="#9E9E9F" width="0.6" height="0.6"/>
		<rect x="10.2" y="11.1" fill="#9E9E9F" width="0.6" height="1.7"/>
		<rect x="10.2" y="13.4" fill="#9E9E9F" width="0.6" height="0.6"/>
		<rect x="10.2" y="16.7" fill="#9E9E9F" width="0.6" height="0.6"/>
		<rect x="10.2" y="17.8" fill="#9E9E9F" width="0.6" height="1.7"/>
		<rect x="10.2" y="20" fill="#9E9E9F" width="0.6" height="0.6"/>
		<rect x="10.7" y="10.1" fill="#9E9E9F" width="0.6" height="0.6"/>
		<rect x="10.7" y="13.4" fill="#9E9E9F" width="0.6" height="0.6"/>
		<rect x="10.7" y="15" fill="#9E9E9F" width="0.6" height="1.1"/>
		<rect x="10.7" y="16.7" fill="#9E9E9F" width="0.6" height="0.6"/>
		<rect x="10.7" y="20" fill="#9E9E9F" width="0.6" height="0.6"/>
		<rect x="11.3" y="10.1" fill="#9E9E9F" width="0.6" height="3.3"/>
		<rect x="11.3" y="13.4" fill="#9E9E9F" width="0.6" height="0.6"/>
		<rect x="11.3" y="14.5" fill="#9E9E9F" width="0.6" height="0.6"/>
		<rect x="11.3" y="15.5" fill="#9E9E9F" width="0.6" height="0.6"/>
		<rect x="11.3" y="16.7" fill="#9E9E9F" width="0.6" height="1.1"/>
		<rect x="11.3" y="17.8" fill="#9E9E9F" width="0.6" height="1.7"/>
		<rect x="11.3" y="19.5" fill="#9E9E9F" width="0.6" height="1.1"/>
		<rect x="11.9" y="15" fill="#9E9E9F" width="0.6" height="0.6"/>
		<rect x="12.4" y="10.1" fill="#9E9E9F" width="0.6" height="0.6"/>
		<rect x="12.4" y="11.1" fill="#9E9E9F" width="0.6" height="0.6"/>
		<rect x="12.4" y="12.9" fill="#9E9E9F" width="0.6" height="0.6"/>
		<rect x="12.4" y="13.4" fill="#9E9E9F" width="0.6" height="0.6"/>
		<rect x="12.4" y="15" fill="#9E9E9F" width="0.6" height="0.6"/>
		<rect x="12.4" y="16.2" fill="#9E9E9F" width="0.6" height="1.1"/>
		<rect x="12.4" y="19" fill="#9E9E9F" width="0.6" height="0.6"/>
		<rect x="12.4" y="20" fill="#9E9E9F" width="0.6" height="0.6"/>
		<rect x="13" y="10.1" fill="#9E9E9F" width="0.6" height="2"/>
		<rect x="13" y="16.7" fill="#9E9E9F" width="0.6" height="0.6"/>
		<rect x="13.4" y="14.3" fill="#9E9E9F" width="0.6" height="0.6"/>
		<rect x="13" y="19.5" fill="#9E9E9F" width="0.6" height="1.1"/>
		<rect x="13.6" y="10.1" fill="#9E9E9F" width="0.6" height="0.6"/>
		<rect x="13.6" y="12.9" fill="#9E9E9F" width="0.6" height="0.6"/>
		<rect x="13.6" y="15.5" fill="#9E9E9F" width="0.6" height="0.6"/>
		<rect x="13.6" y="20" fill="#9E9E9F" width="0.6" height="0.6"/>
		<rect x="13.8" y="15.5" fill="#9E9E9F" width="0.6" height="0.6"/>
		<rect x="13.8" y="17.8" fill="#9E9E9F" width="0.6" height="1.7"/>
		<rect x="14.3" y="10.1" fill="#9E9E9F" width="0.6" height="3.3"/>
		<rect x="14.3" y="13.4" fill="#9E9E9F" width="0.6" height="0.6"/>
		<rect x="14.3" y="16.7" fill="#9E9E9F" width="0.6" height="0.6"/>
		<rect x="13" y="17.8" fill="#9E9E9F" width="0.6" height="0.6"/>
		<rect x="14.3" y="17.8" fill="#9E9E9F" width="0.6" height="0.6"/>
		<rect x="14.3" y="19.5" fill="#9E9E9F" width="0.6" height="1.1"/>
		<rect x="14.9" y="10.1" fill="#9E9E9F" width="0.6" height="0.6"/>
		<rect x="14.9" y="13.4" fill="#9E9E9F" width="0.6" height="0.6"/>
		<rect x="14.9" y="15" fill="#9E9E9F" width="0.6" height="1.1"/>
		<rect x="14.9" y="17.8" fill="#9E9E9F" width="0.6" height="1.1"/>
		<rect x="14.9" y="19.5" fill="#9E9E9F" width="0.6" height="0.6"/>
		<rect x="15.5" y="10.1" fill="#9E9E9F" width="0.6" height="0.6"/>
		<rect x="15.5" y="11.1" fill="#9E9E9F" width="0.6" height="1.7"/>
		<rect x="15.5" y="13.4" fill="#9E9E9F" width="0.6" height="0.6"/>
		<rect x="15.5" y="15.5" fill="#9E9E9F" width="0.6" height="0.6"/>
		<rect x="15.5" y="16.2" fill="#9E9E9F" width="0.6" height="1.7"/>
		<rect x="15.5" y="19.5" fill="#9E9E9F" width="0.6" height="0.6"/>
		<rect x="16" y="10.1" fill="#9E9E9F" width="0.6" height="0.6"/>
		<rect x="16" y="11.1" fill="#9E9E9F" width="0.6" height="1.7"/>
		<rect x="16" y="13.4" fill="#9E9E9F" width="0.6" height="0.6"/>
		<rect x="16" y="14.5" fill="#9E9E9F" width="0.6" height="0.6"/>
		<rect x="16" y="16.7" fill="#9E9E9F" width="0.6" height="0.6"/>
		<rect x="16" y="17.8" fill="#9E9E9F" width="0.6" height="1.1"/>
		<rect x="16" y="20" fill="#9E9E9F" width="0.6" height="0.6"/>
		<rect x="16.6" y="10.1" fill="#9E9E9F" width="0.6" height="0.6"/>
		<rect x="16.6" y="11.1" fill="#9E9E9F" width="0.6" height="1.7"/>
		<rect x="16.6" y="13.4" fill="#9E9E9F" width="0.6" height="0.6"/>
		<rect x="16.6" y="14.5" fill="#9E9E9F" width="0.6" height="0.6"/>
		<rect x="16.6" y="16.2" fill="#9E9E9F" width="0.6" height="0.6"/>
		<rect x="16.6" y="18.3" fill="#9E9E9F" width="0.6" height="0.6"/>
		<rect x="17.2" y="10.1" fill="#9E9E9F" width="0.6" height="0.6"/>
		<rect x="17.2" y="13.4" fill="#9E9E9F" width="0.6" height="0.6"/>
		<rect x="17.2" y="15.5" fill="#9E9E9F" width="0.6" height="0.6"/>
		<rect x="17.2" y="17.3" fill="#9E9E9F" width="0.6" height="0.6"/>
		<rect x="17.7" y="10.1" fill="#9E9E9F" width="0.6" height="3.3"/>
		<rect x="17.7" y="13.4" fill="#9E9E9F" width="0.6" height="0.6"/>
		<rect x="17.7" y="16.2" fill="#9E9E9F" width="0.6" height="1.7"/>
		<rect x="17.7" y="17.8" fill="#9E9E9F" width="0.6" height="0.6"/>
		<rect x="17.7" y="19" fill="#9E9E9F" width="0.6" height="0.6"/>
		<rect x="17.7" y="20" fill="#9E9E9F" width="0.6" height="0.6"/>
	</g>
</g>
<g>
	<polygon fill="#FFFFFF" points="22.9,18.6 38.7,14.7 45.5,39.8 29.7,43.7 	"/>
	<g>
		
			<path fill="#9E9E9F" stroke="#FFFFFF" stroke-width="0.4944" stroke-linecap="round" stroke-linejoin="round" stroke-miterlimit="10" d="
			M42.9,27.7c1.1,4.4,2.3,8.9,3.4,13.2c0.4,1.6-0.4,2.9-2,3.3c-4.1,1-8.1,2-12.2,2.9c-1.6,0.4-3-0.4-3.4-2
			c-2.3-8.9-4.5-17.6-6.8-26.5c-0.4-1.6,0.4-2.9,2-3.3c4.1-1,8.1-2,12.2-2.9c1.6-0.4,3,0.4,3.4,2C40.7,18.8,41.8,23.3,42.9,27.7z
			 M44.1,39c-1.8-7-3.6-14.2-5.4-21.1c-4.8,1.2-9.5,2.3-14.2,3.5c1.8,7,3.6,14.1,5.4,21.1C34.7,41.2,39.3,40.2,44.1,39z M38.7,42.7
			c-0.2-0.7-0.8-1.1-1.6-1c-0.7,0.2-1.1,0.9-1,1.6c0.2,0.7,0.9,1.1,1.5,0.9C38.5,44.2,38.9,43.4,38.7,42.7z M30.9,16.9
			c-0.4,0.1-0.9,0.2-1.2,0.3c-0.1,0-0.2,0.2-0.3,0.3c0.2,0.1,0.3,0.2,0.5,0.3c0.9-0.2,1.6-0.4,2.5-0.6c0.1,0,0.2-0.3,0.3-0.3
			c-0.2-0.1-0.3-0.2-0.4-0.2C31.8,16.7,31.3,16.8,30.9,16.9z"/>
	</g>
</g>
<g>
	
		<rect x="30.2" y="24.7" transform="matrix(-0.9722 0.2342 -0.2342 -0.9722 73.9333 48.431)" fill="none" stroke="#9E9E9F" stroke-width="0.5" stroke-miterlimit="10" width="7.8" height="7.8"/>
	<line fill="none" stroke="#9E9E9F" stroke-width="0.5" stroke-miterlimit="10" x1="32.9" y1="23.9" x2="33.3" y2="25.8"/>
	<line fill="none" stroke="#9E9E9F" stroke-width="0.5" stroke-miterlimit="10" x1="34.7" y1="31.5" x2="35.2" y2="33.4"/>
	<line fill="none" stroke="#9E9E9F" stroke-width="0.5" stroke-miterlimit="10" x1="29.2" y1="29.8" x2="31.1" y2="29.4"/>
	<line fill="none" stroke="#9E9E9F" stroke-width="0.5" stroke-miterlimit="10" x1="36.9" y1="28" x2="38.8" y2="27.5"/>
</g>
</svg>
