<?xml version="1.0" encoding="utf-8"?>
<!-- Generator: Adobe Illustrator 17.0.2, SVG Export Plug-In . SVG Version: 6.00 Build 0)  -->
<!DOCTYPE svg PUBLIC "-//W3C//DTD SVG 1.1//EN" "http://www.w3.org/Graphics/SVG/1.1/DTD/svg11.dtd">
<svg version="1.1" id="Livello_1" xmlns="http://www.w3.org/2000/svg" xmlns:xlink="http://www.w3.org/1999/xlink" x="0px" y="0px"
	 width="100px" height="100px" viewBox="0 0 100 100" enable-background="new 0 0 100 100" xml:space="preserve">
<g transform="translate(240 280)">
	<path fill="#9D9E9F" d="M-190.002-180c-0.264,0-0.537-0.044-0.791-0.13c-9.194-3.066-20.731-13.254-29.398-25.966
		c-7.895-11.579-17.309-30.768-17.309-56.406c0-1.379,1.123-2.5,2.5-2.5c14.071,0,36.189-9.629,43.611-14.579
		c0.84-0.559,1.933-0.559,2.773,0c7.431,4.951,29.549,14.579,43.616,14.579c1.382,0,2.5,1.12,2.5,2.5
		c0,25.638-9.414,44.822-17.309,56.406c-8.662,12.705-20.204,22.9-29.398,25.966c-0.258,0.086-0.522,0.13-0.791,0.13H-190.002z
		 M-232.472-260.077c0.566,23.156,9.16,40.538,16.41,51.174c8.843,12.968,19.282,21.149,26.059,23.754
		c6.777-2.605,17.216-10.781,26.058-23.754c7.251-10.637,15.844-28.019,16.41-51.174c-8.139-0.51-17.211-3.31-23.651-5.698
		c-7.089-2.627-14.243-5.966-18.817-8.757c-4.575,2.791-11.729,6.13-18.818,8.757C-215.265-263.392-224.332-260.588-232.472-260.077
		z"/>
	<path fill="#9D9E9F" d="M-195.002-217.498c-0.64,0-1.279-0.244-1.768-0.73l-10-10c-0.976-0.974-0.976-2.561,0-3.535
		c0.972-0.974,2.559-0.974,3.535,0l8.227,8.23l23.226-23.229c0.977-0.974,2.563-0.974,3.535,0c0.977,0.974,0.977,2.561,0,3.535
		l-24.999,24.999c-0.488,0.49-1.128,0.73-1.767,0.73H-195.002z"/>
</g>
</svg>
