<?xml version="1.0" encoding="UTF-8" standalone="no"?>
<!-- Created with Inkscape (http://www.inkscape.org/) -->

<svg
   xmlns:dc="http://purl.org/dc/elements/1.1/"
   xmlns:cc="http://creativecommons.org/ns#"
   xmlns:rdf="http://www.w3.org/1999/02/22-rdf-syntax-ns#"
   xmlns:svg="http://www.w3.org/2000/svg"
   xmlns="http://www.w3.org/2000/svg"
   xmlns:sodipodi="http://sodipodi.sourceforge.net/DTD/sodipodi-0.dtd"
   xmlns:inkscape="http://www.inkscape.org/namespaces/inkscape"
   width="128px"
   height="128px"
   viewBox="0 0 128 128"
   version="1.1"
   id="SVGRoot"
   sodipodi:docname="tabc-icon.svg"
   inkscape:version="0.92.2 5c3e80d, 2017-08-06">
  <sodipodi:namedview
     id="base"
     pagecolor="#ffffff"
     bordercolor="#666666"
     borderopacity="1.0"
     inkscape:pageopacity="0.0"
     inkscape:pageshadow="2"
     inkscape:zoom="3.5132043"
     inkscape:cx="109.53491"
     inkscape:cy="88.072082"
     inkscape:document-units="px"
     inkscape:current-layer="layer1"
     showgrid="false"
     inkscape:window-width="1529"
     inkscape:window-height="941"
     inkscape:window-x="1176"
     inkscape:window-y="447"
     inkscape:window-maximized="0"
     inkscape:grid-bbox="true" />
  <defs
     id="defs3925" />
  <metadata
     id="metadata3928">
    <rdf:RDF>
      <cc:Work
         rdf:about="">
        <dc:format>image/svg+xml</dc:format>
        <dc:type
           rdf:resource="http://purl.org/dc/dcmitype/StillImage" />
        <dc:title></dc:title>
      </cc:Work>
    </rdf:RDF>
  </metadata>
  <g
     id="layer1"
     inkscape:groupmode="layer"
     inkscape:label="Layer 1">
    <path
       inkscape:connector-curvature="0"
       style="fill:#ffa400;fill-rule:evenodd;stroke-width:0.10808566;fill-opacity:1"
       id="Path 0"
       class="shp0"
       d="m 59.799159,35.526245 c 2.667549,0 2.740945,0.005 2.740945,0.213274 0,0.117304 -0.2191,1.25729 -0.486403,2.532718 -0.267302,1.275419 -0.6825,3.255735 -1.359519,6.478419 l 1.388003,-0.07995 c 0.76466,-0.04376 1.980666,-0.07894 4.0183,-0.07995 l 0.25087,-1.253033 c 0.136937,-0.688896 0.558707,-2.71614 1.62244,-7.758105 l 5.490653,-0.05647 0.01424,0.241005 c 0.0088,0.133304 -0.301266,1.75424 -0.689075,3.60126 -0.386709,1.847012 -0.781092,3.719626 -0.875307,4.158983 -0.09421,0.440426 -0.171994,0.83607 -0.171994,0.879792 0,0.04376 1.220394,0.07995 2.711372,0.07995 1.676118,0 3.19229,0.05757 3.971198,0.150363 0.69345,0.08315 1.579711,0.230342 1.971903,0.327389 0.392184,0.09704 0.933366,0.24847 1.205049,0.334854 0.271683,0.08744 0.887354,0.344448 1.369378,0.571592 0.482018,0.227144 1.209432,0.68037 1.615861,1.007755 0.406436,0.32632 0.948711,0.876583 1.670644,1.849148 l 0.82163,-0.506545 c 0.452442,-0.277268 1.241199,-0.711294 1.752798,-0.961897 0.5116,-0.251674 1.325558,-0.620651 1.807581,-0.822198 0.482018,-0.200489 1.493169,-0.549203 2.245774,-0.775278 0.75371,-0.225015 1.887554,-0.51188 2.519651,-0.63665 0.632106,-0.12583 1.816344,-0.297528 2.629205,-0.381774 1.188628,-0.123701 3.646924,-0.154622 12.516114,-0.155699 6.07017,-0.0017 11.03718,0.01069 11.03718,0.02558 9.2e-4,0.0149 -0.41848,2.030437 -0.93118,4.478905 -0.5116,2.448468 -0.93117,4.500238 -0.93117,4.558892 0,0.07038 -3.66117,0.106639 -10.76332,0.107706 -8.81221,0 -10.951724,0.02775 -11.80403,0.153564 -0.572944,0.08424 -1.385803,0.258069 -1.807569,0.386035 -0.421775,0.127972 -1.11194,0.386041 -1.533705,0.572661 -0.421766,0.18662 -1.111931,0.554531 -1.533697,0.817933 -0.421766,0.263404 -1.130561,0.812606 -1.574238,1.219972 -0.443677,0.407366 -1.046208,1.053611 -1.336512,1.434316 -0.291403,0.380709 -0.704406,1.040815 -0.918029,1.46631 -0.213624,0.425497 -0.515982,1.193311 -0.671547,1.706253 -0.169796,0.561997 -0.306739,1.336206 -0.343981,1.946191 -0.04493,0.732623 -0.01313,1.233832 0.116119,1.812893 0.0986,0.440425 0.336323,1.112262 0.528036,1.49297 0.227863,0.452156 0.620047,0.956565 1.12508,1.449247 0.579515,0.566262 1.008954,0.869121 1.705694,1.203973 0.511599,0.246339 1.301455,0.55133 1.752802,0.6793 0.816142,0.229278 0.89831,0.231412 12.132687,0.262337 11.22778,0.03093 11.31105,0.032 11.31105,0.244207 0,0.117305 -0.22457,1.280754 -0.49845,2.586036 -0.27387,1.305282 -0.6803,3.250408 -1.30912,6.27474 l -11.77666,-0.0352 C 90.97057,79.295896 90.727363,79.29056 89.599001,79.065555 88.966893,78.938653 88.029145,78.71684 87.517546,78.570742 87.005945,78.425711 86.142693,78.120718 85.600419,77.892507 85.058144,77.664296 84.201464,77.240932 83.69753,76.950869 83.193602,76.660807 82.380737,76.107341 80.999311,75.02174 l -0.547755,0.468153 c -0.301259,0.257003 -0.942131,0.725156 -1.424148,1.039745 -0.482024,0.31459 -1.394578,0.81047 -2.026679,1.100534 -0.632107,0.290062 -1.532608,0.653707 -1.999295,0.807268 -0.466679,0.152497 -1.452631,0.40417 -2.191001,0.557733 -1.25545,0.260202 -1.569855,0.280465 -8.407978,0.360445 l -0.100785,0.506544 c -0.05478,0.27833 -0.33851,1.646531 -1.159042,5.574109 l -2.766146,-0.0012 c -2.561281,-0.0012 -2.766143,-0.01494 -2.767234,-0.187688 0,-0.102375 0.245392,-1.361802 0.546656,-2.799318 0.300164,-1.437516 0.571849,-2.720404 0.65949,-3.09258 h -5.367928 l -0.107365,0.506544 c -0.06026,0.278333 -0.330843,1.574017 -0.602523,2.879299 -0.272781,1.305282 -0.495168,2.444204 -0.495168,2.532716 0,0.137566 -0.383423,0.159961 -2.793529,0.159961 -2.72013,0 -2.79353,-0.0053 -2.79353,-0.21328 0,-0.117306 0.154464,-0.944837 0.343989,-1.839553 0.188425,-0.894716 0.451346,-2.154143 0.820527,-3.972367 l -7.373822,-0.02665 c -4.056644,-0.01494 -7.376015,-0.06292 -7.376015,-0.106639 -0.0013,-0.04372 0.144605,-0.775278 0.32427,-1.626271 0.179661,-0.850995 0.577326,-2.72147 0.884067,-4.158986 0.306742,-1.437519 0.591573,-2.745999 0.709885,-3.204555 l 2.054066,0.0032 c 1.129465,0.0012 2.052972,-0.03413 2.052972,-0.07785 -0.0013,-0.04371 -0.219101,-0.895767 -0.485307,-1.892858 -0.266208,-0.997088 -0.737273,-2.772657 -1.046206,-3.945702 -0.310027,-1.17305 -0.728508,-2.756665 -0.931174,-3.519146 -0.202668,-0.76248 -0.695648,-2.634025 -1.094409,-4.158986 -0.398765,-1.524962 -0.749318,-2.845174 -0.779997,-2.932619 -0.03287,-0.09598 -2.336706,3.180026 -11.422799,16.475988 l 2.074881,0.02665 c 1.140416,0.01494 2.074881,0.06291 2.074881,0.106642 0.0013,0.04372 -0.248678,1.255162 -0.554324,2.692676 -0.305646,1.437516 -0.725221,3.405039 -0.931176,4.37227 -0.207053,0.968297 -0.375759,1.795829 -0.376854,1.839552 -0.0013,0.04372 -4.487175,0.07998 -9.970161,0.07998 -5.482989,0 -9.9876964,-0.03626 -10.0117937,-0.07998 -0.022986,-0.04372 2.4046247,-3.642847 5.3953487,-7.998053 2.990715,-4.355206 8.297331,-12.081323 18.145892,-26.420225 l 13.255575,-0.05975 0.684691,2.535913 c 0.375756,1.394858 0.858872,3.183224 1.072493,3.975564 0.213627,0.79234 0.561993,2.086961 0.773424,2.879302 0.212527,0.79234 0.533509,1.992045 0.714267,2.666015 0.179665,0.673971 0.407528,1.514299 0.683596,2.506057 l 0.248679,-1.226367 c 0.136935,-0.673971 0.715361,-3.45836 1.286119,-6.185162 0.571849,-2.726802 1.141511,-5.438672 1.266401,-6.025197 0.12598,-0.586523 0.24101,-1.076007 0.255251,-1.087731 0.01426,-0.01069 1.29598,-0.05866 2.848302,-0.106641 2.36519,-0.07145 2.830781,-0.110908 2.869121,-0.245272 0.02521,-0.08744 0.224582,-1.023751 0.442586,-2.079491 0.218004,-1.055749 0.616765,-2.975283 0.887355,-4.265633 0.269497,-1.290349 0.511599,-2.405811 0.538987,-2.479402 0.03725,-0.101305 0.695643,-0.133295 2.790243,-0.133295 z m -1.420868,20.288384 c -0.242106,1.158119 -0.439296,2.154144 -0.439296,2.212796 0,0.07038 2.529514,0.106641 7.367251,0.107707 6.506186,0.0012 7.437361,-0.01919 7.969779,-0.173823 0.330835,-0.09598 0.775618,-0.280467 0.985952,-0.409501 0.210334,-0.130101 0.526937,-0.399902 0.701122,-0.600389 0.175277,-0.199418 0.384518,-0.51934 0.465588,-0.710225 0.08107,-0.190888 0.147892,-0.514006 0.147892,-0.719825 0,-0.205815 -0.06463,-0.528938 -0.14351,-0.719826 -0.07888,-0.190888 -0.31332,-0.475616 -0.520364,-0.63238 -0.207051,-0.157828 -0.59815,-0.336983 -0.869826,-0.397768 -0.314413,-0.07145 -3.153951,-0.111974 -7.86023,-0.114105 -4.052261,-0.0013 -7.36725,0.0096 -7.366159,0.02451 0,0.01493 -0.19719,0.974696 -0.438199,2.13281 z m -2.184429,10.450788 c -0.06354,0.308194 -0.276068,1.340474 -0.472161,2.293843 l -0.357136,1.733977 15.337029,-0.05545 c 1.018814,-0.463889 1.478927,-0.751817 1.680503,-0.938437 0.200479,-0.18769 0.464489,-0.533204 0.58609,-0.767813 0.120507,-0.23461 0.222388,-0.641979 0.225671,-0.906447 0.0041,-0.288997 -0.07887,-0.628114 -0.208143,-0.853124 -0.118317,-0.205819 -0.384519,-0.483084 -0.592662,-0.617451 -0.207058,-0.134366 -0.549946,-0.290064 -0.76028,-0.346583 -0.225679,-0.05972 -3.465074,-0.101307 -7.853657,-0.101307 l -7.470229,-0.0012 z" />
    <rect
       style="opacity:1;fill:#0000ff;fill-opacity:1;stroke:none;stroke-width:1.54137659"
       id="rect3699"
       width="37.440475"
       height="42.5"
       x="78.292473"
       y="65.288132" />
    <text
       xml:space="preserve"
       style="font-style:normal;font-variant:normal;font-weight:bold;font-stretch:normal;font-size:43.17460251px;line-height:125%;font-family:'Droid Sans';-inkscape-font-specification:'Droid Sans Bold';text-align:start;letter-spacing:0px;word-spacing:0px;writing-mode:lr-tb;text-anchor:start;fill:#ffffff;fill-opacity:1;stroke:none;stroke-width:0.67460316px;stroke-linecap:butt;stroke-linejoin:miter;stroke-opacity:1"
       x="84.689308"
       y="101.87942"
       id="text3707"><tspan
         sodipodi:role="line"
         id="tspan3705"
         x="84.689308"
         y="101.87942"
         style="font-style:normal;font-variant:normal;font-weight:bold;font-stretch:normal;font-family:'Droid Sans';-inkscape-font-specification:'Droid Sans Bold';stroke-width:0.67460316px">T</tspan></text>
  </g>
</svg>
